<svg aria-hidden="true" style="position: absolute; width: 0; height: 0; overflow: hidden;" version="1.1" xmlns="http://www.w3.org/2000/svg" xmlns:xlink="http://www.w3.org/1999/xlink">
<defs>
<symbol id="icon--cross" viewBox="0 0 32 32">
<defs><style></style></defs> <!-- !! leave this here, you need this if you don't want it broken by imagemin !! -->
<title>cross</title>
<path d="M31.13 5.462l-4.526-4.525-10.536 10.538-10.538-10.538-4.526 4.525 10.538 10.538-10.538 10.538 4.526 4.525 10.538-10.538 10.536 10.538 4.526-4.525-10.538-10.538z"></path>
</symbol>
<symbol id="icon--arrow--up" viewBox="0 0 29 32">
<title>arrow--up</title>
<path stroke-width="3.3684" stroke-miterlimit="4" stroke-linecap="square" stroke-linejoin="miter" d="M14.316 5.895v22.752"></path>
<path d="M3.212 16l-2.37-2.371 12.289-12.296c0.654-0.655 1.715-0.655 2.37 0l12.289 12.296-2.37 2.371-9.919-8.942c-0.79-0.745-1.58-0.745-2.37 0s-4.096 3.726-9.919 8.942z"></path>
</symbol>
<symbol id="icon--chevron--down" viewBox="0 0 57 32">
<title>chevron--down</title>
<path d="M6.494 0.641l-4.849 4.849 25.143 25.143c1.339 1.339 3.51 1.339 4.849 0l25.143-25.143-4.849-4.849-20.294 18.286c-1.616 1.524-3.233 1.524-4.849 0s-8.381-7.619-20.294-18.286z"></path>
</symbol>
<symbol id="icon--lightbulb" viewBox="0 0 25 32">
<title>lightbulb</title>
<path d="M10.475 0h4.462v4.571h-4.462v-4.571zM23.229 4.926l2.23 3.864-3.959 2.285-2.23-3.864 3.959-2.285zM2.258 4.905l3.864 2.23-2.285 3.959-3.864-2.23 2.285-3.959zM20.514 14.857c0 2.711-1.33 5.099-3.346 6.546v3.739h-8.924v-3.739c-2.017-1.447-3.346-3.835-3.346-6.546 0-4.411 3.502-8 7.808-8s7.808 3.589 7.808 8zM10.475 27.429h4.462v4.571h-4.462v-4.571z"></path>
</symbol>
<symbol id="icon--check" viewBox="0 0 36 32">
<title>check</title>
<path d="M15.319 32l-15.319-11.429 4.596-6.095 9.192 6.857 16.085-21.333 6.128 4.571z"></path>
</symbol>
</defs>
</svg>
