<?xml version="1.0" encoding="UTF-8" standalone="no"?>
<svg width="37px" height="38px" viewBox="0 0 37 38" version="1.1" xmlns="http://www.w3.org/2000/svg" xmlns:xlink="http://www.w3.org/1999/xlink" xmlns:sketch="http://www.bohemiancoding.com/sketch/ns">
    <!-- Generator: Sketch 3.2.2 (9983) - http://www.bohemiancoding.com/sketch -->
    <title>Fill 185</title>
    <desc>Created with Sketch.</desc>
    <defs></defs>
    <g id="Demosite" stroke="none" stroke-width="1" fill="none" fill-rule="evenodd" sketch:type="MSPage">
	<g id="Demosite_home_v1" sketch:type="MSArtboardGroup" transform="translate(-410.000000, -2387.000000)" fill="#FFFFFF">
	    <g id="MIDDLE" sketch:type="MSLayerGroup" transform="translate(-17.000000, -303.000000)">
		<g id="Howwework" transform="translate(37.000000, 2488.000000)" sketch:type="MSShapeGroup">
		    <g id="Idea" transform="translate(291.000000, 178.000000)">
			<g id="Idea-icon" transform="translate(75.000000, 0.000000)">
			    <path d="M59.3199642,39.8363906 L56.8792068,39.8363906 C56.6012341,39.8363906 56.2631356,39.5786846 56.1620546,39.2395507 L54.7260074,35.6638802 C54.597042,35.421386 54.655425,34.9909812 54.8471303,34.7950173 L56.5681213,33.0259731 C56.8879207,32.7011562 57.0630696,32.2671722 57.0630696,31.8063437 C57.0630696,31.3437257 56.8879207,30.9106365 56.5707355,30.5867144 L54.5865853,28.542068 C53.9548291,27.9004874 52.8525235,27.897803 52.2137962,28.5456472 L50.4919338,30.3200603 C50.3054568,30.5097605 49.9795577,30.6287706 49.5717482,30.4131208 L46.0922965,28.9465232 C45.8300087,28.8668849 45.5834059,28.5205925 45.5834059,28.2342525 L45.5834059,25.726988 C45.5834059,24.7749076 44.8270413,24 43.8981418,24 L41.0975012,24 C40.1720873,24 39.4192082,24.7749076 39.4192082,25.726988 L39.4192082,28.2342525 C39.4192082,28.513434 39.1621488,28.8668849 38.8371211,28.9688935 L35.356798,30.445334 C35.1293658,30.574187 34.6936718,30.5097605 34.5089376,30.3218499 L32.7818469,28.546542 C32.1483479,27.9004874 31.0425567,27.9004874 30.4090577,28.5483316 L28.4249076,30.5849248 C28.1059796,30.9106365 27.9308306,31.3437257 27.9308306,31.8063437 C27.9308306,32.2671722 28.1059796,32.7011562 28.4231648,33.0241835 L30.1485128,34.7968069 C30.3402181,34.991876 30.4012152,35.4222808 30.2408799,35.7318859 L28.8144179,39.3039772 C28.7351216,39.5724209 28.3926662,39.8363906 28.1216646,39.8363906 L25.6774216,39.8363906 C24.7520077,39.8363906 24,40.6112982 24,41.5624838 L24,44.4410954 C24,45.3913863 24.7520077,46.1662938 25.6774216,46.1662938 L28.1216646,46.1662938 C28.3926662,46.1662938 28.7351216,46.4293687 28.8362026,46.7604493 L30.2713784,50.3343302 C30.4038294,50.5821932 30.344575,51.0054395 30.1485128,51.2049827 L28.4249076,52.9740269 C28.1059796,53.2997386 27.9308306,53.7346175 27.9308306,54.1981303 C27.9308306,54.6616432 28.1077224,55.0947324 28.4231648,55.41597 L30.4108005,57.4606165 C31.0486564,58.1004074 32.1500907,58.0995126 32.7835896,57.4525632 L34.5089376,55.6790449 C34.6910577,55.4920291 35.0160853,55.3739139 35.4230235,55.5904585 L38.899861,57.0552664 C39.1621488,57.1340099 39.4192082,57.486566 39.4192082,57.7666423 L39.4192082,60.273012 C39.4192082,61.2259872 40.1720873,62 41.0975012,62 L43.8981418,62 C44.8270413,62 45.5834059,61.2259872 45.5834059,60.273012 L45.5834059,57.7666423 C45.5834059,57.4803024 45.8300087,57.1340099 46.1567792,57.0320013 L49.6397164,55.5582452 C49.8654059,55.4293922 50.3080709,55.4929239 50.490191,55.6790449 L52.2137962,57.4552476 C52.8455524,58.1039866 53.9565719,58.1048814 54.5900709,57.4552476 L56.5681213,55.4186545 C56.8861779,55.0947324 57.0630696,54.6616432 57.0630696,54.1981303 C57.0630696,53.7346175 56.8879207,53.2997386 56.5698641,52.9758165 L54.8453875,51.2076671 C54.655425,51.0117032 54.597042,50.578614 54.7582487,50.2672193 L56.1847107,46.695128 C56.2631356,46.4239998 56.6012341,46.1662938 56.8792068,46.1662938 L59.3199642,46.1662938 C60.2453781,46.1662938 61,45.3913863 61,44.4410954 L61,41.5624838 C61,40.6112982 60.2453781,39.8363906 59.3199642,39.8363906 L59.3199642,39.8363906 Z M59.6920468,44.4410954 C59.6920468,44.6477971 59.5203834,44.8240752 59.3199642,44.8240752 L56.8792068,44.8240752 C56.0278609,44.8240752 55.172158,45.4790779 54.954311,46.2495114 L53.5810037,49.6891704 C53.1740656,50.4515506 53.3195874,51.5333789 53.9191022,52.1552735 L55.6470644,53.9261073 C55.7420456,54.0227471 55.7559878,54.1372831 55.7559878,54.1972355 C55.7559878,54.2571879 55.7411743,54.3708291 55.6453216,54.4683637 L53.664657,56.5058516 C53.47818,56.6973415 53.3256871,56.6964467 53.1400815,56.5067464 L51.4138621,54.7296489 C51.0504934,54.3565121 50.5189468,54.1426519 49.957773,54.1426519 C49.6153176,54.1426519 49.2868044,54.2249747 49.0759285,54.3484588 L45.722828,55.7676313 C44.9115659,56.0145996 44.2763242,56.8924106 44.2763242,57.7666423 L44.2763242,60.273012 C44.2763242,60.4823981 44.102918,60.6577813 43.8981418,60.6577813 L41.0975012,60.6577813 C40.8927251,60.6577813 40.72629,60.4859773 40.72629,60.273012 L40.72629,57.7666423 C40.72629,56.8933054 40.0866913,56.0145996 39.3329408,55.7908965 L35.98594,54.3815669 C35.7088387,54.2249747 35.3803255,54.1426519 35.0387414,54.1426519 C34.4793104,54.1426519 33.9495066,54.3565121 33.5861379,54.7305437 L31.8616613,56.5013775 C31.7196251,56.6454423 31.4625656,56.6400735 31.3301147,56.5067464 L29.3450931,54.4656792 C29.2518546,54.3708291 29.2379124,54.2571879 29.2379124,54.1972355 C29.2379124,54.1372831 29.2518546,54.0227471 29.3477073,53.9261073 L31.0739267,52.1552735 C31.6734415,51.5387477 31.825063,50.4560247 31.4486234,49.7562813 L30.0666023,46.3130431 C29.8234851,45.4781831 28.969525,44.8240752 28.1216646,44.8240752 L25.6774216,44.8240752 C25.4770024,44.8240752 25.3070818,44.6477971 25.3070818,44.4410954 L25.3070818,41.5624838 C25.3070818,41.3548873 25.4770024,41.1786093 25.6774216,41.1786093 L28.1216646,41.1786093 C28.969525,41.1786093 29.8234851,40.5236066 30.0448176,39.7504886 L31.4163821,36.3108296 C31.8268058,35.5457649 31.6751843,34.4621471 31.0713125,33.8456213 L29.3450931,32.0738927 C29.2753821,32.0032025 29.2379124,31.9074576 29.2379124,31.8054489 C29.2379124,31.7034403 29.2753821,31.6076954 29.3477073,31.5352156 L31.3327289,29.4986225 C31.4730223,29.3563473 31.7231106,29.3581369 31.8590471,29.4977276 L33.5861379,31.2703511 C33.9512494,31.6452775 34.4819246,31.8600325 35.0430984,31.8600325 C35.3829396,31.8600325 35.7097101,31.7777098 35.9197146,31.6542256 L39.2693295,30.2332635 C40.0866913,29.9862952 40.72629,29.1075894 40.72629,28.2342525 L40.72629,25.726988 C40.72629,25.5158123 40.8927251,25.3422187 41.0975012,25.3422187 L43.8981418,25.3422187 C44.102918,25.3422187 44.2763242,25.5184967 44.2763242,25.726988 L44.2763242,28.2342525 C44.2763242,29.109379 44.9115659,29.9880849 45.6592167,30.2099984 L49.009703,31.6220124 C49.739926,32.0336261 50.8239325,31.8743495 51.4156049,31.2694563 L53.1365959,29.4968328 C53.2751466,29.3545577 53.5304632,29.3581369 53.664657,29.4932536 L55.6470644,31.5361104 C55.7167754,31.6076954 55.7559878,31.7034403 55.7559878,31.8054489 C55.7559878,31.9074576 55.7167754,32.0032025 55.646193,32.0756823 L53.9243306,33.8456213 C53.3222015,34.4621471 53.1705801,35.5457649 53.5505052,36.2428238 L54.9316549,39.6851673 C55.1712866,40.5227118 56.0278609,41.1786093 56.8792068,41.1786093 L59.3199642,41.1786093 C59.5203834,41.1786093 59.6920468,41.3548873 59.6920468,41.5624838 L59.6920468,44.4410954 L59.6920468,44.4410954 Z M42.4995643,37.7461087 C39.6788818,37.7461087 37.3836462,40.1030447 37.3836462,43.0004474 C37.3836462,45.8978501 39.6788818,48.2538913 42.4995643,48.2538913 C45.3193754,48.2538913 47.6137397,45.8978501 47.6137397,43.0004474 C47.6137397,40.1030447 45.3193754,37.7461087 42.4995643,37.7461087 L42.4995643,37.7461087 Z M42.4995643,46.9116726 C40.3995196,46.9116726 38.690728,45.1578402 38.690728,43.0004474 C38.690728,40.8430546 40.3995196,39.0883274 42.4995643,39.0883274 C44.5978663,39.0883274 46.3066579,40.8430546 46.3066579,43.0004474 C46.3066579,45.1578402 44.5978663,46.9116726 42.4995643,46.9116726 L42.4995643,46.9116726 Z" id="Fill-185"></path>
			</g>
		    </g>
		</g>
	    </g>
	</g>
    </g>
</svg>