<?xml version="1.0" encoding="UTF-8" standalone="no"?>
<svg width="37px" height="39px" viewBox="0 0 37 39" version="1.1" xmlns="http://www.w3.org/2000/svg" xmlns:xlink="http://www.w3.org/1999/xlink" xmlns:sketch="http://www.bohemiancoding.com/sketch/ns">
    <!-- Generator: Sketch 3.2.2 (9983) - http://www.bohemiancoding.com/sketch -->
    <title>Fill 90</title>
    <desc>Created with Sketch.</desc>
    <defs></defs>
    <g id="Demosite" stroke="none" stroke-width="1" fill="none" fill-rule="evenodd" sketch:type="MSPage">
	<g id="Demosite_home_v1" sketch:type="MSArtboardGroup" transform="translate(-702.000000, -2386.000000)" fill="#FFFFFF">
	    <path d="M714.065848,2408.25556 C718.905248,2408.25556 722.842816,2404.31518 722.842816,2399.47212 C722.842816,2394.63081 718.905248,2390.6913 714.065848,2390.6913 C709.229933,2390.6913 705.294979,2394.63081 705.294979,2399.47212 C705.294979,2404.31518 709.229933,2408.25556 714.065848,2408.25556 L714.065848,2408.25556 Z M714.065848,2391.99953 C718.184653,2391.99953 721.535812,2395.35208 721.535812,2399.47212 C721.535812,2403.59391 718.184653,2406.94734 714.065848,2406.94734 C709.950528,2406.94734 706.601983,2403.59391 706.601983,2399.47212 C706.601983,2395.35208 709.950528,2391.99953 714.065848,2391.99953 L714.065848,2391.99953 Z M723.138199,2412.78813 C720.85617,2408.98643 716.069049,2409.46436 715.936606,2409.48355 L712.047834,2409.48355 C711.884022,2409.48355 708.020518,2409.37889 705.755916,2412.63551 C704.505549,2414.43388 702.663545,2421.33173 702.016142,2424.20198 C701.93685,2424.55433 702.157298,2424.90494 702.510189,2424.98343 C702.558113,2424.99477 702.606908,2425 702.65396,2425 C702.952828,2425 703.222942,2424.79417 703.290906,2424.48979 C703.970549,2421.47912 705.763758,2414.91444 706.828531,2413.38381 C708.678377,2410.72288 711.974641,2410.78829 712.025179,2410.79178 L716.007185,2410.78742 C716.050751,2410.78393 720.186112,2410.36704 722.035087,2413.49109 C722.050771,2413.51638 722.067327,2413.5408 722.085625,2413.56435 C723.220976,2414.99991 725.116132,2421.44162 725.814072,2424.49154 C725.894235,2424.84301 726.24364,2425.06367 726.596531,2424.98343 C726.948551,2424.90319 727.168999,2424.55171 727.087965,2424.20024 C726.539895,2421.80444 724.594201,2414.68942 723.138199,2412.78813 L723.138199,2412.78813 Z M729.505051,2386 C725.874194,2386 722.515193,2387.74692 720.94766,2390.44972 C720.766422,2390.76195 720.871854,2391.16226 721.184663,2391.34367 C721.497473,2391.52682 721.896545,2391.41868 722.077783,2391.10732 C723.416155,2388.79873 726.331645,2387.30823 729.505051,2387.30823 C734.020315,2387.30823 737.692996,2390.2343 737.692996,2393.83105 C737.692996,2397.18709 734.405445,2400.03815 730.209091,2400.32247 C730.11063,2400.32945 730.015654,2400.35736 729.929392,2400.40707 L728.215474,2401.38388 L728.294765,2401.28707 C728.444635,2401.10654 728.486459,2400.85885 728.403682,2400.63906 C728.321777,2400.41928 728.127469,2400.26055 727.895694,2400.22392 C726.957265,2400.07216 726.065017,2399.79395 725.245089,2399.39538 C724.920952,2399.23839 724.529722,2399.3727 724.372011,2399.69714 C724.214299,2400.02245 724.349356,2400.41492 724.674364,2400.57191 C725.284299,2400.86844 725.929088,2401.10654 726.599145,2401.28446 L724.920081,2403.31046 C724.718802,2403.55292 724.718802,2403.90527 724.921824,2404.1486 C725.04991,2404.30123 725.235505,2404.38147 725.423713,2404.38147 C725.533502,2404.38147 725.645033,2404.35356 725.746108,2404.29599 L730.448708,2401.61587 C735.255869,2401.22602 739,2397.83074 739,2393.83105 C739,2389.51303 734.740909,2386 729.505051,2386 L729.505051,2386 Z" id="Fill-90" sketch:type="MSShapeGroup"></path>
	</g>
    </g>
</svg>