<?xml version="1.0" encoding="UTF-8" standalone="no"?>
<svg width="51px" height="28px" viewBox="0 0 51 28" version="1.1" xmlns="http://www.w3.org/2000/svg" xmlns:xlink="http://www.w3.org/1999/xlink" xmlns:sketch="http://www.bohemiancoding.com/sketch/ns">
    <!-- Generator: Sketch 3.2.2 (9983) - http://www.bohemiancoding.com/sketch -->
    <title>Fill 54</title>
    <desc>Created with Sketch.</desc>
    <defs></defs>
    <g id="Demosite" stroke="none" stroke-width="1" fill="none" fill-rule="evenodd" sketch:type="MSPage">
	<g id="Demosite_home_v1" sketch:type="MSArtboardGroup" transform="translate(-986.000000, -2392.000000)" fill="#FFFFFF">
	    <g id="MIDDLE" sketch:type="MSLayerGroup" transform="translate(-17.000000, -303.000000)">
		<g id="Howwework" transform="translate(37.000000, 2488.000000)" sketch:type="MSShapeGroup">
		    <g id="Design">
			<g id="Design-icon" transform="translate(947.000000, 178.000000)">
			    <path d="M61.9971586,40.7059525 C60.8278561,40.7059525 59.7205275,40.9685801 58.7180078,41.4298025 C57.7091085,39.5960493 57.0647617,38.3942728 56.5197555,37.3808829 C55.8243714,36.0807371 55.2939474,35.0924036 54.3789203,33.4832295 C53.9852035,32.790932 53.9122929,31.7784701 54.2048464,31.0731804 C54.3661609,30.6871271 54.6067657,30.4514119 54.9193695,30.3716028 C55.2538466,30.2862256 55.4744009,29.9614212 55.431566,29.6115604 C55.3896424,29.2626276 55.0998231,29 54.7544095,29 L49.7172037,29 C49.3389803,29 49.0336675,29.3118123 49.0336675,29.6960095 C49.0336675,30.0811348 49.3389803,30.3920191 49.7172037,30.3920191 L53.0082024,30.3920191 C52.9854179,30.4374917 52.9653675,30.4829643 52.9453171,30.530293 C52.4850694,31.6401962 52.58441,33.1073843 53.1950357,34.1820231 C53.1986812,34.1866631 53.2005039,34.1913032 53.2041495,34.1968713 L33.7744063,34.1968713 L33.0480352,32.7120509 L36.919584,32.7120509 C37.2968959,32.7120509 37.6031201,32.4011666 37.6031201,32.0160414 C37.6031201,31.6318441 37.2968959,31.3200318 36.919584,31.3200318 L28.5986705,31.3200318 C28.2213585,31.3200318 27.9151343,31.6318441 27.9151343,32.0160414 C27.9151343,32.4011666 28.2213585,32.7120509 28.5986705,32.7120509 L31.5196483,32.7120509 L32.5959899,34.908657 L32.5886989,34.9253613 C32.5750281,34.9559857 32.5568005,34.9847541 32.5485981,35.0181625 L29.8108079,41.2339918 C28.9349702,40.8980512 27.9916903,40.7059525 27.0010186,40.7059525 C22.5890205,40.7059525 19,44.3604667 19,48.8529763 C19,53.3454859 22.5890205,57 27.0010186,57 C31.1724119,57 34.6037635,53.7352512 34.9701389,49.5851783 L38.0506085,49.5851783 C38.2893904,51.6156702 39.9727122,53.1997879 42.0324345,53.1997879 C44.2516485,53.1997879 46.0589181,51.3595386 46.0589181,49.0979716 C46.0589181,48.3704097 45.8556801,47.6966724 45.5275827,47.1027443 L55.9483193,39.2164921 C56.3684662,39.9950948 56.8688147,40.9156834 57.5222752,42.1035397 C55.3951107,43.5688718 53.99614,46.0475938 53.99614,48.8529763 C53.99614,53.3454859 57.5842492,57 61.9971586,57 C66.4100681,57 70,53.3454859 70,48.8529763 C70,44.3604667 66.4100681,40.7059525 61.9971586,40.7059525 L61.9971586,40.7059525 Z M27.0010186,55.6079809 C23.3436445,55.6079809 20.3670723,52.5780194 20.3670723,48.8529763 C20.3670723,45.1279332 23.3436445,42.0979716 27.0010186,42.0979716 C27.7920978,42.0979716 28.5467217,42.2464537 29.2512196,42.5053692 L26.5653782,48.6042689 C26.4715059,48.8195678 26.4906449,49.0692032 26.6164156,49.2668699 C26.7421862,49.4654647 26.9581837,49.5851783 27.190586,49.5851783 L33.5985096,49.5851783 C33.2385139,52.9668567 30.417788,55.6079809 27.0010186,55.6079809 L27.0010186,55.6079809 Z M28.2459658,48.1931592 L30.4815847,43.1122895 C32.1986276,44.1943524 33.4007398,46.0457378 33.6058007,48.1931592 L28.2459658,48.1931592 L28.2459658,48.1931592 Z M38.1071141,48.1931592 L34.972873,48.1931592 C34.7568756,45.481506 33.233957,43.145698 31.0457299,41.834416 L33.2795261,36.7600424 L38.7387015,46.7482434 C38.4415912,47.1769853 38.2255937,47.666048 38.1071141,48.1931592 L38.1071141,48.1931592 Z M42.0324345,51.8077688 C40.5632874,51.8077688 39.3684662,50.5920721 39.3684662,49.0979716 C39.3684662,47.6038711 40.5632874,46.3900305 42.0324345,46.3900305 C43.4988474,46.3900305 44.6918458,47.6038711 44.6918458,49.0979716 C44.6918458,50.5920721 43.4988474,51.8077688 42.0324345,51.8077688 L42.0324345,51.8077688 Z M44.6663271,46.0216094 C43.9581837,45.3933448 43.0431566,44.9980114 42.0324345,44.9980114 C41.1812041,44.9980114 40.3946818,45.2699191 39.7439554,45.7283574 L34.203667,35.5888904 L53.9852035,35.5888904 C54.4536536,36.4324539 54.839168,37.1488798 55.2875677,37.9850192 L44.6663271,46.0216094 L44.6663271,46.0216094 Z M61.9971586,55.6079809 C58.3388731,55.6079809 55.3632124,52.5780194 55.3632124,48.8529763 C55.3632124,46.5682089 56.4860344,44.5479252 58.1948748,43.3248045 C59.136332,45.0258518 60.3457353,47.1871934 61.9652603,50.0575368 C62.0919423,50.2811879 62.3216105,50.4064696 62.5585697,50.4064696 C62.6734037,50.4064696 62.790972,50.3767732 62.8976036,50.3136683 C63.225701,50.1215697 63.3378009,49.6965398 63.1509677,49.3633833 C61.5332654,46.49768 60.3275076,44.3409784 59.3887846,42.6436431 C60.1889776,42.2937823 61.071195,42.0979716 61.9971586,42.0979716 C65.6554442,42.0979716 68.6320163,45.1279332 68.6320163,48.8529763 C68.6320163,52.5780194 65.6554442,55.6079809 61.9971586,55.6079809 L61.9971586,55.6079809 Z" id="Fill-54"></path>
			</g>
		    </g>
		</g>
	    </g>
	</g>
    </g>
</svg>