<!-- Generated by IcoMoon.io -->
<svg version="1.1" xmlns="http://www.w3.org/2000/svg" width="32" height="32" viewBox="0 0 32 32">
<title>info</title>
<path d="M16 32c8.822 0 16-7.176 16-16 0-8.822-7.178-16-16-16s-16 7.179-16 16c0 8.824 7.178 16 16 16zM16 3.2c7.058 0 12.8 5.742 12.8 12.8s-5.742 12.8-12.8 12.8c-7.058 0-12.8-5.742-12.8-12.8s5.742-12.8 12.8-12.8zM17.6 20.8v-6.4c0-0.883-0.715-1.6-1.6-1.6h-3.2v3.2h1.6v4.8h-3.2v3.2h9.6v-3.2h-3.2zM16 11.6c1.105 0 2-0.895 2-2s-0.895-2-2-2c-1.105 0-2 0.895-2 2s0.895 2 2 2z"></path>
</svg>
