<!-- Generated by IcoMoon.io -->
<svg version="1.1" xmlns="http://www.w3.org/2000/svg" width="32" height="32" viewBox="0 0 32 32">
<title>photo</title>
<path fill="#757575" d="M16 12c-2.941 0-5.333 2.392-5.333 5.333 0 2.943 2.392 5.333 5.333 5.333s5.333-2.391 5.333-5.333c0-2.94-2.392-5.333-5.333-5.333zM26.667 8.001h-2.573c-0.891 0-1.724-0.445-2.219-1.187l-1.083-1.627c-0.495-0.741-1.328-1.188-2.219-1.188h-5.147c-0.891 0-1.724 0.447-2.219 1.187l-1.083 1.627c-0.495 0.743-1.328 1.187-2.219 1.187h-2.573c-1.473 0-2.667 1.195-2.667 2.667v14.667c0 1.472 1.193 2.667 2.667 2.667h21.333c1.472 0 2.667-1.195 2.667-2.667v-14.667c0-1.471-1.195-2.665-2.667-2.665zM16 25.333c-4.412 0-8-3.588-8-8 0-4.411 3.588-8 8-8s8 3.589 8 8c0 4.413-3.588 8-8 8z"></path>
</svg>
