<!-- Generated by IcoMoon.io -->
<svg version="1.1" xmlns="http://www.w3.org/2000/svg" width="27" height="32" viewBox="0 0 27 32">
<title>play</title>
<path fill="#ff4a85" d="M2.408 0.67c0.16 0 0.331 0.025 0.511 0.075s0.341 0.125 0.481 0.225l22.123 13.436c0.281 0.16 0.501 0.386 0.661 0.676s0.24 0.606 0.24 0.947c0 0.341-0.080 0.656-0.24 0.947s-0.381 0.516-0.661 0.676l-22.153 13.436c-0.14 0.1-0.301 0.175-0.481 0.225s-0.351 0.075-0.511 0.075c-0.16 0-0.321-0.020-0.481-0.060s-0.311-0.1-0.451-0.18c-0.321-0.18-0.566-0.421-0.736-0.721s-0.256-0.621-0.256-0.962l0.030-26.872c0-0.341 0.085-0.661 0.256-0.962s0.416-0.541 0.736-0.721c0.14-0.080 0.291-0.14 0.451-0.18s0.321-0.060 0.481-0.060z"></path>
</svg>
