<!-- Generated by IcoMoon.io -->
<svg version="1.1" xmlns="http://www.w3.org/2000/svg" width="32" height="32" viewBox="0 0 32 32">
<title>question</title>
<path fill="#757575" d="M16 2.667c-7.352 0-13.333 5.983-13.333 13.333 0 7.353 5.981 13.333 13.333 13.333s13.333-5.98 13.333-13.333c0-7.351-5.981-13.333-13.333-13.333zM16 24.333c-0.92 0-1.667-0.745-1.667-1.667 0-0.92 0.747-1.667 1.667-1.667s1.667 0.747 1.667 1.667c0 0.921-0.747 1.667-1.667 1.667zM17.333 18.5v1.5h-2.667v-4h1.333c1.472 0 2.667-1.196 2.667-2.667 0-1.472-1.195-2.667-2.667-2.667s-2.667 1.195-2.667 2.667h-2.667c0-2.94 2.393-5.333 5.333-5.333s5.333 2.393 5.333 5.333c0 2.481-1.703 4.572-4 5.167z"></path>
</svg>
