<!-- Generated by IcoMoon.io -->
<svg version="1.1" xmlns="http://www.w3.org/2000/svg" width="27" height="32" viewBox="0 0 27 32">
<title>required</title>
<path d="M26.382 19.599l-6.217-3.587 6.217-3.592c0.272-0.155 0.366-0.503 0.208-0.775l-2.847-4.932c-0.076-0.132-0.2-0.228-0.346-0.265-0.146-0.040-0.302-0.019-0.432 0.056l-6.217 3.589v-7.177c0-0.315-0.256-0.569-0.569-0.569h-5.694c-0.314 0-0.569 0.254-0.569 0.569v7.174l-6.215-3.587c-0.131-0.075-0.287-0.096-0.432-0.056-0.146 0.038-0.27 0.133-0.346 0.265l-2.847 4.932c-0.157 0.272-0.064 0.621 0.208 0.775l6.215 3.592-6.215 3.587c-0.272 0.159-0.366 0.506-0.208 0.779l2.847 4.932c0.076 0.129 0.2 0.224 0.346 0.263 0.145 0.038 0.301 0.019 0.432-0.057l6.215-3.587v7.179c0 0.314 0.255 0.569 0.569 0.569h5.694c0.313 0 0.569-0.255 0.569-0.569v-7.179l6.217 3.587c0.13 0.076 0.286 0.095 0.432 0.057 0.146-0.039 0.27-0.134 0.346-0.263l2.847-4.932c0.075-0.132 0.096-0.287 0.056-0.433-0.039-0.145-0.134-0.271-0.264-0.346z"></path>
</svg>
