<!-- Generated by IcoMoon.io -->
<svg version="1.1" xmlns="http://www.w3.org/2000/svg" width="29" height="32" viewBox="0 0 29 32">
<title>rewind</title>
<path fill="#8a9093" d="M2.157 20.128c-0.843-1.76-1.315-3.731-1.315-5.812 0-7.441 6.032-13.474 13.474-13.474s13.474 6.032 13.474 13.474c0 7.441-6.032 13.474-13.474 13.474v-5.053c4.651 0 8.421-3.77 8.421-8.421s-3.77-8.421-8.421-8.421c-4.651 0-8.421 3.77-8.421 8.421 0 1.28 0.282 2.509 0.819 3.63l-4.557 2.182z"></path>
<path fill="#8a9093" d="M18.62 17.629c-0.067 0-0.137 0.010-0.212 0.031s-0.141 0.052-0.2 0.094l-9.177 5.574c-0.116 0.067-0.208 0.16-0.274 0.281s-0.1 0.251-0.1 0.393c0 0.141 0.033 0.272 0.1 0.393s0.158 0.214 0.274 0.281l9.19 5.574c0.058 0.042 0.125 0.073 0.2 0.094s0.145 0.031 0.212 0.031c0.067 0 0.133-0.008 0.2-0.025s0.129-0.042 0.187-0.075c0.133-0.075 0.235-0.175 0.305-0.299s0.106-0.258 0.106-0.399l-0.012-11.147c0-0.141-0.035-0.274-0.106-0.399s-0.172-0.224-0.305-0.299c-0.058-0.033-0.121-0.058-0.187-0.075s-0.133-0.025-0.2-0.025z"></path>
</svg>
