<!-- Generated by IcoMoon.io -->
<svg version="1.1" xmlns="http://www.w3.org/2000/svg" width="32" height="32" viewBox="0 0 32 32">
<title>send</title>
<path fill="#757575" d="M28 14.667h-19.076c-0.468 0-0.901-0.247-1.143-0.648l-4.924-8.207c-0.289-0.48-0.245-1.092 0.108-1.525 0.352-0.435 0.941-0.603 1.471-0.419l24 8.208c0.615 0.212 0.987 0.839 0.879 1.479-0.108 0.643-0.664 1.112-1.315 1.112zM8.924 17.333h19.076c0.652 0 1.208 0.468 1.316 1.112 0.108 0.641-0.264 1.268-0.879 1.481l-24 8.205c-0.531 0.183-1.119 0.016-1.472-0.419s-0.397-1.047-0.109-1.525l4.925-8.209c0.24-0.397 0.673-0.645 1.143-0.645z"></path>
</svg>
