<!-- Generated by IcoMoon.io -->
<svg version="1.1" xmlns="http://www.w3.org/2000/svg" width="32" height="32" viewBox="0 0 32 32">
<title>settings</title>
<path fill="#757575" d="M19.333 7.999c0 0.46 0.063 0.903 0.161 1.333h-16.828v-2.667h16.828c-0.099 0.431-0.161 0.873-0.161 1.333zM19.333 23.999c0 0.46 0.063 0.903 0.161 1.333h-16.828v-2.667h16.828c-0.099 0.431-0.161 0.873-0.161 1.333zM6 15.999c0 0.46 0.063 0.903 0.161 1.333h-3.495v-2.667h3.495c-0.099 0.431-0.161 0.873-0.161 1.333zM17.839 14.665h11.495v2.667h-11.495c0.099-0.431 0.161-0.873 0.161-1.333s-0.063-0.903-0.161-1.333zM25.333 11.999c-2.209 0-4-1.791-4-4s1.791-4 4-4c2.209 0 4 1.791 4 4s-1.791 4-4 4zM12 19.999c-2.209 0-4-1.791-4-4s1.791-4 4-4c2.209 0 4 1.791 4 4s-1.791 4-4 4zM25.333 27.999c-2.209 0-4-1.791-4-4s1.791-4 4-4c2.209 0 4 1.791 4 4s-1.791 4-4 4z"></path>
</svg>
