<!-- Generated by IcoMoon.io -->
<svg version="1.1" xmlns="http://www.w3.org/2000/svg" width="32" height="32" viewBox="0 0 32 32">
<title>share</title>
<path fill="#757575" d="M24 18.667c-1.6 0-3.021 0.721-4 1.841l-6.789-3.393c0.079-0.359 0.123-0.731 0.123-1.115s-0.044-0.755-0.123-1.116l6.789-3.393c0.979 1.12 2.4 1.843 4 1.843 2.94 0 5.333-2.393 5.333-5.333 0-2.941-2.393-5.333-5.333-5.333s-5.333 2.392-5.333 5.333c0 0.383 0.044 0.755 0.123 1.115l-6.789 3.393c-0.979-1.119-2.4-1.841-4-1.841-2.94 0-5.333 2.392-5.333 5.333 0 2.94 2.393 5.333 5.333 5.333 1.6 0 3.021-0.724 4-1.844l6.789 3.395c-0.079 0.361-0.123 0.733-0.123 1.116 0 2.94 2.393 5.333 5.333 5.333s5.333-2.393 5.333-5.333c0-2.94-2.393-5.333-5.333-5.333z"></path>
</svg>
