<!-- Generated by IcoMoon.io -->
<svg version="1.1" xmlns="http://www.w3.org/2000/svg" width="32" height="32" viewBox="0 0 32 32">
<title>star</title>
<path fill="#757575" d="M29.232 11.491c-0.205-0.497-0.693-0.823-1.232-0.823h-7.176l-3.632-7.263c-0.452-0.903-1.933-0.903-2.385 0l-3.631 7.263h-7.176c-0.539 0-1.027 0.325-1.232 0.823s-0.092 1.073 0.289 1.453l6.112 6.112-2.451 8.58c-0.153 0.537 0.044 1.113 0.495 1.443 0.453 0.331 1.063 0.343 1.525 0.032l7.261-4.84 7.26 4.84c0.224 0.149 0.481 0.224 0.74 0.224 0.276 0 0.552-0.085 0.787-0.256 0.451-0.329 0.648-0.905 0.495-1.443l-2.451-8.58 6.112-6.112c0.381-0.38 0.495-0.956 0.289-1.453z"></path>
</svg>
