<!-- Generated by IcoMoon.io -->
<svg version="1.1" xmlns="http://www.w3.org/2000/svg" width="32" height="32" viewBox="0 0 32 32">
<title>sync</title>
<path fill="#757575" d="M10.667 10.668c-2.94 0-5.333 2.393-5.333 5.333h-2.667c0-4.412 3.588-8 8-8h10.115l-3.057-3.057 1.885-1.885 5.333 5.333c0.521 0.521 0.521 1.364 0 1.885l-5.333 5.333-1.885-1.885 3.057-3.057h-10.115zM26.667 16.001h2.667c0 4.412-3.588 8-8 8h-10.115l3.057 3.057-1.885 1.885-5.333-5.333c-0.521-0.521-0.521-1.364 0-1.885l5.333-5.333 1.885 1.885-3.057 3.057h10.115c2.94 0 5.333-2.393 5.333-5.333z"></path>
</svg>
