<!-- Generated by IcoMoon.io -->
<svg version="1.1" xmlns="http://www.w3.org/2000/svg" width="32" height="32" viewBox="0 0 32 32">
<title>tag</title>
<path fill="#757575" d="M28.943 17.724l-14.667-14.667c-0.251-0.251-0.588-0.391-0.943-0.391h-9.333c-0.737 0-1.333 0.596-1.333 1.333v9.333c0 0.355 0.14 0.692 0.391 0.943l14.667 14.667c0.26 0.26 0.601 0.391 0.943 0.391s0.683-0.131 0.943-0.391l9.333-9.333c0.521-0.521 0.521-1.364 0-1.885zM9.333 12c-1.475 0-2.667-1.195-2.667-2.667 0-1.475 1.192-2.667 2.667-2.667 1.472 0 2.667 1.192 2.667 2.667 0 1.472-1.195 2.667-2.667 2.667z"></path>
</svg>
