<!-- Generated by IcoMoon.io -->
<svg version="1.1" xmlns="http://www.w3.org/2000/svg" width="32" height="32" viewBox="0 0 32 32">
<title>unlocked</title>
<path fill="#757575" d="M22.667 14.667h-10.667v-5.333c0-2.205 1.795-4 4-4s4 1.795 4 4v1.333h2.667v-1.333c0-3.676-2.991-6.667-6.667-6.667s-6.667 2.991-6.667 6.667v5.333c-1.471 0-2.667 1.195-2.667 2.667v9.333c0 1.471 1.196 2.667 2.667 2.667h13.333c1.472 0 2.667-1.196 2.667-2.667v-9.333c0-1.472-1.195-2.667-2.667-2.667zM16 24c-1.104 0-2-0.896-2-2s0.896-2 2-2c1.104 0 2 0.896 2 2s-0.896 2-2 2z"></path>
</svg>
