<!-- Generated by IcoMoon.io -->
<svg version="1.1" xmlns="http://www.w3.org/2000/svg" width="32" height="32" viewBox="0 0 32 32">
<title>zoom</title>
<path fill="#757575" d="M28.552 24.781l-6.036-6.036c0.96-1.624 1.484-3.476 1.484-5.412 0-2.849-1.111-5.528-3.125-7.541-2.013-2.016-4.692-3.125-7.541-3.125s-5.528 1.109-7.541 3.125c-2.016 2.013-3.125 4.692-3.125 7.541s1.109 5.528 3.125 7.541c2.013 2.016 4.692 3.125 7.541 3.125 1.936 0 3.788-0.524 5.412-1.484l6.036 6.035c0.503 0.505 1.173 0.783 1.885 0.783s1.383-0.277 1.885-0.781c0.504-0.504 0.781-1.172 0.781-1.885 0-0.712-0.277-1.381-0.781-1.885zM18.667 14.667h-4v4h-2.667v-4h-4v-2.667h4v-4h2.667v4h4v2.667z"></path>
</svg>
