<?xml version="1.0" encoding="utf-8"?>
<!-- Generator: Adobe Illustrator 16.2.1, SVG Export Plug-In . SVG Version: 6.00 Build 0)  -->
<!DOCTYPE svg PUBLIC "-//W3C//DTD SVG 1.1//EN" "http://www.w3.org/Graphics/SVG/1.1/DTD/svg11.dtd">
<svg version="1.1" id="Layer_1" xmlns="http://www.w3.org/2000/svg" xmlns:xlink="http://www.w3.org/1999/xlink" x="0px" y="0px"
	 width="22.081px" height="18px" viewBox="1.562 2.181 22.081 18" enable-background="new 1.562 2.181 22.081 18"
	 xml:space="preserve">
<g>
	<g>
		<polygon fill="#FFFFFF" points="23.643,14.743 18.94,10.042 18.94,12.981 14.238,12.981 14.238,16.507 18.94,16.507 18.94,19.446 
					"/>
	</g>
	<path fill="#FFFFFF" d="M15.27,17.373h-0.974h-0.948v-2.517c-0.045-0.01-0.105-0.028-0.144-0.034h0.001
		c-0.461-0.075-0.47-1.341-0.47-1.341s1.352-1.339,1.648-3.142c0.793,0,1.283-1.915,0.489-2.589
		c0.034-0.708,1.021-5.569-3.977-5.569c-4.996,0-4.009,4.861-3.977,5.569c-0.793,0.675-0.304,2.589,0.491,2.589
		c0.294,1.801,1.648,3.142,1.648,3.142s-0.011,1.266-0.471,1.341c-1.484,0.234-7.024,2.678-7.024,5.358h16.494v-2.808H15.27z"/>
</g>
</svg>
