<?xml version="1.0" encoding="utf-8"?>
<!-- Generator: Adobe Illustrator 16.2.1, SVG Export Plug-In . SVG Version: 6.00 Build 0)  -->
<!DOCTYPE svg PUBLIC "-//W3C//DTD SVG 1.1//EN" "http://www.w3.org/Graphics/SVG/1.1/DTD/svg11.dtd">
<svg version="1.1" id="Layer_1" xmlns="http://www.w3.org/2000/svg" xmlns:xlink="http://www.w3.org/1999/xlink" x="0px" y="0px"
	 width="19.998px" height="20px" viewBox="-556.159 73.463 19.998 20" enable-background="new -556.159 73.463 19.998 20"
	 xml:space="preserve">
<path fill="#FFFFFF" d="M-554.78,74.92c-1.838,1.838-1.838,4.847,0,6.686l2.981,2.98c-0.014-0.879,0.145-1.76,0.479-2.586
	l-1.927-1.927c-0.998-0.997-0.998-2.622,0-3.621l0.08-0.078c0.998-0.998,2.621-0.998,3.619,0l4.26,4.26
	c0.998,0.998,0.998,2.622,0,3.62l-0.079,0.08c-0.156,0.156-0.329,0.285-0.51,0.392l1.559,1.558c0.168-0.127,0.33-0.266,0.483-0.418
	l0.078-0.078c1.839-1.839,1.839-4.847,0-6.686l-4.26-4.26c-1.839-1.839-4.846-1.839-6.686,0L-554.78,74.92L-554.78,74.92z
	 M-548.486,81.061l-0.078,0.078c-1.838,1.839-1.838,4.847,0,6.686l4.259,4.26c1.839,1.838,4.847,1.838,6.686,0l0.078-0.078
	c1.839-1.84,1.839-4.848,0-6.686l-2.98-2.98c0.014,0.877-0.145,1.758-0.479,2.585l1.927,1.927c0.999,0.998,0.999,2.623,0,3.621
	l-0.079,0.078c-0.998,0.998-2.622,0.998-3.62,0l-4.26-4.26c-0.998-0.998-0.998-2.623,0-3.621l0.079-0.078
	c0.156-0.156,0.329-0.285,0.51-0.393l-1.559-1.559c-0.168,0.127-0.331,0.266-0.483,0.418L-548.486,81.061z"/>
</svg>
