<?xml version="1.0" encoding="utf-8"?>
<!-- Generator: Adobe Illustrator 16.2.1, SVG Export Plug-In . SVG Version: 6.00 Build 0)  -->
<!DOCTYPE svg PUBLIC "-//W3C//DTD SVG 1.1//EN" "http://www.w3.org/Graphics/SVG/1.1/DTD/svg11.dtd">
<svg version="1.1" id="Layer_1" xmlns="http://www.w3.org/2000/svg" xmlns:xlink="http://www.w3.org/1999/xlink" x="0px" y="0px"
	 width="19.998px" height="20px" viewBox="-314.5 15 19.998 20" enable-background="new -314.5 15 19.998 20" xml:space="preserve">
<path fill="#FFFFFF" d="M-295.121,32.018l-4.737-4.028c-0.489-0.44-1.014-0.644-1.437-0.624c1.117-1.309,1.793-3.009,1.793-4.865
	c0-4.143-3.357-7.5-7.5-7.5s-7.5,3.357-7.5,7.5s3.357,7.499,7.5,7.499c1.857,0,3.557-0.675,4.866-1.793
	c-0.019,0.423,0.183,0.947,0.624,1.437l4.028,4.737c0.689,0.767,1.816,0.831,2.504,0.145c0.688-0.688,0.624-1.814-0.144-2.504
	L-295.121,32.018z M-307,27.498c-2.762,0-5-2.237-5-4.999s2.238-5,5-5s5,2.238,5,5S-304.238,27.498-307,27.498z"/>
</svg>
