<svg xmlns="http://www.w3.org/2000/svg" width="100" height="50"><path fill="#fff" d="M29.781 36.683c-.516 0-1.032-.198-1.423-.595l-9.563-9.683c-.77-.779-.77-2.032 0-2.811l9.563-9.683c.776-.787 2.042-.794 2.828-.018s.794 2.042.018 2.828l-8.175 8.278 8.175 8.277c.776.786.769 2.052-.018 2.828-.389.387-.897.579-1.405.579z"/><path fill="#fff" d="M70.219 13.317c.516 0 1.032.198 1.423.595l9.563 9.683c.77.779.77 2.032 0 2.811l-9.563 9.683c-.776.787-2.042.794-2.828.018s-.794-2.042-.018-2.828l8.175-8.278-8.175-8.277c-.776-.786-.769-2.052.018-2.828.389-.387.897-.579 1.405-.579z"/></svg>