<svg xmlns="http://www.w3.org/2000/svg" width="132.32" height="28.17" viewBox="0 0 132.32 28.17"><g fill-rule="evenodd" clip-rule="evenodd" fill="#333"><path d="M8.05 4.26l-5.33 23.91h5.65l.32-1.5c1.7.59 3.32 1.12 4.82 1.12 5.81 0 10.37-8.3 10.37-17.82 0-5.2-2.02-9.97-10.81-9.97-6.6 0-13.07 4.69-13.07 9.6 0 2.66 1.18 3.58 3.43 3.58-.04-.33-.55-.63-.55-2.51 0-5.61 4.27-8.97 10.67-8.97 4.54 0 5.45 2.62 5.45 7.24 0 7.08-2.88 15.97-7.59 15.97-.75 0-1.5-.22-2.25-.74l4.74-20.69-5.85.78zM36 12.89c-.04 2.82-2.78 5.88-6.66 5.92.89-3.65 2.83-8.02 5.19-8.02 1.26 0 1.47 1.35 1.47 2.17v-.07zm-7.12 9.06c0-.45.04-1.01.12-1.61 4.01-.45 8.88-3.07 8.88-7.64 0-2.58-1.44-3.79-4.74-3.79-7.19 0-9.14 8.25-9.14 13.01 0 3.22 1.88 5.94 5.43 5.94 5.43 0 8.78-3.77 10.89-7.63h-1.67c-1.21 2.77-4.25 4.94-6.32 4.94-1.64 0-3.45-.75-3.45-3.22zM62.81 14.58c.03-.31.07-.58.07-.89 0-2.58-2.01-4.73-3.84-4.73-1.7 0-3.66 1.15-5.29 2.44-.82-1.44-2.3-2.44-3.67-2.44-1.59 0-3.29.89-4.77 1.96l.41-1.96h-5.33l-3.92 18.81h5.33l3.18-15.23c.74-.53 1.37-.8 2.25-.8 1 0 1.71.88 1.71 2.26 0 .31-.04.65-.11 1l-2.67 12.77h5.37l2.74-13.19c.03-.27.07-.54.07-.81 0-.46-.07-.88-.19-1.34.71-.46 1.34-.69 2.15-.69 1 0 1.7.88 1.7 2.26 0 .31-.03.65-.11 1l-1.4 6.9c-.42.73-.49 1.35-.49 1.96 0 2.72 1.55 3.91 4.17 3.91 2.82 0 6.15-4.72 7.85-6.79h-1.74c-.85 1.65-2.41 3.92-3.89 3.92-1.18 0-1.51-.7-1.51-1.58 0-.46.07-.96.18-1.42l1.75-7.32zM73.48 24.01c-1.52 0-2.6-.59-2.6-2.79 0-2.94 1.55-10.43 5.19-10.43.91 0 1.27.7 1.37 1.91-.88.37-1.44 1.5-1.44 2.57 0 .79.43 1.52 1.37 1.52-.39 3.63-1.52 7.22-3.89 7.22zm2.44-15.1c-5.34 0-9.92 3.61-9.92 12.64 0 4.43 1.69 6.14 5.65 6.14 3.89 0 7.51-3.76 8.13-11.14 2.13-.58 4.06-1.8 5.2-3.23l-.14-.77c-1.37.55-2.15 1.8-3.89 1.8-.52 0-.85-.11-1.07-.33-.07-2.68-.85-5.11-3.96-5.11zM85.78 20.69c0-1.11-.33-1.77-1.22-2.06.81-1.83 1.43-4.18 2.54-5.98.26 4.54 1.9 6.47 1.9 8.73 0 2.82-1.78 4.38-3.02 4.38-1.94 0-3.1-.97-3.1-3.14.43.21.87.32 1.31.32.44.09 1.59-.86 1.59-2.25zm-.03-10.68c-.64 2.79-1.49 6.05-2.83 8.44-1.49.11-2.82 1.8-2.82 4.73 0 3.47 2.08 4.52 6.56 4.52 3.84 0 5.75-1.21 6.62-3.13 1.41-1.24 2.89-2.53 3.93-3.33l-.96-1.25c-.45.51-1.37 1.47-2.41 2.38.04-.25.04-.51.04-.77.42-4.29-2.1-6.12-2.1-12.18v-.51l-6.03 1.1zM99 4.87c0 1.62 1.3 2.92 2.92 2.92 1.63 0 2.96-1.3 2.96-2.92 0-1.63-1.33-2.96-2.96-2.96-1.62 0-2.92 1.33-2.92 2.96zm-.39 4.86l-2.41 12.47c-.13.7-.2 1.32-.2 1.87 0 2.46 1.61 3.53 4.18 3.53 2.81 0 6.99-4.41 8.69-6.1h-1.26c-1.48 1.18-3.4 3.23-4.88 3.23s-1.85-.59-1.85-1.39c0-.33.07-.74.15-1.14l2.66-12.47h-5.08zM109.86 4.67l-1.11 5.24h-1.22l-.29.88h1.22c-.63 3.25-2.56 11.26-2.56 13.26 0 2.48 1.74 3.55 4.59 3.55 2.89 0 7.07-4.46 8.77-6.2h-1.26c-1.48 1.21-3.4 3.33-4.88 3.33s-1.85-.57-1.85-1.44c0-.19-.04-.56 2.51-12.5h2.22l.3-.88h-2.22c.7-3.42 1.26-6 1.26-6l-5.48.76zM128 12.89c-.04 2.82-2.78 5.88-6.66 5.92.89-3.65 2.83-8.02 5.19-8.02 1.26 0 1.47 1.35 1.47 2.17v-.07zm-7.12 9.06c0-.45.04-1.01.12-1.61 4.01-.45 8.88-3.07 8.88-7.64 0-2.58-1.44-3.79-4.74-3.79-7.19 0-9.14 8.25-9.14 13.01 0 3.22 1.88 5.94 5.43 5.94 5.43 0 8.78-3.77 10.89-7.63h-1.67c-1.21 2.77-4.25 4.94-6.32 4.94-1.64 0-3.45-.75-3.45-3.22z"/></g></svg>
