<?xml version="1.0" standalone="no"?>
<!DOCTYPE svg PUBLIC "-//W3C//DTD SVG 1.1//EN" "http://www.w3.org/Graphics/SVG/1.1/DTD/svg11.dtd" >
<svg xmlns="http://www.w3.org/2000/svg">
<metadata>Generated by IcoMoon</metadata>
<defs>
<font id="icomoon-frontend" horiz-adv-x="1024">
<font-face units-per-em="1024" ascent="960" descent="-64" />
<missing-glyph horiz-adv-x="1024" />
<glyph unicode="&#x20;" d="" horiz-adv-x="512" />
<glyph unicode="&#xe600;" d="M1253.333-64c-5.333 0-10.667 0-16 5.333l-1226.667 970.667c-10.667 10.667-16 26.667-5.333 37.333s26.667 16 37.333 5.333l1210.667-960 1210.667 960c10.667 10.667 26.667 5.333 37.333-5.333s5.333-26.667-5.333-37.333l-1226.667-970.667c-5.333-5.333-10.667-5.333-16-5.333z" horiz-adv-x="2507" />
<glyph unicode="&#xe601;" d="M1105.702-64c-49.021 0-98.043 21.787-136.17 54.468l-915.064 642.723c-76.255 76.255-76.255 196.085 0 266.894v0c76.255 76.255 196.085 76.255 272.34 0l778.894-501.106 773.447 501.106c76.255 76.255 196.085 70.809 272.34 0v0c76.255-76.255 76.255-196.085 0-272.34l-915.064-637.277c-38.128-38.128-81.702-54.468-130.723-54.468z" horiz-adv-x="2206" />
<glyph unicode="&#xe602;" d="M407.421-64c-2.179 0-6.536 2.179-8.715 4.357l-396.528 501.106c-2.179 4.357-2.179 8.715 0 13.072l396.528 501.106c4.357 4.357 10.894 6.536 15.251 2.179s6.536-10.894 2.179-15.251l-392.17-494.57 392.17-494.57c4.357-4.357 2.179-10.894-2.179-15.251 0-2.179-4.357-2.179-6.536-2.179z" horiz-adv-x="418" />
<glyph unicode="&#xe603;" d="M0 449.264c0-22.756 10.114-45.511 25.284-63.21l295.822-424.77c35.398-35.398 91.022-35.398 123.891 0v0c35.398 35.398 35.398 91.022 0 126.42l-230.084 361.56 232.612 359.032c35.398 35.398 32.869 91.022 0 126.42v0c-35.398 35.398-91.022 35.398-126.42 0l-295.822-424.77c-17.699-17.699-25.284-37.926-25.284-60.681z" horiz-adv-x="475" />
<glyph unicode="&#xe604;" d="M10.894-64c-2.179 0-4.357 0-6.536 2.179-4.357 4.357-6.536 10.894-2.179 15.251l392.17 494.57-392.17 494.57c-4.357 4.357-2.179 10.894 2.179 15.251s10.894 2.179 15.251-2.179l396.528-501.106c2.179-4.357 2.179-8.715 0-13.072l-396.528-501.106c-2.179-2.179-6.536-4.357-8.715-4.357z" horiz-adv-x="418" />
<glyph unicode="&#xe605;" d="M475.338 446.736c0 22.756-10.114 45.511-25.284 63.21l-298.351 424.77c-35.398 32.869-91.022 35.398-123.891 0v0c-35.398-35.398-35.398-91.022 0-126.42l232.612-361.56-232.612-359.032c-35.398-35.398-32.869-91.022 0-126.42v0c35.398-35.398 91.022-35.398 126.42 0l295.822 424.77c17.699 17.699 25.284 37.926 25.284 60.681z" horiz-adv-x="475" />
<glyph unicode="&#xe606;" d="M2480-64c-5.333 0-10.667 0-16 5.333l-1210.667 960-1210.667-960c-10.667-10.667-26.667-5.333-37.333 5.333s-5.333 26.667 5.333 37.333l1226.667 970.667c10.667 5.333 21.333 5.333 32 0l1226.667-970.667c10.667-10.667 16-26.667 5.333-37.333-5.333-10.667-16-10.667-21.333-10.667z" horiz-adv-x="2507" />
<glyph unicode="&#xe607;" d="M1105.702 960c-49.021 0-98.043-21.787-136.17-54.468l-915.064-642.723c-76.255-76.255-76.255-196.085 0-266.894v0c76.255-76.255 196.085-76.255 272.34 0l778.894 501.106 773.447-501.106c76.255-76.255 196.085-70.809 272.34 0v0c76.255 76.255 76.255 196.085 0 272.34l-915.064 637.277c-38.128 38.128-81.702 54.468-130.723 54.468z" horiz-adv-x="2206" />
<glyph unicode="&#xe608;" d="M684.841 457.783l286.981 286.981c45.656 45.656 32.611 130.446-9.783 172.841-45.656 45.656-130.446 55.439-172.841 9.783l-286.981-286.981-267.414 267.414c-45.656 45.656-130.446 32.611-172.841-9.783-45.656-45.656-55.439-130.446-9.783-172.841l264.153-264.153-286.981-286.981c-45.656-45.656-32.611-130.446 9.783-172.841 45.656-45.656 130.446-55.439 172.841-9.783l286.981 286.981 309.809-309.809c45.656-45.656 130.446-32.611 172.841 9.783 45.656 45.656 55.439 130.446 9.783 172.841l-306.548 306.548z" />
<glyph unicode="&#xe609;" d="M549.926-64c-24.381 0-48.762 10.836-67.725 27.090l-455.111 319.661c-37.926 37.926-37.926 97.524 0 132.741v0c37.926 37.926 97.524 37.926 135.45 0l387.386-249.228 384.677 249.228c37.926 37.926 97.524 35.217 135.45 0v0c37.926-37.926 37.926-97.524 0-135.45l-455.111-316.952c-18.963-18.963-40.635-27.090-65.016-27.090zM549.926 450.709c-24.381 0-48.762 10.836-67.725 27.090l-455.111 319.661c-37.926 37.926-37.926 97.524 0 132.741v0c37.926 37.926 97.524 37.926 135.45 0l387.386-249.228 384.677 249.228c37.926 37.926 97.524 35.217 135.45 0v0c37.926-37.926 37.926-97.524 0-135.45l-455.111-316.952c-18.963-18.963-40.635-27.090-65.016-27.090z" horiz-adv-x="1097" />
<glyph unicode="&#xe60a;" d="M512 539.429v420.571h-299.886v-420.571h-212.114l347.429-457.143 347.429 457.143zM10.971-9.143h669.257v-54.857h-669.257v54.857z" horiz-adv-x="695" />
<glyph unicode="&#xe60b;" d="M-51.98 39.959h1039.594v-103.959h-1039.594v103.959zM275.492 331.046l-46.782-233.909 228.711 72.772zM708.25 839.514l188.15-163.848-416.448-478.214-188.15 163.848 416.448 478.214zM982.416 772.873c0 0 0 5.198 0 0v0c25.99 36.386 20.792 77.97-5.198 103.959l-77.97 67.574c-31.188 25.99-72.772 20.792-98.761 0l-62.376-72.772 187.127-166.335 57.178 67.574z" horiz-adv-x="1040" />
<glyph unicode="&#xe60c;" d="M588.8 550.4v320c0 48.64-53.76 89.6-102.4 89.6s-102.4-40.96-102.4-89.6v-320h-294.4c-48.64 0-89.6-53.76-89.6-102.4s40.96-102.4 89.6-102.4h294.4v-320c0-48.64 53.76-89.6 102.4-89.6s102.4 40.96 102.4 89.6v320h345.6c48.64 0 89.6 53.76 89.6 102.4s-40.96 102.4-89.6 102.4h-345.6z" />
<glyph unicode="&#xe60d;" d="M512 960c-283.057 0-512-228.943-512-512s228.943-512 512-512 512 228.943 512 512c0 283.057-228.943 512-512 512zM647.285 450.081h-89.496c0-141.528 0-316.358 0-316.358h-131.122c0 0 0 172.748 0 316.358h-62.439v112.39h62.439v72.846c0 52.033 24.976 133.203 133.203 133.203h97.821v-108.228c0 0-58.276 0-70.764 0s-27.057-6.244-27.057-31.22v-66.602h99.902l-12.488-112.39z" />
<glyph unicode="&#xe60e;" d="M512 960c-283.057 0-512-228.943-512-512s228.943-512 512-512c283.057 0 512 228.943 512 512s-228.943 512-512 512zM797.138 198.244c0-22.894-18.732-41.626-41.626-41.626h-487.024c-22.894 0-41.626 18.732-41.626 41.626v493.268c0 22.894 18.732 41.626 41.626 41.626h487.024c22.894 0 41.626-18.732 41.626-41.626v-493.268zM611.902 516.683c-45.789 0-66.602-24.976-77.008-43.707v0 0c0 0 0 0 0 0v37.463h-85.333c2.081-24.976 0-260.163 0-260.163h85.333v145.691c0 8.325 0 14.569 2.081 20.813 6.244 14.569 20.813 31.22 43.707 31.22 31.22 0 43.707-22.894 43.707-58.276v-139.447h87.415v149.854c0 79.089-43.707 116.553-99.902 116.553zM355.902 635.317c-29.138 0-47.87-18.732-47.87-45.789 0-24.976 18.732-45.789 47.87-45.789v0c29.138 0 47.87 20.813 47.87 45.789 0 27.057-16.65 45.789-47.87 45.789zM312.195 510.439h87.415v-260.163h-87.415v260.163z" />
<glyph unicode="&#xe60f;" d="M512 960c-283.057 0-512-228.943-512-512s228.943-512 512-512c283.057 0 512 228.943 512 512s-228.943 512-512 512zM797.138 281.496c0-22.894-18.732-41.626-41.626-41.626h-487.024c-22.894 0-41.626 18.732-41.626 41.626v326.764c0 22.894 18.732 41.626 41.626 41.626h487.024c22.894 0 41.626-18.732 41.626-41.626v-326.764zM501.593 377.236c-4.163 0-10.407 2.081-14.569 4.163l-276.813 243.512c-8.325 8.325-10.407 20.813-2.081 29.138s20.813 10.407 29.138 2.081l278.894-241.431c8.325-8.325 10.407-20.813 2.081-29.138-4.163-4.163-10.407-8.325-16.65-8.325zM505.756 377.236c-6.244 0-12.488 2.081-16.65 8.325-6.244 8.325-6.244 22.894 4.163 29.138l276.813 222.699c8.325 6.244 22.894 6.244 29.138-4.163 6.244-8.325 6.244-22.894-4.163-29.138l-274.732-222.699c-4.163-2.081-10.407-4.163-14.569-4.163z" />
<glyph unicode="&#xe610;" d="M512 960c-283.057 0-512-228.943-512-512s228.943-512 512-512 512 228.943 512 512c0 283.057-228.943 512-512 512zM736.78 558.309c0-4.163 18.732-10.407 18.732-14.569 0-147.772-131.122-320.52-337.171-320.52-62.439 0-122.797 18.732-172.748 49.951 8.325 0 18.732-2.081 27.057-2.081 52.033 0 101.984 18.732 139.447 47.87-49.951 0-91.577 33.301-104.065 77.008 6.244-2.081 14.569-2.081 20.813-2.081 10.407 0 20.813 2.081 29.138 4.163-52.033 10.407-89.496 56.195-89.496 110.309 0 0 0 0 0 2.081 14.569-8.325 33.301-12.488 49.951-14.569-29.138 20.813-49.951 54.114-49.951 93.659 0 20.813 6.244 39.545 14.569 56.195 56.195-68.683 158.179-112.39 251.837-116.553-2.081 8.325-22.894 16.65-22.894 24.976 0 62.439 49.951 112.39 112.39 112.39 33.301 0 62.439-14.569 81.171-35.382 24.976 4.163 49.951 14.569 70.764 27.057-8.325-27.057-27.057-47.87-49.951-62.439 22.894 2.081 43.707 8.325 64.52 18.732-14.569-20.813-33.301-39.545-54.114-56.195z" />
<glyph unicode="&#xe611;" d="M700.416 540.16c-19.456 34.816-57.344 58.368-100.352 58.368-8.192 0-17.408-1.024-25.6-3.072-27.648 38.912-73.728 63.488-122.88 63.488-73.728 0-135.168-52.224-148.48-120.832-67.584-15.36-117.76-75.776-117.76-148.48 0-83.968 67.584-151.552 151.552-151.552h350.208c83.968 0 151.552 67.584 151.552 151.552 0 78.848-60.416 144.384-138.24 150.528zM687.104 279.040h-350.208c-60.416 0-109.568 49.152-109.568 109.568 0 61.44 49.152 110.592 109.568 110.592 2.048 0 3.072 0 5.12 0 0 3.072 0 5.12 0 8.192 0 60.416 49.152 109.568 109.568 109.568 48.128 0 89.088-31.744 104.448-75.776 12.288 9.216 27.648 15.36 44.032 15.36 35.84 0 65.536-25.6 71.68-58.368 5.12 0 10.24 1.024 14.336 1.024 60.416 0 109.568-49.152 109.568-109.568 1.024-60.416-48.128-110.592-108.544-110.592z" />
<glyph unicode="&#xe612;" d="M625.664 655.872v0c13.312 0 24.576 11.264 24.576 24.576v56.32c0 13.312-11.264 24.576-24.576 24.576v0c-13.312 0-24.576-11.264-24.576-24.576v-56.32c0-13.312 10.24-24.576 24.576-24.576v0zM546.816 634.368v0c11.264 7.168 15.36 21.504 9.216 33.792l-27.648 49.152c-7.168 12.288-22.528 15.36-33.792 9.216v0c-12.288-7.168-15.36-21.504-9.216-33.792l27.648-49.152c6.144-12.288 21.504-15.36 33.792-9.216v0zM488.448 577.024v0c7.168 11.264 3.072 26.624-9.216 33.792l-49.152 27.648c-12.288 6.144-26.624 2.048-33.792-9.216v0c-7.168-11.264-2.048-26.624 9.216-33.792l49.152-27.648c12.288-6.144 26.624-3.072 33.792 9.216v0zM762.88 418.304v0c-7.168-12.288-3.072-27.648 9.216-33.792l49.152-27.648c11.264-7.168 26.624-3.072 33.792 9.216v0c7.168 12.288 2.048 26.624-9.216 33.792l-49.152 27.648c-12.288 7.168-27.648 3.072-33.792-9.216v0zM783.36 497.152v0c0-13.312 11.264-24.576 24.576-24.576h56.32c13.312 0 24.576 11.264 24.576 24.576v0c0 13.312-11.264 24.576-24.576 24.576h-56.32c-13.312 0-24.576-10.24-24.576-24.576v0zM762.88 577.024v0c6.144-12.288 21.504-15.36 33.792-9.216l49.152 27.648c11.264 7.168 15.36 22.528 9.216 33.792v0c-7.168 12.288-22.528 15.36-33.792 9.216l-49.152-27.648c-12.288-7.168-16.384-22.528-9.216-33.792v0zM704.512 634.368v0c12.288-7.168 27.648-3.072 33.792 9.216l27.648 49.152c7.168 12.288 3.072 26.624-9.216 33.792v0c-12.288 7.168-26.624 3.072-33.792-9.216l-27.648-49.152c-6.144-11.264-3.072-26.624 9.216-33.792v0zM524.288 493.056c1.024 0 2.048 0 3.072 0 0 1.024 0 3.072 0 4.096 0 54.272 44.032 98.304 98.304 98.304s98.304-44.032 98.304-98.304c0-27.648-11.264-53.248-29.696-70.656 13.312-5.12 25.6-13.312 36.864-21.504 21.504 24.576 34.816 57.344 34.816 92.16 0 77.824-63.488 140.288-140.288 140.288-66.56 0-122.88-47.104-137.216-109.568 13.312-9.216 25.6-21.504 35.84-34.816zM650.24 437.76c-19.456 34.816-57.344 58.368-100.352 58.368-8.192 0-17.408-1.024-25.6-3.072-27.648 38.912-73.728 63.488-122.88 63.488-73.728 0-135.168-52.224-148.48-120.832-67.584-15.36-117.76-75.776-117.76-148.48 0-83.968 67.584-151.552 151.552-151.552h350.208c82.944-1.024 151.552 66.56 151.552 150.528 0 78.848-61.44 144.384-138.24 151.552zM636.928 176.64h-350.208c-60.416 0-109.568 49.152-109.568 109.568s49.152 109.568 109.568 109.568c2.048 0 3.072 0 5.12 0 0 3.072 0 5.12 0 8.192 0 60.416 49.152 109.568 109.568 109.568 48.128 0 89.088-31.744 104.448-75.776 12.288 9.216 27.648 15.36 44.032 15.36 35.84 0 65.536-25.6 71.68-58.368 5.12 0 10.24 1.024 14.336 1.024 60.416 0 109.568-49.152 109.568-109.568s-48.128-109.568-108.544-109.568z" />
<glyph unicode="&#xe613;" d="M667.648 297.472c72.704-233.472-204.8-134.144 0 0v0zM508.928 297.472c72.704-233.472-204.8-134.144 0 0v0zM349.184 297.472c72.704-233.472-203.776-134.144 0 0v0zM700.416 621.056c-19.456 34.816-57.344 58.368-100.352 58.368-8.192 0-17.408-1.024-25.6-3.072-27.648 38.912-73.728 63.488-122.88 63.488-73.728 0-135.168-52.224-148.48-120.832-67.584-17.408-117.76-77.824-117.76-149.504 0-83.968 67.584-151.552 151.552-151.552h350.208c83.968 0 151.552 67.584 151.552 151.552 0 78.848-60.416 144.384-138.24 151.552zM687.104 359.936h-350.208c-60.416 0-109.568 49.152-109.568 109.568s49.152 109.568 109.568 109.568c2.048 0 3.072 0 5.12 0 0 3.072 0 5.12 0 8.192 0 60.416 49.152 109.568 109.568 109.568 48.128 0 89.088-31.744 104.448-75.776 12.288 9.216 27.648 15.36 44.032 15.36 35.84 0 65.536-25.6 71.68-58.368 5.12 0 10.24 1.024 14.336 1.024 60.416 0 109.568-49.152 109.568-109.568 1.024-60.416-48.128-109.568-108.544-109.568z" />
<glyph unicode="&#xe614;" d="M308.224 243.2h40.96l-28.672 28.672c-6.144 6.144-6.144 17.408 0 24.576v0c7.168 7.168 17.408 7.168 24.576 0l28.672-28.672v41.984c0 9.216 8.192 17.408 17.408 17.408v0c9.216 0 17.408-8.192 17.408-17.408v-41.984l28.672 28.672c6.144 7.168 17.408 7.168 24.576 0v0c7.168-6.144 7.168-17.408 0-24.576l-29.696-28.672h40.96c10.24 0 17.408-8.192 17.408-17.408v0c0-9.216-7.168-17.408-17.408-17.408h-40.96l28.672-28.672c7.168-6.144 7.168-17.408 0-24.576v0c-7.168-7.168-17.408-7.168-24.576 0l-28.672 28.672v-40.96c0-9.216-8.192-17.408-17.408-17.408v0c-9.216 0-17.408 8.192-17.408 17.408v40.96l-28.672-28.672c-7.168-7.168-17.408-7.168-24.576 0v0c-6.144 6.144-6.144 17.408 0 24.576l28.672 28.672h-40.96c-9.216 0-17.408 8.192-17.408 17.408v0c1.024 9.216 9.216 17.408 18.432 17.408v0zM547.84 262.656h31.744l-22.528 22.528c-5.12 5.12-5.12 13.312 0 18.432v0c5.12 5.12 13.312 5.12 18.432 0l22.528-22.528v31.744c0 7.168 6.144 13.312 13.312 13.312v0c7.168 0 13.312-6.144 13.312-13.312v-31.744l22.528 22.528c5.12 5.12 13.312 5.12 18.432 0v0c5.12-5.12 5.12-13.312 0-18.432l-22.528-22.528h31.744c7.168 0 13.312-6.144 13.312-13.312v0c0-7.168-6.144-13.312-13.312-13.312h-31.744l22.528-22.528c5.12-5.12 5.12-13.312 0-18.432v0c-5.12-5.12-13.312-5.12-18.432 0l-22.528 22.528v-31.744c0-7.168-6.144-13.312-13.312-13.312v0c-7.168 0-13.312 6.144-13.312 13.312v31.744l-22.528-22.528c-5.12-5.12-13.312-5.12-18.432 0v0c-5.12 5.12-5.12 13.312 0 18.432l22.528 22.528h-31.744c-7.168 0-13.312 6.144-13.312 13.312v0c0 8.192 6.144 13.312 13.312 13.312v0zM700.416 651.776c-19.456 34.816-57.344 58.368-100.352 58.368-8.192 0-17.408-1.024-25.6-3.072-27.648 38.912-73.728 63.488-122.88 63.488-73.728 0-135.168-52.224-148.48-120.832-67.584-15.36-117.76-75.776-117.76-148.48 0-83.968 67.584-151.552 151.552-151.552h350.208c83.968 0 151.552 67.584 151.552 151.552 0 78.848-60.416 144.384-138.24 150.528zM687.104 390.656h-350.208c-60.416 0-109.568 49.152-109.568 109.568s49.152 109.568 109.568 109.568c2.048 0 3.072 0 5.12 0 0 3.072 0 5.12 0 8.192 0 60.416 49.152 109.568 109.568 109.568 48.128 0 89.088-31.744 104.448-75.776 12.288 9.216 27.648 15.36 44.032 15.36 35.84 0 65.536-25.6 71.68-58.368 5.12 0 10.24 1.024 14.336 1.024 60.416 0 109.568-49.152 109.568-109.568 1.024-59.392-48.128-109.568-108.544-109.568z" />
<glyph unicode="&#xe615;" d="M512 583.168c-77.824 0-140.288-63.488-140.288-140.288 0-77.824 63.488-140.288 140.288-140.288 77.824 0 140.288 63.488 140.288 140.288 1.024 76.8-62.464 140.288-140.288 140.288zM512 343.552c-54.272 0-98.304 44.032-98.304 98.304s44.032 98.304 98.304 98.304c54.272 0 98.304-44.032 98.304-98.304s-44.032-98.304-98.304-98.304zM512 600.576v0c13.312 0 24.576 11.264 24.576 24.576v56.32c0 13.312-11.264 24.576-24.576 24.576v0c-13.312 0-24.576-11.264-24.576-24.576v-56.32c0-13.312 11.264-24.576 24.576-24.576v0zM433.152 579.072v0c11.264 7.168 15.36 21.504 9.216 33.792l-27.648 49.152c-7.168 12.288-22.528 15.36-33.792 9.216v0c-12.288-7.168-15.36-21.504-9.216-33.792l27.648-49.152c7.168-12.288 22.528-15.36 33.792-9.216v0zM374.784 521.728v0c7.168 11.264 3.072 26.624-9.216 33.792l-48.128 27.648c-12.288 6.144-26.624 2.048-33.792-9.216v0c-7.168-11.264-2.048-26.624 9.216-33.792l49.152-27.648c11.264-7.168 26.624-3.072 32.768 9.216v0zM354.304 441.856v0c0 13.312-11.264 24.576-24.576 24.576h-56.32c-13.312 0-24.576-11.264-24.576-24.576v0c0-13.312 11.264-24.576 24.576-24.576h56.32c13.312 0 24.576 11.264 24.576 24.576v0zM374.784 363.008v0c-7.168 12.288-21.504 15.36-33.792 9.216l-49.152-27.648c-11.264-7.168-15.36-21.504-9.216-33.792v0c7.168-12.288 21.504-15.36 33.792-9.216l49.152 27.648c12.288 7.168 16.384 22.528 9.216 33.792v0zM433.152 304.64v0c-12.288 7.168-27.648 3.072-33.792-9.216l-27.648-49.152c-6.144-11.264-2.048-26.624 9.216-33.792v0c11.264-6.144 26.624-2.048 33.792 9.216l27.648 48.128c7.168 13.312 2.048 28.672-9.216 34.816v0zM512 284.16v0c-13.312 0-24.576-11.264-24.576-24.576v-56.32c0-14.336 11.264-24.576 24.576-24.576v0c13.312 0 24.576 11.264 24.576 24.576v56.32c0 13.312-11.264 24.576-24.576 24.576v0zM590.848 304.64v0c-12.288-6.144-15.36-21.504-9.216-33.792l27.648-48.128c7.168-12.288 21.504-15.36 33.792-9.216v0c12.288 7.168 15.36 22.528 9.216 33.792l-27.648 49.152c-6.144 11.264-21.504 15.36-33.792 8.192v0zM649.216 363.008v0c-7.168-12.288-3.072-27.648 9.216-33.792l49.152-27.648c11.264-7.168 26.624-3.072 33.792 9.216v0c7.168 12.288 2.048 26.624-9.216 33.792l-49.152 27.648c-12.288 7.168-27.648 3.072-33.792-9.216v0zM670.72 441.856v0c0-13.312 11.264-24.576 24.576-24.576h56.32c13.312 0 24.576 11.264 24.576 24.576v0c0 13.312-11.264 24.576-24.576 24.576h-56.32c-14.336 0-24.576-10.24-24.576-24.576v0zM649.216 521.728v0c6.144-12.288 21.504-15.36 33.792-9.216l49.152 27.648c11.264 7.168 15.36 22.528 9.216 33.792v0c-7.168 12.288-22.528 15.36-33.792 9.216l-49.152-27.648c-12.288-7.168-16.384-22.528-9.216-33.792v0zM590.848 579.072v0c12.288-7.168 27.648-3.072 33.792 9.216l27.648 49.152c7.168 12.288 3.072 26.624-9.216 33.792v0c-12.288 7.168-26.624 3.072-33.792-9.216l-27.648-49.152c-6.144-12.288-2.048-26.624 9.216-33.792v0z" />
<glyph unicode="&#xe616;" d="M324.267 461.653c0-32.047-25.979-58.027-58.027-58.027s-58.027 25.979-58.027 58.027c0 32.047 25.979 58.027 58.027 58.027s58.027-25.979 58.027-58.027zM532.48-5.973c0-32.047-25.979-58.027-58.027-58.027s-58.027 25.979-58.027 58.027c0 32.047 25.979 58.027 58.027 58.027s58.027-25.979 58.027-58.027zM324.267 308.053c0-32.047-25.979-58.027-58.027-58.027s-58.027 25.979-58.027 58.027c0 32.047 25.979 58.027 58.027 58.027s58.027-25.979 58.027-58.027zM532.48 461.653c0-32.047-25.979-58.027-58.027-58.027s-58.027 25.979-58.027 58.027c0 32.047 25.979 58.027 58.027 58.027s58.027-25.979 58.027-58.027zM324.267 151.040c0-32.047-25.979-58.027-58.027-58.027s-58.027 25.979-58.027 58.027c0 32.047 25.979 58.027 58.027 58.027s58.027-25.979 58.027-58.027zM532.48 308.053c0-32.047-25.979-58.027-58.027-58.027s-58.027 25.979-58.027 58.027c0 32.047 25.979 58.027 58.027 58.027s58.027-25.979 58.027-58.027zM532.48 151.040c0-32.047-25.979-58.027-58.027-58.027s-58.027 25.979-58.027 58.027c0 32.047 25.979 58.027 58.027 58.027s58.027-25.979 58.027-58.027zM116.053-5.973c0-32.047-25.979-58.027-58.027-58.027s-58.027 25.979-58.027 58.027c0 32.047 25.979 58.027 58.027 58.027s58.027-25.979 58.027-58.027zM1157.12 461.653c0-32.047-25.979-58.027-58.027-58.027s-58.027 25.979-58.027 58.027c0 32.047 25.979 58.027 58.027 58.027s58.027-25.979 58.027-58.027zM116.053 308.053c0-32.047-25.979-58.027-58.027-58.027s-58.027 25.979-58.027 58.027c0 32.047 25.979 58.027 58.027 58.027s58.027-25.979 58.027-58.027zM116.053 461.653c0-32.047-25.979-58.027-58.027-58.027s-58.027 25.979-58.027 58.027c0 32.047 25.979 58.027 58.027 58.027s58.027-25.979 58.027-58.027zM324.267-5.973c0-32.047-25.979-58.027-58.027-58.027s-58.027 25.979-58.027 58.027c0 32.047 25.979 58.027 58.027 58.027s58.027-25.979 58.027-58.027zM116.053 151.040c0-32.047-25.979-58.027-58.027-58.027s-58.027 25.979-58.027 58.027c0 32.047 25.979 58.027 58.027 58.027s58.027-25.979 58.027-58.027zM1157.12-5.973c0-32.047-25.979-58.027-58.027-58.027s-58.027 25.979-58.027 58.027c0 32.047 25.979 58.027 58.027 58.027s58.027-25.979 58.027-58.027zM1061.547 908.8c0 27.307-23.893 51.2-51.2 51.2h-873.813c-27.307 0-51.2-23.893-51.2-51.2s23.893-51.2 51.2-51.2h870.4c30.72 0 54.613 23.893 54.613 51.2zM948.907 461.653c0-32.047-25.979-58.027-58.027-58.027s-58.027 25.979-58.027 58.027c0 32.047 25.979 58.027 58.027 58.027s58.027-25.979 58.027-58.027zM1157.12 151.040c0-32.047-25.979-58.027-58.027-58.027s-58.027 25.979-58.027 58.027c0 32.047 25.979 58.027 58.027 58.027s58.027-25.979 58.027-58.027zM948.907 308.053c0-32.047-25.979-58.027-58.027-58.027s-58.027 25.979-58.027 58.027c0 32.047 25.979 58.027 58.027 58.027s58.027-25.979 58.027-58.027zM1157.12 308.053c0-32.047-25.979-58.027-58.027-58.027s-58.027 25.979-58.027 58.027c0 32.047 25.979 58.027 58.027 58.027s58.027-25.979 58.027-58.027zM948.907 151.040c0-32.047-25.979-58.027-58.027-58.027s-58.027 25.979-58.027 58.027c0 32.047 25.979 58.027 58.027 58.027s58.027-25.979 58.027-58.027zM740.693 308.053c0-32.047-25.979-58.027-58.027-58.027s-58.027 25.979-58.027 58.027c0 32.047 25.979 58.027 58.027 58.027s58.027-25.979 58.027-58.027zM740.693 151.040c0-32.047-25.979-58.027-58.027-58.027s-58.027 25.979-58.027 58.027c0 32.047 25.979 58.027 58.027 58.027s58.027-25.979 58.027-58.027zM740.693-5.973c0-32.047-25.979-58.027-58.027-58.027s-58.027 25.979-58.027 58.027c0 32.047 25.979 58.027 58.027 58.027s58.027-25.979 58.027-58.027zM740.693 461.653c0-32.047-25.979-58.027-58.027-58.027s-58.027 25.979-58.027 58.027c0 32.047 25.979 58.027 58.027 58.027s58.027-25.979 58.027-58.027zM638.293 762.027c0-32.047-25.979-58.027-58.027-58.027s-58.027 25.979-58.027 58.027c0 32.047 25.979 58.027 58.027 58.027s58.027-25.979 58.027-58.027zM948.907-5.973c0-32.047-25.979-58.027-58.027-58.027s-58.027 25.979-58.027 58.027c0 32.047 25.979 58.027 58.027 58.027s58.027-25.979 58.027-58.027z" horiz-adv-x="1157" />
<glyph unicode="&#xe617;" d="M1299.335 520.701c-12.375 0-30.937-3.094-30.937-9.281v142.308c0 74.248-68.060 148.495-145.402 148.495h-15.468c9.281 0 12.375 21.656 12.375 37.124 0 43.311-34.030 74.248-77.341 74.248s-77.341-30.937-77.341-74.248c0-15.468 6.187-40.218 12.375-40.218h-201.088c9.281 0 12.375 21.656 12.375 37.124 0 43.311-34.030 74.248-77.341 74.248s-77.341-30.937-77.341-74.248c0-15.468 6.187-40.218 12.375-40.218h-188.713c9.281 0 12.375 21.656 12.375 37.124 0 43.311-34.030 74.248-77.341 74.248s-77.341-30.937-77.341-74.248c0-15.468 6.187-40.218 12.375-40.218h-24.749c-74.248 9.281-148.495-64.967-148.495-139.215v-139.215c0 9.281-18.562 12.375-34.030 12.375-43.311 0-74.248-34.030-74.248-77.341s30.937-77.341 74.248-77.341c15.468 0 37.124 3.094 37.124 12.375v-139.215c0-74.248 74.248-151.589 148.495-151.589h18.562c-6.187 0-9.281-15.468-9.281-30.937 0-43.311 34.030-74.248 77.341-74.248s77.341 27.843 77.341 71.154c0 15.468-3.094 34.030-9.281 34.030h185.619c-9.281 0-12.375-21.656-12.375-37.124 0-43.311 34.030-74.248 77.341-74.248s77.341 27.843 77.341 71.154c0 15.468-6.187 37.124-12.375 37.124h197.994c-6.187 0-9.281-15.468-9.281-30.937 0-43.311 34.030-74.248 77.341-74.248s77.341 27.843 77.341 71.154c0 15.468-3.094 34.030-9.281 34.030h15.468c74.248 0 145.402 77.341 145.402 151.589v129.934c0-6.187 18.562-9.281 30.937-9.281 43.311 0 77.341 34.030 77.341 77.341-3.094 46.405-37.124 80.435-80.435 80.435zM1206.526 263.927c0-64.967-46.405-111.372-111.372-111.372h-761.039c-64.967 0-117.559 46.405-117.559 111.372v365.051c0 61.873 52.592 111.372 117.559 111.372h761.039c64.967 0 111.372-46.405 111.372-111.372v-365.051z" horiz-adv-x="1420" />
<glyph unicode="&#xe618;" d="M68.484 842.599h887.032c39.134 0 68.484-29.35 68.484-68.484s-29.35-68.484-68.484-68.484h-887.032c-39.134 0-68.484 32.611-68.484 68.484 0 39.134 29.35 68.484 68.484 68.484zM68.484 190.369h887.032c39.134 0 68.484-29.35 68.484-68.484s-29.35-68.484-68.484-68.484h-887.032c-39.134 0-68.484 29.35-68.484 68.484 0 35.873 29.35 68.484 68.484 68.484zM68.484 516.484h887.032c39.134 0 68.484-29.35 68.484-68.484s-29.35-68.484-68.484-68.484h-887.032c-39.134 0-68.484 29.35-68.484 68.484s29.35 68.484 68.484 68.484z" />
<glyph unicode="&#xe619;" d="M437.81 319.362l-49.247-103.112h125.428l-65.406-144.664 179.291 190.834h-132.354l27.702 56.943zM691.743 646.398c-20.777 36.167-60.021 60.021-103.881 60.021-9.235 0-17.699-0.77-26.164-3.079-28.472 40.782-75.41 65.406-126.967 65.406-76.18 0-139.278-53.865-153.898-125.428-69.255-16.16-121.58-78.488-121.58-153.129 0-86.184 70.023-156.977 156.977-156.977h361.662c86.184 0 156.977 70.023 156.977 156.977 0 81.567-63.098 149.281-143.126 156.207zM677.893 376.304h-361.662c-63.098 0-113.115 50.787-113.115 113.114 0 63.098 50.787 113.884 113.115 113.884 2.309 0 3.848-0.77 5.387-0.77 0 3.079-0.77 5.387-0.77 8.465 0 63.098 50.787 113.884 113.884 113.884 50.017 0 92.339-32.318 107.73-77.719 13.080 10.004 28.472 16.16 46.17 16.16 36.936 0 67.715-26.164 73.871-60.021 5.387 0.77 10.004 0.77 15.39 0.77 63.098 0 113.115-50.787 113.115-113.884 0-62.329-50.787-113.884-113.115-113.884z" />
</font>
</defs>
</svg>
