<?xml version="1.0" encoding="UTF-8"?>
<svg width="83px" height="85px" viewBox="0 0 83 85" version="1.1" xmlns="http://www.w3.org/2000/svg" xmlns:xlink="http://www.w3.org/1999/xlink">
    <title>Assets/Logos/Symbol-cms-color</title>
    <g id="Page-1" stroke="none" stroke-width="1" fill="none" fill-rule="evenodd">
        <g id="Group-11">
            <path d="M77.6843454,5.12804826 C70.9955133,-1.70942457 60.1509713,-1.70942457 53.4621392,5.12804826 C46.7733071,11.9655211 46.7733071,23.0513347 53.4621392,29.8888075 L65.5728288,42.2694689 L77.6843454,29.8888075 C84.3734532,23.0513347 84.3734532,11.9655211 77.6843454,5.12804826" id="Fill-1" fill="#02A0E6"></path>
            <path d="M17.1281683,35.0170249 C21.8569939,35.0170249 26.1392359,33.0574227 29.2380309,29.8897656 L29.2396849,29.8889202 L29.2405119,29.8880749 L34.256309,24.7608156 L34.256309,17.5082588 C34.256309,7.83874667 26.5874736,0.000338153948 17.1281683,0.000338153948 C7.66886291,0.000338153948 2.75668979e-05,7.83874667 2.75668979e-05,17.5082588 C2.75668979e-05,27.177771 7.66886291,35.0170249 17.1281683,35.0170249" id="Fill-4" fill="#FA1A57"></path>
            <path d="M77.8079278,54.8038777 L77.8211599,54.7895062 L76.7821635,53.7279846 L65.5729115,42.2693562 L53.4624976,29.8886948 C46.7725628,23.051222 46.7725628,11.9656902 53.4624976,5.12821734 L41.350981,17.5088788 L34.2558128,24.7605902 L29.2400157,29.8878494 L29.2391887,29.8886948 L29.2383617,29.8895402 C26.1387397,33.0580427 21.8573247,35.0167994 17.1284991,35.0167994 C7.6683667,35.0167994 0.000358369673,27.1783909 0.000358369673,17.5088788 L0.000358369673,67.0213798 L0.000358369673,67.0301155 C0.000358369673,62.5492939 1.6725664,58.0687541 5.01698246,54.6500177 C11.7058146,47.8125448 22.5503566,47.8125448 29.2391887,54.6500177 L41.350981,67.0301155 L52.5599573,78.488462 L53.5989537,79.550829 L53.6127372,79.5367393 C60.3123204,86.2302149 71.0430111,86.199781 77.6847038,79.4104951 C84.3263965,72.621491 84.3561688,61.6517769 77.8079278,54.8038777" id="Fill-6" fill="#2E2B29"></path>
            <path d="M5.01703759,54.6497922 C-1.67179453,61.4875468 -1.67179453,72.5730786 5.01703759,79.4102697 C11.7058697,86.2480243 22.5504117,86.2480243 29.2392438,79.4102697 L41.3507604,67.0307354 L29.2392438,54.6497922 C22.5504117,47.8123194 11.7058697,47.8123194 5.01703759,54.6497922" id="Fill-8" fill="#08D6E5"></path>
        </g>
    </g>
</svg>