<?xml version="1.0" encoding="UTF-8" standalone="no"?>
<svg width="87px" height="87px" viewBox="0 0 87 87" version="1.1" xmlns="http://www.w3.org/2000/svg" xmlns:xlink="http://www.w3.org/1999/xlink" xmlns:sketch="http://www.bohemiancoding.com/sketch/ns">
    <!-- Generator: Sketch 3.2.2 (9983) - http://www.bohemiancoding.com/sketch -->
    <title>lamp</title>
    <desc>Created with Sketch.</desc>
    <defs></defs>
    <g id="Page-1" stroke="none" stroke-width="1" fill="none" fill-rule="evenodd" sketch:type="MSPage">
        <g id="icons" sketch:type="MSArtboardGroup" transform="translate(-89.000000, -263.000000)" fill="#5F5F5F">
            <g id="Content-icons" sketch:type="MSLayerGroup" transform="translate(88.000000, 263.000000)">
                <g id="icon-lamp" transform="translate(31.000000, 24.000000)" sketch:type="MSShapeGroup">
                    <path d="M9.22425934,28 C8.54811958,28 8,28.5409603 8,29.21875 L8,29.21875 C8,29.891847 8.54774581,30.4375 9.22425934,30.4375 L17.8211952,30.4375 C18.497335,30.4375 19.0454545,29.8965397 19.0454545,29.21875 L19.0454545,29.21875 C19.0454545,28.545653 18.4977087,28 17.8211952,28 L9.22425934,28 L9.22425934,28 Z M9.22425934,31.65625 C8.54811958,31.65625 8,32.1972103 8,32.875 L8,32.875 C8,33.548097 8.54774581,34.09375 9.22425934,34.09375 L17.8211952,34.09375 C18.497335,34.09375 19.0454545,33.5527897 19.0454545,32.875 L19.0454545,32.875 C19.0454545,32.201903 18.4977087,31.65625 17.8211952,31.65625 L9.22425934,31.65625 L9.22425934,31.65625 Z" id="Rectangle-1339"></path>
                    <path d="M27,13.40625 C27,6.00218257 20.9558441,0 13.5,0 C6.04415588,0 0,6.00218257 0,13.40625 C0,18.7859298 3.22071911,23.5796024 8.09954394,25.6964486 L7.36363636,24.5796435 L7.36363636,32.8987001 C7.36363636,36.266251 10.1143793,39 13.5,39 C16.8917633,39 19.6363636,36.2731379 19.6363636,32.8987001 L19.6363636,24.5796435 L18.9004561,25.6964486 C23.7792809,23.5796024 27,18.7859298 27,13.40625 L27,13.40625 L27,13.40625 Z M17.1818182,24.5796435 L17.1818182,32.8987001 C17.1818182,34.9272082 15.5358888,36.5625 13.5,36.5625 C11.4704115,36.5625 9.81818182,34.9204778 9.81818182,32.8987001 L9.81818182,24.5796435 C9.81818182,24.0952209 9.52928053,23.6567875 9.08227424,23.4628385 C5.08968302,21.7305153 2.45454545,17.8084139 2.45454545,13.40625 C2.45454545,7.34837665 7.3997639,2.4375 13.5,2.4375 C19.6002361,2.4375 24.5454545,7.34837665 24.5454545,13.40625 C24.5454545,17.8084139 21.910317,21.7305153 17.9177258,23.4628385 C17.4707195,23.6567875 17.1818182,24.0952209 17.1818182,24.5796435 L17.1818182,24.5796435 L17.1818182,24.5796435 Z M8.58526065,23.15625 C7.91057619,23.15625 7.36363636,23.6972103 7.36363636,24.375 L7.36363636,24.375 C7.36363636,25.048097 7.92286085,25.59375 8.58526065,25.59375 L18.4147393,25.59375 C19.0894238,25.59375 19.6363636,25.0527897 19.6363636,24.375 L19.6363636,24.375 C19.6363636,23.701903 19.0771392,23.15625 18.4147393,23.15625 L8.58526065,23.15625 L8.58526065,23.15625 Z" id="Oval-130"></path>
                </g>
            </g>
        </g>
    </g>
</svg>