<?xml version="1.0" encoding="UTF-8" standalone="no"?>
<svg width="87px" height="87px" viewBox="0 0 87 87" version="1.1" xmlns="http://www.w3.org/2000/svg" xmlns:xlink="http://www.w3.org/1999/xlink" xmlns:sketch="http://www.bohemiancoding.com/sketch/ns">
    <!-- Generator: Sketch 3.2.2 (9983) - http://www.bohemiancoding.com/sketch -->
    <title>layout</title>
    <desc>Created with Sketch.</desc>
    <defs></defs>
    <g id="Page-1" stroke="none" stroke-width="1" fill="none" fill-rule="evenodd" sketch:type="MSPage">
        <g id="icons" sketch:type="MSArtboardGroup" transform="translate(-88.000000, -358.000000)" fill="#5F5F5F">
            <g id="Content-icons" sketch:type="MSLayerGroup" transform="translate(88.000000, 263.000000)">
                <g id="icon-layout" transform="translate(1.000000, 96.000000)" sketch:type="MSShapeGroup">
                    <path d="M26,28.0642978 L26,56.9357022 C26,58.0757824 26.9170512,59 28.0642978,59 L56.9357022,59 C58.0757824,59 59,58.0829488 59,56.9357022 L59,28.0642978 C59,26.9242176 58.0829488,26 56.9357022,26 L28.0642978,26 C26.9242176,26 26,26.9170512 26,28.0642978 Z M56.9357022,28.0625 C56.9402765,28.0625 56.9375,56.9357022 56.9375,56.9357022 C56.9375,56.9402765 28.0642978,56.9375 28.0642978,56.9375 C28.0597235,56.9375 28.0625,28.0642978 28.0625,28.0642978 C28.0625,28.0597235 56.9357022,28.0625 56.9357022,28.0625 Z M46.625,48.375 L46.625,57.6537114 C46.625,58.2343086 47.0867064,58.6875 47.65625,58.6875 C48.2297644,58.6875 48.6875,58.2246571 48.6875,57.6537114 L48.6875,37.34375 L57.456925,37.34375 C58.02437,37.34375 58.484375,36.8860144 58.484375,36.3125 C58.484375,35.7429564 58.0324547,35.28125 57.456925,35.28125 L27.543075,35.28125 C26.97563,35.28125 26.515625,35.7389856 26.515625,36.3125 C26.515625,36.8820436 26.9675453,37.34375 27.543075,37.34375 L46.625,37.34375 L46.625,37.34375 L46.625,46.3125 L27.0337886,46.3125 C26.4531914,46.3125 26,46.7742064 26,47.34375 C26,47.9172644 26.4628429,48.375 27.0337886,48.375 L46.625,48.375 Z" id="Rectangle-577"></path>
                </g>
            </g>
        </g>
    </g>
</svg>