<?xml version="1.0" encoding="UTF-8" standalone="no"?>
<svg width="87px" height="87px" viewBox="0 0 87 87" version="1.1" xmlns="http://www.w3.org/2000/svg" xmlns:xlink="http://www.w3.org/1999/xlink" xmlns:sketch="http://www.bohemiancoding.com/sketch/ns">
    <!-- Generator: Sketch 3.2.2 (9983) - http://www.bohemiancoding.com/sketch -->
    <title>mouse</title>
    <desc>Created with Sketch.</desc>
    <defs></defs>
    <g id="Page-1" stroke="none" stroke-width="1" fill="none" fill-rule="evenodd" sketch:type="MSPage">
        <g id="icons" sketch:type="MSArtboardGroup" transform="translate(-184.000000, -263.000000)">
            <g id="Content-icons" sketch:type="MSLayerGroup" transform="translate(88.000000, 263.000000)">
                <g id="icon-mouse" transform="translate(97.000000, 1.000000)">
                    <g id="Group"></g>
                    <path d="M56.1818182,60.9615372 C52.3937707,60.9615372 49.3636364,58.2933149 49.3636364,55.073719 L49.3636364,39.5055868 C49.3636364,36.8478008 51.5418754,35.75 56.1818182,35.75 C60.8199137,35.75 62.994314,36.8469677 62.994314,39.5055868 L63.0000001,55.0740842 C63,58.2933149 59.9698656,60.9615372 56.1818182,60.9615372 Z M64.994314,39.5052215 C64.994314,35.3706489 61.7818771,33.75 56.1818182,33.75 C50.5798168,33.75 47.3636364,35.3709081 47.3636364,39.5055868 L47.3636364,55.073719 C47.3636364,59.4585031 51.3418147,62.9615372 56.1818182,62.9615372 C61.0218217,62.9615372 65,59.4585031 65,55.073719 L64.994314,39.5052215 Z M64,44.1900826 L64,42.1900826 L48.3636364,42.1900826 L48.3636364,44.1900826 L64,44.1900826 Z M48.3636364,44.1900826 L64,44.1900826 L64,42.1900826 L48.3636364,42.1900826 L48.3636364,44.1900826 Z M23.9090909,27.9090909 L23.9090909,31.4628099 C23.9090909,34.1743343 26.1066574,36.3719008 28.8181818,36.3719008 C31.5297062,36.3719008 33.7272727,34.1743343 33.7272727,31.4628099 L33.7272727,27.9090909 C33.7272727,26.302136 35.0294087,25 36.6363636,25 C38.2433186,25 39.5454545,26.302136 39.5454545,27.9090909 L39.5454545,31.4628099 C39.5454545,34.1743343 41.743021,36.3719008 44.4545455,36.3719008 C47.1660699,36.3719008 49.3636364,34.1743343 49.3636364,31.4628099 L49.3636364,27.9090909 C49.3636364,26.302136 50.6657724,25 52.2727273,25 C53.8796822,25 55.1818182,26.302136 55.1818182,27.9090909 L55.1818182,43.1900826 L57.1818182,43.1900826 L57.1818182,27.9090909 C57.1818182,25.1975665 54.9842517,23 52.2727273,23 C49.5612029,23 47.3636364,25.1975665 47.3636364,27.9090909 L47.3636364,31.4628099 C47.3636364,33.0697648 46.0615004,34.3719008 44.4545455,34.3719008 C42.8475905,34.3719008 41.5454545,33.0697648 41.5454545,31.4628099 L41.5454545,27.9090909 C41.5454545,25.1975665 39.3478881,23 36.6363636,23 C33.9248392,23 31.7272727,25.1975665 31.7272727,27.9090909 L31.7272727,31.4628099 C31.7272727,33.0697648 30.4251367,34.3719008 28.8181818,34.3719008 C27.2112269,34.3719008 25.9090909,33.0697648 25.9090909,31.4628099 L25.9090909,27.9090909 C25.9090909,25.1975665 23.7115244,23 21,23 L21,25 C22.6069549,25 23.9090909,26.302136 23.9090909,27.9090909 Z" id="Mouse" fill="#5F5F5F" sketch:type="MSShapeGroup"></path>
                </g>
            </g>
        </g>
    </g>
</svg>