<?xml version="1.0" encoding="UTF-8" standalone="no"?>
<svg width="87px" height="87px" viewBox="0 0 87 87" version="1.1" xmlns="http://www.w3.org/2000/svg" xmlns:xlink="http://www.w3.org/1999/xlink" xmlns:sketch="http://www.bohemiancoding.com/sketch/ns">
    <!-- Generator: Sketch 3.2.2 (9983) - http://www.bohemiancoding.com/sketch -->
    <title>user</title>
    <desc>Created with Sketch.</desc>
    <defs></defs>
    <g id="Page-1" stroke="none" stroke-width="1" fill="none" fill-rule="evenodd" sketch:type="MSPage">
        <g id="icons" sketch:type="MSArtboardGroup" transform="translate(-184.000000, -358.000000)" fill="#5F5F5F">
            <g id="Content-icons" sketch:type="MSLayerGroup" transform="translate(88.000000, 263.000000)">
                <g id="icon-user" transform="translate(97.000000, 96.000000)" sketch:type="MSShapeGroup">
                    <g id="Oval-74-+-Rectangle-373" transform="translate(25.000000, 23.000000)">
                        <path d="M24.6992783,8.75 C24.6992783,3.91750844 20.828893,0 16.0545309,0 C11.2801687,0 7.40978348,3.91750844 7.40978348,8.75 C7.40978348,13.5824916 11.2801687,17.5 16.0545309,17.5 C20.828893,17.5 24.6992783,13.5824916 24.6992783,8.75 L24.6992783,8.75 Z M9.87971131,8.75 C9.87971131,5.29822031 12.6442722,2.5 16.0545309,2.5 C19.4647896,2.5 22.2293504,5.29822031 22.2293504,8.75 C22.2293504,12.2017797 19.4647896,15 16.0545309,15 C12.6442722,15 9.87971131,12.2017797 9.87971131,8.75 L9.87971131,8.75 Z M16.0565235,17.5 C7.20606736,17.5 0,24.5030891 0,33.1510806 L0,38.75 C0,39.4403559 0.552912177,40 1.23496391,40 C1.91701565,40 2.46992783,39.4403559 2.46992783,38.75 L2.46992783,33.1510806 C2.46992783,25.9070621 8.54820089,20 16.0565235,20 C17.6875363,20 19.2771392,20.2778303 20.7725128,20.8137937 C21.4154462,21.0442303 22.1212054,20.7034898 22.3488701,20.0527284 C22.5765348,19.4019671 22.239893,18.6876151 21.5969596,18.4571785 C19.837473,17.8265532 17.9691027,17.5 16.0565235,17.5 L16.0565235,17.5 Z" id="Oval-74"></path>
                        <path d="M22.2407151,36.0608274 L33.1535583,25.0151168 C33.6277871,24.5351141 34.4106628,24.5341629 34.8929462,25.0223183 C35.378592,25.513877 35.3762263,26.300921 34.8951724,26.787832 L22.712957,39.1183698 C22.2288792,39.6083414 21.4509638,39.6042719 20.9686804,39.1161165 C20.9550541,39.1022851 20.951631,39.0988595 20.9482226,39.0954097 L16.6019882,34.6962584 C16.119513,34.2079089 16.1201402,33.4170876 16.6024236,32.9289322 C17.0880694,32.4373735 17.866448,32.4405795 18.3484909,32.9284914 L21.8419318,36.4644661 L22.2407151,36.0608274 L22.2407151,36.0608274 Z" id="Rectangle-373"></path>
                    </g>
                </g>
            </g>
        </g>
    </g>
</svg>