<?xml version="1.0" encoding="UTF-8" standalone="no"?>
<svg width="77px" height="14px" viewBox="0 0 77 14" version="1.1" xmlns="http://www.w3.org/2000/svg" xmlns:xlink="http://www.w3.org/1999/xlink" xmlns:sketch="http://www.bohemiancoding.com/sketch/ns">
    <!-- Generator: Sketch 3.2.2 (9983) - http://www.bohemiancoding.com/sketch -->
    <title>logo-kunstmaan</title>
    <desc>Created with Sketch.</desc>
    <defs></defs>
    <g id="Page-1" stroke="none" stroke-width="1" fill="none" fill-rule="evenodd" sketch:type="MSPage">
	<g id="icons" sketch:type="MSArtboardGroup" transform="translate(-142.000000, -216.000000)" fill="#3C3D3C">
	    <g id="Kunstmaan-Logo" sketch:type="MSLayerGroup" transform="translate(142.000000, 216.000000)">
		<path d="M32.04,4.62 C30.53,4.62 29.4,5.58 29.4,6.97 C29.4,7.99 30.36,9.99 30.36,10.83 C30.36,11.109 30.18,11.21 30.02,11.21 C29.63,11.21 29.07,10.721 28.93,9.99 C29.22,9.68 29.37,9.43 29.37,9.08 C29.37,8.67 28.9,7.93 28.32,7.93 C27.72,7.93 27.42,8.79 27.3,9.641 C26.61,10.4 26.03,10.82 25.79,10.82 C25.64,10.82 25.56,10.75 25.56,10.57 C25.56,10.16 26.09,8.981 26.39,8.26 C26.74,7.471 26.87,6.89 26.87,6.44 C26.87,5.8 26.49,5.3 25.73,5.3 C25,5.3 23.85,6.05 22.63,8.13 C23.08,7.32 23.3,6.16 23.3,5.75 C23.3,5.25 23.15,5.05 22.58,5.05 C21.55,5.05 20.07,6.79 20.07,7.76 C20.07,8.06 20.1,8.4 20.2,8.69 C19.21,10.05 18.46,10.65 18.09,10.66 C17.96,10.65 17.86,10.6 17.86,10.391 C17.86,10.08 18.56,8.54 18.91,7.6 C19.16,6.94 19.23,6.61 19.23,6.31 C19.23,5.63 18.54,4.97 17.61,4.97 C17.36,4.97 17.08,5.07 16.91,5.29 C16.83,6.71 16.6,7.859 16.03,9.65 C15.7,9.99 15.17,10.391 14.88,10.391 C14.65,10.391 14.55,10.221 14.55,9.96 C14.55,9.7 14.65,9.2 14.82,8.6 C15.67,7.231 16.1,6.24 16.1,5.71 C16.1,5.22 15.82,5.05 15.3,5.05 C14.14,5.05 12.54,6.9 12.54,7.93 C12.54,8.26 12.57,8.6 12.76,8.95 C12.32,10.01 12.09,10.971 12.09,11.46 C12.09,12.45 12.33,13.01 13.31,13.02 C14.05,13.02 15.07,12.32 15.86,10.82 C15.8,11.17 15.77,11.45 15.77,11.68 C15.77,12.54 16.18,12.75 16.86,12.75 C17.56,12.75 18.44,12.221 19.22,11.529 C19.43,11.34 19.64,11.15 19.83,10.95 C19.89,11.9 20.55,12.721 21.45,12.721 C21.83,12.721 21.95,12.67 22.12,12.5 C22.17,11.38 22.27,10.641 22.5,9.37 C23.15,8.471 23.7,8.231 23.84,8.221 C23.98,8.231 24.05,8.29 24.05,8.42 C24.04,8.79 23.2,10.46 23.2,11.55 C23.2,12.45 23.53,12.88 24.51,12.88 C25.3,12.88 26.42,12.15 27.33,11.29 C27.6,12.42 28.48,13.02 29.55,13.02 C31.04,13.02 32.75,12.24 32.75,10.24 C32.76,9.029 31.81,7.66 31.81,6.92 C31.81,6.62 31.99,6.52 32.34,6.53 C32.61,6.53 32.9,6.59 33.22,6.72 C33.42,6.53 33.57,6.18 33.57,5.83 C33.57,5.04 33.01,4.62 32.04,4.62" id="Fill-1" sketch:type="MSShapeGroup"></path>
		<path d="M3.98,6.01 C2.98,5.7 2.53,5.35 2.53,4.66 C2.53,3.53 4,2.15 4.46,2.15 C4.66,2.15 4.76,2.28 4.76,2.58 C4.76,3.01 4.48,4.31 3.98,6.01 L3.98,6.01 Z M10.93,5.04 C11.96,3.57 12.18,3.4 12.83,3.35 C13.04,3.12 13.13,2.79 13.12,2.53 C13.12,1.68 12.54,0.83 11.49,0.83 C10.61,0.83 10.16,1.07 9.22,3.27 C8.54,4.85 7.6,6.61 6.84,7.55 C6.53,7.55 6.24,7.57 6.01,7.6 C6.81,4.33 7.31,2.01 7.31,1.5 C7.31,0.63 6.77,0 5.61,0 C3.56,0 0.41,2.89 0.41,5.25 C0.41,6.69 1.62,7.55 3.07,7.55 C3.22,7.55 3.43,7.529 3.58,7.51 L3.37,8.52 C2.67,9.51 2.27,10.52 2.27,11.13 C2.27,12.04 3.23,12.88 4.13,12.88 C4.43,12.88 4.68,12.82 4.83,12.67 L5.59,9.17 C6.36,9.41 6.72,10.19 7.77,12.45 C8.19,13.35 8.49,13.59 9.12,13.59 C10.3,13.59 11.56,12.77 11.56,11.859 C11.56,11.66 11.49,11.41 11.36,11.26 C11.16,11.31 10.83,11.359 10.68,11.359 C10.43,11.359 10.26,11.26 10.06,10.87 C9.48,9.71 8.9,8.54 8.3,8.141 C9.08,7.471 9.92,6.49 10.93,5.04 L10.93,5.04 Z" id="Fill-2" sketch:type="MSShapeGroup"></path>
		<path d="M75.16,7.32 C74.66,7.32 74.37,6.99 74.37,6.53 C74.37,5.91 74.75,5.38 75.35,5.38 C75.92,5.38 76.16,5.69 76.16,6.14 C76.16,6.89 75.731,7.32 75.16,7.32 L75.16,7.32 Z M75.42,5.1 C74.609,5.1 74.029,5.76 74.029,6.62 C74.029,7.231 74.471,7.609 75.09,7.609 C75.93,7.609 76.5,6.98 76.5,6.07 C76.5,5.51 76.15,5.1 75.42,5.1 L75.42,5.1 Z" id="Fill-3" sketch:type="MSShapeGroup"></path>
		<path d="M75.31,6.43 L75.15,6.42 C75.2,6.23 75.221,6.07 75.231,5.98 C75.359,5.99 75.43,6.05 75.43,6.13 C75.43,6.22 75.41,6.3 75.31,6.43 L75.31,6.43 Z M75.67,6.7 C75.63,6.7 75.62,6.69 75.59,6.64 C75.54,6.54 75.519,6.54 75.49,6.5 C75.67,6.34 75.76,6.21 75.76,6.04 C75.76,5.84 75.6,5.68 75.25,5.68 C74.96,5.68 74.769,5.81 74.769,5.93 C74.769,5.98 74.79,6.01 74.83,6.02 C74.891,6 74.971,5.98 74.99,5.98 C74.94,6.17 74.891,6.3 74.84,6.44 C74.769,6.63 74.76,6.68 74.76,6.73 C74.76,6.87 74.85,6.97 74.96,6.97 C75.01,6.97 75.04,6.95 75.05,6.93 C75.05,6.87 75.08,6.72 75.109,6.61 C75.189,6.65 75.25,6.73 75.34,6.91 C75.38,6.99 75.41,7.01 75.49,7.01 C75.63,7.01 75.79,6.89 75.79,6.78 C75.79,6.75 75.769,6.71 75.74,6.69 L75.67,6.7 L75.67,6.7 Z" id="Fill-4" sketch:type="MSShapeGroup"></path>
		<path d="M61.07,9.94 C60.87,10.19 60.641,10.359 60.41,10.359 C60.17,10.35 59.971,10.29 59.971,9.68 C59.971,8.41 60.769,7.029 61.609,6.51 L61.07,9.94 L61.07,9.94 Z M53.769,9.94 C53.57,10.19 53.34,10.359 53.109,10.359 C52.88,10.359 52.68,10.29 52.68,9.68 C52.68,8.41 53.481,7.04 54.31,6.51 L53.769,9.94 L53.769,9.94 Z M73.37,8.51 C72.34,9.98 71.3,10.82 70.971,10.82 C70.82,10.82 70.731,10.75 70.731,10.57 C70.731,10.16 71.26,8.99 71.56,8.26 C71.91,7.471 72.04,6.89 72.04,6.44 C72.04,5.8 71.66,5.3 70.9,5.3 C70.16,5.3 69.019,6.05 67.81,8.13 C68.26,7.32 68.471,6.16 68.471,5.75 C68.471,5.25 68.32,5.06 67.75,5.06 C66.721,5.06 65.24,6.79 65.24,7.76 C65.24,8.07 65.279,8.42 65.391,8.721 C64.4,10.05 63.6,10.62 63.279,10.62 C63.15,10.62 63.08,10.57 63.08,10.24 C63.08,9.81 62.96,9.69 63.54,7.609 C63.67,7.15 63.721,6.74 63.721,6.52 C63.721,5.94 63.45,5.23 62.32,5.23 C62.09,5.23 61.87,5.3 61.74,5.45 L61.689,5.43 C61.6,5.35 61.49,5.32 61.25,5.32 C59.84,5.32 58.15,7.18 57.66,9.26 C56.87,10.21 56.25,10.62 55.981,10.62 C55.85,10.62 55.779,10.57 55.779,10.24 C55.779,9.81 55.66,9.69 56.24,7.609 C56.37,7.15 56.42,6.74 56.42,6.52 C56.42,5.94 56.15,5.23 55.019,5.23 C54.79,5.23 54.57,5.3 54.44,5.45 L54.38,5.44 C54.3,5.35 54.18,5.32 53.95,5.32 C52.55,5.32 50.87,7.16 50.37,9.221 C49.44,10.37 48.65,10.981 48.4,10.981 C48.25,10.981 48.17,10.92 48.17,10.74 C48.17,10.32 48.83,8.891 49.13,8.16 C49.43,7.471 49.58,6.89 49.58,6.46 C49.58,5.81 49.21,5.24 48.45,5.24 C47.721,5.24 46.8,5.95 45.44,7.981 C45.84,7.19 45.85,6.81 45.859,6.38 C45.859,5.83 45.51,5.4 44.88,5.4 C44.15,5.4 43.32,5.88 42.1,7.96 C42.5,7.09 42.62,6.51 42.62,6.09 C42.62,5.6 42.391,5.4 41.9,5.4 C40.87,5.4 39.54,6.62 39.54,7.6 C39.54,7.91 39.57,8.279 39.7,8.59 C38.6,10.08 37.49,10.84 36.83,10.83 C36.48,10.84 36.38,10.65 36.38,10.26 C36.38,10.01 36.52,9.08 36.97,7.27 C37.45,7.35 37.8,7.37 38.18,7.37 C38.73,7.37 39.141,6.89 39.141,6.26 C39.141,6.01 39.029,5.71 38.83,5.56 C38.61,5.61 37.91,5.66 37.4,5.68 C38.28,3.93 38.48,3.53 38.48,3.02 C38.48,2.31 38.13,2.05 37.36,2.05 C36.23,2.05 35.34,3.09 35.19,4.54 C35.12,5.15 35.1,5.42 35.09,5.76 C34.41,5.78 34.04,6.24 34.04,6.75 C34.04,7.12 34.32,7.15 34.66,7.18 C34.03,9.279 33.86,10.29 33.86,10.77 C33.86,12.29 34.72,12.95 36,12.95 C37.08,12.95 38.34,12.02 39.25,11.029 C39.34,11.95 40,12.731 40.87,12.731 C41.25,12.731 41.37,12.68 41.54,12.52 C41.59,11.4 41.74,10.471 41.971,9.2 C42.62,8.31 43.019,8.06 43.17,8.06 C43.3,8.06 43.37,8.109 43.37,8.26 C43.37,8.42 43.221,8.8 43.08,9.17 C42.79,9.96 42.519,10.93 42.519,11.561 C42.529,12.55 43.17,12.93 44.1,12.93 C44.45,12.93 44.6,12.85 44.76,12.68 C44.811,11.561 44.981,10.641 45.21,9.359 C45.859,8.471 46.44,8.12 46.59,8.12 C46.721,8.12 46.79,8.19 46.79,8.32 C46.79,8.68 45.81,10.65 45.81,11.74 C45.81,12.65 46.141,13.08 47.12,13.08 C48,13.08 49.32,12.109 50.29,11.08 C50.481,12.13 51.09,12.67 51.88,12.67 C52.46,12.67 53.221,12.25 53.76,10.75 C53.721,11 53.71,11.21 53.71,11.391 C53.71,12.45 54.17,12.75 54.9,12.75 C55.56,12.75 56.7,11.94 57.58,11.04 C57.76,12.109 58.38,12.67 59.18,12.67 C59.76,12.67 60.519,12.25 61.05,10.75 C61.019,11 61.01,11.21 61,11.391 C61,12.45 61.471,12.75 62.2,12.75 C62.891,12.75 64.1,11.87 65,10.91 C65.05,11.88 65.71,12.721 66.62,12.721 C67.01,12.721 67.12,12.67 67.29,12.5 C67.34,11.38 67.44,10.63 67.67,9.359 C68.32,8.471 68.87,8.221 69.019,8.221 C69.15,8.221 69.221,8.29 69.221,8.42 C69.221,8.79 68.37,10.45 68.37,11.54 C68.37,12.45 68.7,12.88 69.68,12.88 C71.21,12.88 74.019,10.09 74.019,9.05 C74.019,8.721 73.689,8.51 73.37,8.51 L73.37,8.51 Z" id="Fill-5" sketch:type="MSShapeGroup"></path>
	    </g>
	</g>
    </g>
</svg>