<svg width="140" height="150" viewBox="0 0 140 150" xmlns="http://www.w3.org/2000/svg">
  <g fill="none" fill-rule="evenodd">
    <path d="M23.887 42.409l23.195-11.6 12.563 9.989 11.597 6.443h19.652l2.899 9.404 9.987 9.925V77.4l7.409 10.53 8.698 3.445s-7.087 49.932-48 54.443c-40.913 4.51-64.107-31.57-66.04-42.846-1.933-11.275-1.611-48 18.04-60.563" fill="#FED83C"/>
    <path d="M87.614 50.45c-17.178 3.21-30.316-2.211-39.787-16.028-27.015 7.372-44.497 35.5-38.88 62.199 6.187 29.398 32.818 48.48 61.728 44.229 23.749-3.492 46.715-26.95 45.197-46.26-11.09-3.755-16.974-11.084-15.857-23.277.097-1.058-.651-2.638-1.52-3.27-5.952-4.323-9.41-10.161-10.881-17.592M0 86.95c.132-28.116 18.952-52.893 45.958-60.418 4.128-1.15 6.574-.457 8.904 3.565C61.638 41.794 74.84 46.35 87.664 42.02c6.599-2.228 7.42-1.653 7.717 5.299.295 6.903 3.504 12.129 9.588 15.277 3.538 1.832 4.698 3.81 3.434 7.885-2.574 8.3 2.29 15.66 11 16.348 4.979.392 5.64 2.554 5.236 6.775-2.84 29.674-28.33 54.103-58.092 55.506-31.812 1.5-59.714-20.022-65.091-50.293C.76 94.9.475 90.908 0 86.95M91.798 25.167c4.987.09 8.98-3.733 9.013-8.63.033-4.764-4.145-8.915-8.93-8.873-4.672.041-8.454 3.793-8.61 8.542-.169 5.09 3.428 8.87 8.527 8.961M91.796 0c9.705-.03 16.772 6.987 16.733 16.613-.037 9.295-7.167 16.455-16.444 16.512-9.454.06-16.828-7.293-16.788-16.737.04-9.263 7.184-16.36 16.5-16.388M132.525 56.7c-.026 4.439-3.185 7.526-7.594 7.422-4.331-.101-7.506-3.465-7.34-7.775.162-4.111 3.289-7.129 7.445-7.181 4.395-.054 7.515 3.085 7.489 7.534M139.743 30.809a5.166 5.166 0 11-10.333 0 5.167 5.167 0 1110.333 0" fill="#000"/>
    <path d="M103.41 16.416c0 6.35-5.147 11.496-11.496 11.496-6.35 0-11.496-5.147-11.496-11.496S85.563 4.92 91.913 4.92s11.496 5.147 11.496 11.496" fill="#FED83C"/>
    <g fill="#000" fill-rule="nonzero">
      <path d="M58.762 120.843a.75.75 0 01.286 1.47l-.1.019-11.727 1.462a.75.75 0 01-.285-1.47l.1-.019 11.726-1.462zM57.405 99.95c.38.005.69.29.736.657l.006.102-.12 11.477a.75.75 0 01-1.495.086l-.006-.102.121-11.477a.75.75 0 01.758-.742zM65.134 92.887a.75.75 0 01.95-.238l.095.057 8.803 6.199a.75.75 0 01-.769 1.283l-.095-.057-8.803-6.199a.75.75 0 01-.181-1.045zM76.564 81.834a.75.75 0 01.67.723l-.004.102-1.142 10.702a.75.75 0 01-1.495-.057l.004-.102L75.739 82.5a.75.75 0 01.723-.67l.102.004zM83.415 73.22a.75.75 0 01.953-.225l.095.058 9.617 6.987a.75.75 0 01-.788 1.272l-.094-.058-9.617-6.987a.75.75 0 01-.166-1.048zM94.164 90.656a.75.75 0 01.305 1.465l-.1.02-11.38 1.57a.75.75 0 01-.304-1.465l.1-.02 11.38-1.57zM75.783 109.208a.75.75 0 01.36 1.452l-.1.025-11.267 1.989a.75.75 0 01-.36-1.453l.099-.024 11.268-1.99zM65.956 124.202a.75.75 0 01.944-.26l.097.055 9.335 6.272a.75.75 0 01-.74 1.3l-.097-.055-9.335-6.272a.75.75 0 01-.204-1.04zM86.664 104.784a.75.75 0 01.715.679l.003.102-.483 11.477a.75.75 0 01-1.497.038l-.002-.102.483-11.477a.75.75 0 01.78-.717zM104.145 102.74a.75.75 0 01.349 1.455l-.1.023-10.751 1.812a.75.75 0 01-.349-1.455l.1-.024 10.751-1.812zM39.025 46.51a.75.75 0 01.95-.238l.095.057 8.578 6.04a.75.75 0 01-.768 1.284l-.095-.057-8.578-6.04a.75.75 0 01-.182-1.046zM31.366 53.806a.75.75 0 01.686.708l-.002.102-.966 11.477a.75.75 0 01-1.496-.024l.002-.102.966-11.477a.75.75 0 01.708-.686l.102.002zM49.435 63.113a.75.75 0 01.32 1.462l-.1.021-10.631 1.571a.75.75 0 01-.32-1.462l.1-.021 10.631-1.571zM66.326 55.451a.75.75 0 01.95-.24l.095.056 9.664 6.765a.75.75 0 01-.765 1.286l-.095-.057-9.664-6.765a.75.75 0 01-.185-1.045zM59.119 63.347a.75.75 0 01.716.678l.003.102-.467 11.416a.75.75 0 01-1.496.04l-.003-.101.467-11.416a.75.75 0 01.78-.719zM77.206 71.854a.75.75 0 01.368 1.451l-.1.025-11.728 2.135a.75.75 0 01-.368-1.45l.1-.026 11.728-2.135zM45.18 73.236a.75.75 0 01.947-.25l.096.055 9.665 6.625a.75.75 0 01-.752 1.293l-.096-.055-9.665-6.625a.75.75 0 01-.195-1.043zM29.844 75.076a.75.75 0 01.36 1.452l-.1.025-10.993 1.934a.75.75 0 01-.359-1.453l.1-.024 10.992-1.934zM18.635 85.213a.75.75 0 01.729.664l.004.102-.24 10.872a.75.75 0 01-1.496.069l-.004-.102.24-10.872a.75.75 0 01.767-.733zM37.497 81.106a.75.75 0 01.714.68l.002.102-.483 10.993a.75.75 0 01-1.496.036l-.002-.102.483-10.993a.75.75 0 01.782-.716zM56.19 89.934a.75.75 0 01.339 1.458l-.1.023-11.235 1.812a.75.75 0 01-.338-1.458l.1-.023 11.235-1.812zM34.543 103.549a.75.75 0 01.943-.266l.097.054 9.06 6a.75.75 0 01-.73 1.304l-.097-.054-9.061-5.999a.75.75 0 01-.212-1.04zM37.222 117.367a.75.75 0 01.744.648l.006.102v11.669a.75.75 0 01-1.493.102l-.007-.102v-11.67a.75.75 0 01.75-.75z"/>
    </g>
  </g>
</svg>
