<svg width="87" height="93" viewBox="0 0 87 93" xmlns="http://www.w3.org/2000/svg">
  <g fill-rule="nonzero" fill="none">
    <path d="M71.827 21.259c.798.797.827 9.786.087 26.966a5.198 5.198 0 01-1.516 3.454L33.445 88.632c-2.038 2.039-5.355 2.027-7.408-.026L4.48 67.048c-2.053-2.052-2.065-5.369-.027-7.407l36.953-36.953a5.198 5.198 0 013.455-1.516l4.032-.165 3.799-.138c12.09-.406 18.47-.276 19.135.39zM60 30a3 3 0 100 6 3 3 0 000-6z" fill="#8FC8E9"/>
    <path d="M38.766 21.085a9 9 0 015.945-2.626l4.609-.21c16.296-.712 21.723-.603 23.878 1.125l.138.118.133.125.125.132c1.776 1.986 1.96 6.99 1.315 22.307l-.046 1.072-.236 5.246a9 9 0 01-2.394 5.703L72 54.32 36.598 89.722a9 9 0 01-12.538.185l-.19-.185L3.364 69.216a9 9 0 01-.185-12.538l.185-.19 35.402-35.403zm2.829 2.829L6.192 59.316a5 5 0 00-.15 6.915l.15.156 20.506 20.506a5 5 0 006.915.15l.157-.15 35.402-35.402a5 5 0 001.46-3.303l.17-3.85c.59-13.898.535-21.196-.162-21.893-.64-.64-6.854-.738-18.642-.292l-3.25.13-3.85.172a5 5 0 00-3.123 1.287l-.18.172z" fill="#000"/>
    <path d="M55.05 28.05a7 7 0 109.9 9.9 7 7 0 00-9.9-9.9zm2.829 2.829a3 3 0 114.242 4.242 3 3 0 01-4.242-4.242z" fill="#000"/>
    <path d="M59.255 10.156c5.143-9.498 14.57-12.214 26.35-5.399a2 2 0 11-2.002 3.463c-9.822-5.682-16.756-3.684-20.831 3.84-3.377 6.236-3.868 15.411-1.515 19.477l.127.21a2 2 0 01-3.382 2.135c-3.344-5.294-2.823-16.2 1.253-23.726z" fill="#000"/>
  </g>
</svg>
