<?xml version="1.0" encoding="UTF-8" standalone="no"?>
<svg width="320px" height="96px" viewBox="0 0 320 96" version="1.1" xmlns="http://www.w3.org/2000/svg" xmlns:xlink="http://www.w3.org/1999/xlink" xmlns:sketch="http://www.bohemiancoding.com/sketch/ns">
    <!-- Generator: Sketch 3.2.2 (9983) - http://www.bohemiancoding.com/sketch -->
    <title>32px</title>
    <desc>Created with Sketch.</desc>
    <defs></defs>
    <g id="Page-1" stroke="none" stroke-width="1" fill="none" fill-rule="evenodd" sketch:type="MSPage">
        <g id="32px" sketch:type="MSLayerGroup" transform="translate(2.000000, 1.000000)">
            <g id="svg" transform="translate(8.000000, 0.000000)" sketch:type="MSShapeGroup">
                <rect id="Rectangle-path" fill="#000000" x="71" y="0" width="1" height="1"></rect>
                <rect id="Rectangle-path" fill="#000000" x="71" y="2" width="1" height="1"></rect>
                <rect id="Rectangle-path" fill="#000000" x="71" y="4" width="1" height="1"></rect>
                <rect id="Rectangle-path" fill="#000000" x="71" y="6" width="1" height="1"></rect>
                <rect id="Rectangle-path" fill="#000000" x="71" y="8" width="1" height="1"></rect>
                <rect id="Rectangle-path" fill="#000000" x="71" y="10" width="1" height="1"></rect>
                <rect id="Rectangle-path" fill="#000000" x="71" y="12" width="1" height="1"></rect>
                <rect id="Rectangle-path" fill="#000000" x="71" y="14" width="1" height="1"></rect>
                <rect id="Rectangle-path" fill="#000000" x="71" y="16" width="1" height="1"></rect>
                <rect id="Rectangle-path" fill="#000000" x="73" y="16" width="1" height="1"></rect>
                <rect id="Rectangle-path" fill="#000000" x="75" y="16" width="1" height="1"></rect>
                <rect id="Rectangle-path" fill="#000000" x="77" y="16" width="1" height="1"></rect>
                <rect id="Rectangle-path" fill="#000000" x="79" y="16" width="1" height="1"></rect>
                <rect id="Rectangle-path" fill="#000000" x="81" y="16" width="1" height="1"></rect>
                <rect id="Rectangle-path" fill="#000000" x="83" y="16" width="1" height="1"></rect>
                <rect id="Rectangle-path" fill="#000000" x="85" y="16" width="1" height="1"></rect>
                <rect id="Rectangle-path" fill="#000000" x="103" y="0" width="1" height="1"></rect>
                <rect id="Rectangle-path" fill="#000000" x="103" y="2" width="1" height="1"></rect>
                <rect id="Rectangle-path" fill="#000000" x="103" y="4" width="1" height="1"></rect>
                <rect id="Rectangle-path" fill="#000000" x="103" y="6" width="1" height="1"></rect>
                <rect id="Rectangle-path" fill="#000000" x="103" y="8" width="1" height="1"></rect>
                <rect id="Rectangle-path" fill="#000000" x="103" y="10" width="1" height="1"></rect>
                <rect id="Rectangle-path" fill="#000000" x="111" y="16" width="1" height="1"></rect>
                <rect id="Rectangle-path" fill="#000000" x="109" y="16" width="1" height="1"></rect>
                <rect id="Rectangle-path" fill="#000000" x="113" y="16" width="1" height="1"></rect>
                <rect id="Rectangle-path" fill="#000000" x="115" y="16" width="1" height="1"></rect>
                <rect id="Rectangle-path" fill="#000000" x="117" y="16" width="1" height="1"></rect>
                <rect id="Rectangle-path" fill="#000000" x="135" y="0" width="1" height="1"></rect>
                <rect id="Rectangle-path" fill="#000000" x="135" y="2" width="1" height="1"></rect>
                <rect id="Rectangle-path" fill="#000000" x="135" y="4" width="1" height="1"></rect>
                <rect id="Rectangle-path" fill="#000000" x="135" y="6" width="1" height="1"></rect>
                <rect id="Rectangle-path" fill="#000000" x="135" y="8" width="1" height="1"></rect>
                <rect id="Rectangle-path" fill="#000000" x="135" y="10" width="1" height="1"></rect>
                <rect id="Rectangle-path" fill="#000000" x="141" y="16" width="1" height="1"></rect>
                <rect id="Rectangle-path" fill="#000000" x="143" y="16" width="1" height="1"></rect>
                <rect id="Rectangle-path" fill="#000000" x="145" y="16" width="1" height="1"></rect>
                <rect id="Rectangle-path" fill="#000000" x="147" y="16" width="1" height="1"></rect>
                <rect id="Rectangle-path" fill="#000000" x="149" y="16" width="1" height="1"></rect>
                <rect id="Rectangle-path" fill="#000000" x="295" y="2" width="1" height="1"></rect>
                <rect id="Rectangle-path" fill="#000000" x="295" y="0" width="1" height="1"></rect>
                <rect id="Rectangle-path" fill="#000000" x="295" y="4" width="1" height="1"></rect>
                <rect id="Rectangle-path" fill="#000000" x="295" y="6" width="1" height="1"></rect>
                <rect id="Rectangle-path" fill="#000000" x="295" y="8" width="1" height="1"></rect>
                <rect id="Rectangle-path" fill="#000000" x="295" y="10" width="1" height="1"></rect>
                <rect id="Rectangle-path" fill="#000000" x="295" y="12" width="1" height="1"></rect>
                <rect id="Rectangle-path" fill="#000000" x="295" y="14" width="1" height="1"></rect>
                <rect id="Rectangle-path" fill="#000000" x="295" y="16" width="1" height="1"></rect>
                <rect id="Rectangle-path" fill="#000000" x="295" y="18" width="1" height="1"></rect>
                <rect id="Rectangle-path" fill="#000000" x="295" y="20" width="1" height="1"></rect>
                <rect id="Rectangle-path" fill="#000000" x="295" y="22" width="1" height="1"></rect>
                <rect id="Rectangle-path" fill="#000000" x="295" y="24" width="1" height="1"></rect>
                <rect id="Rectangle-path" fill="#000000" x="295" y="26" width="1" height="1"></rect>
                <rect id="Rectangle-path" fill="#000000" x="295" y="28" width="1" height="1"></rect>
                <rect id="Rectangle-path" fill="#000000" x="295" y="30" width="1" height="1"></rect>
                <rect id="Rectangle-path" fill="#000000" x="295" y="32" width="1" height="1"></rect>
                <rect id="Rectangle-path" fill="#000000" x="295" y="34" width="1" height="1"></rect>
                <rect id="Rectangle-path" fill="#000000" x="295" y="36" width="1" height="1"></rect>
                <rect id="Rectangle-path" fill="#000000" x="295" y="38" width="1" height="1"></rect>
                <rect id="Rectangle-path" fill="#000000" x="295" y="40" width="1" height="1"></rect>
                <rect id="Rectangle-path" fill="#000000" x="295" y="42" width="1" height="1"></rect>
                <rect id="Rectangle-path" fill="#000000" x="295" y="44" width="1" height="1"></rect>
                <rect id="Rectangle-path" fill="#000000" x="295" y="46" width="1" height="1"></rect>
                <rect id="Rectangle-path" fill="#000000" x="295" y="48" width="1" height="1"></rect>
                <rect id="Rectangle-path" fill="#000000" x="295" y="50" width="1" height="1"></rect>
                <rect id="Rectangle-path" fill="#000000" x="295" y="52" width="1" height="1"></rect>
                <rect id="Rectangle-path" fill="#000000" x="295" y="54" width="1" height="1"></rect>
                <rect id="Rectangle-path" fill="#000000" x="295" y="56" width="1" height="1"></rect>
                <rect id="Rectangle-path" fill="#000000" x="295" y="58" width="1" height="1"></rect>
                <rect id="Rectangle-path" fill="#000000" x="295" y="60" width="1" height="1"></rect>
                <rect id="Rectangle-path" fill="#000000" x="295" y="62" width="1" height="1"></rect>
                <rect id="Rectangle-path" fill="#000000" x="295" y="64" width="1" height="1"></rect>
                <rect id="Rectangle-path" fill="#000000" x="295" y="66" width="1" height="1"></rect>
                <rect id="Rectangle-path" fill="#000000" x="295" y="68" width="1" height="1"></rect>
                <rect id="Rectangle-path" fill="#000000" x="295" y="70" width="1" height="1"></rect>
                <rect id="Rectangle-path" fill="#000000" x="295" y="72" width="1" height="1"></rect>
                <rect id="Rectangle-path" fill="#000000" x="295" y="74" width="1" height="1"></rect>
                <rect id="Rectangle-path" fill="#000000" x="295" y="76" width="1" height="1"></rect>
                <rect id="Rectangle-path" fill="#000000" x="295" y="78" width="1" height="1"></rect>
                <rect id="Rectangle-path" fill="#000000" x="295" y="80" width="1" height="1"></rect>
                <rect id="Rectangle-path" fill="#000000" x="295" y="82" width="1" height="1"></rect>
                <rect id="Rectangle-path" fill="#000000" x="295" y="84" width="1" height="1"></rect>
                <rect id="Rectangle-path" fill="#000000" x="295" y="86" width="1" height="1"></rect>
                <rect id="Rectangle-path" fill="#000000" x="295" y="88" width="1" height="1"></rect>
                <rect id="Rectangle-path" fill="#000000" x="295" y="90" width="1" height="1"></rect>
                <rect id="Rectangle-path" fill="#000000" x="295" y="92" width="1" height="1"></rect>
                <rect id="Rectangle-path" fill="#000000" x="295" y="94" width="1" height="1"></rect>
                <g id="arrowhead5" transform="translate(101.000000, 13.000000)" fill="#616161">
                    <path d="M5.7395,3.1945 L1.177,0.152833333 C1.048,0.0668333333 0.895375,0.0238333333 0.71875,0.0238333333 C0.542125,0.0238333333 0.389375,0.0668333333 0.260375,0.152833333 C0.131375,0.238833333 0.066875,0.340666667 0.066875,0.458333333 L0.066875,6.54166667 C0.066875,6.65933333 0.131375,6.76125 0.260375,6.84716667 C0.3895,6.93316667 0.54225,6.97625 0.71875,6.97625 C0.89525,6.97625 1.048,6.93316667 1.177,6.84716667 L5.7395,3.8055 C5.8685,3.71958333 5.933125,3.61766667 5.933125,3.5 C5.933125,3.38233333 5.8685,3.2805 5.7395,3.1945 L5.7395,3.1945 Z" id="Shape"></path>
                </g>
                <g id="arrowhead5" transform="translate(136.773554, 17.674498) rotate(-304.000000) translate(-136.773554, -17.674498) translate(133.773554, 14.174498)" fill="#000000">
                    <path d="M5.41722656,2.98458309 L1.11091134,0.142790353 C0.989154706,0.0624415828 0.845099614,0.0222671979 0.678392123,0.0222671979 C0.511684633,0.0222671979 0.367511559,0.0624415828 0.245754921,0.142790353 C0.123998282,0.223139123 0.0631199628,0.318280786 0.0631199628,0.428215344 L0.0631199628,6.11180081 C0.0631199628,6.22173537 0.123998282,6.31695489 0.245754921,6.39722581 C0.36762954,6.47757457 0.511802614,6.51782682 0.678392123,6.51782682 C0.844981633,6.51782682 0.989154706,6.47757457 1.11091134,6.39722581 L5.41722656,3.55543307 C5.5389832,3.47516216 5.5999795,3.37994264 5.5999795,3.27000808 C5.5999795,3.16007352 5.5389832,3.06493186 5.41722656,2.98458309 L5.41722656,2.98458309 Z" id="Shape"></path>
                </g>
                <g id="arrowhead5" transform="translate(4.500000, 11.000000)" fill="#000000">
                    <path d="M4.78291667,4.10721429 L0.980833333,0.1965 C0.873333333,0.0859285714 0.746145833,0.0306428571 0.598958333,0.0306428571 C0.451770833,0.0306428571 0.324479167,0.0859285714 0.216979167,0.1965 C0.109479167,0.307071429 0.0557291667,0.438 0.0557291667,0.589285714 L0.0557291667,8.41071429 C0.0557291667,8.562 0.109479167,8.69303571 0.216979167,8.8035 C0.324583333,8.91407143 0.451875,8.96946429 0.598958333,8.96946429 C0.746041667,8.96946429 0.873333333,8.91407143 0.980833333,8.8035 L4.78291667,4.89278571 C4.89041667,4.78232143 4.94427083,4.65128571 4.94427083,4.5 C4.94427083,4.34871429 4.89041667,4.21778571 4.78291667,4.10721429 L4.78291667,4.10721429 Z" id="Shape"></path>
                </g>
                <g id="arrowhead5" transform="translate(40.000000, 15.973675) rotate(-316.000000) translate(-40.000000, -15.973675) translate(37.500000, 11.473675)" fill="#000000">
                    <path d="M4.78291667,4.10721429 L0.980833333,0.1965 C0.873333333,0.0859285714 0.746145833,0.0306428571 0.598958333,0.0306428571 C0.451770833,0.0306428571 0.324479167,0.0859285714 0.216979167,0.1965 C0.109479167,0.307071429 0.0557291667,0.438 0.0557291667,0.589285714 L0.0557291667,8.41071429 C0.0557291667,8.562 0.109479167,8.69303571 0.216979167,8.8035 C0.324583333,8.91407143 0.451875,8.96946429 0.598958333,8.96946429 C0.746041667,8.96946429 0.873333333,8.91407143 0.980833333,8.8035 L4.78291667,4.89278571 C4.89041667,4.78232143 4.94427083,4.65128571 4.94427083,4.5 C4.94427083,4.34871429 4.89041667,4.21778571 4.78291667,4.10721429 L4.78291667,4.10721429 Z" id="Shape"></path>
                </g>
                <g id="remove11" transform="translate(34.000000, 73.000000)" fill="#D64949">
                    <path d="M9.43959184,6.5 L12.6170306,3.32256122 C12.8187959,3.12092857 12.9196122,2.87591837 12.9196122,2.58766327 C12.9196122,2.29940816 12.8186633,2.05453061 12.6170306,1.85276531 L11.1472347,0.382836735 C10.9454694,0.181071429 10.7005918,0.080255102 10.4124694,0.080255102 C10.1240816,0.080255102 9.87920408,0.181071429 9.67743878,0.382836735 L6.5,3.56027551 L3.32256122,0.382836735 C3.12092857,0.181071429 2.87591837,0.080255102 2.58766327,0.080255102 C2.29954082,0.080255102 2.05453061,0.181071429 1.85276531,0.382836735 L0.382836735,1.85276531 C0.181204082,2.05439796 0.080255102,2.29940816 0.080255102,2.58766327 C0.080255102,2.87591837 0.181071429,3.12079592 0.382836735,3.32256122 L3.56027551,6.5 L0.382836735,9.67743878 C0.181204082,9.87920408 0.080255102,10.1240816 0.080255102,10.4123367 C0.080255102,10.7005918 0.181071429,10.9454694 0.382836735,11.1472347 L1.85276531,12.6170306 C2.05453061,12.8187959 2.29954082,12.9196122 2.58766327,12.9196122 C2.87591837,12.9196122 3.12079592,12.8186633 3.32256122,12.6170306 L6.5,9.43959184 L9.67757143,12.6170306 C9.87933673,12.8187959 10.1240816,12.9196122 10.412602,12.9196122 C10.7007245,12.9196122 10.9457347,12.8186633 11.1473673,12.6170306 L12.6170306,11.1472347 C12.8187959,10.945602 12.9196122,10.7005918 12.9196122,10.4123367 C12.9196122,10.1240816 12.8187959,9.87920408 12.6170306,9.67743878 L9.43959184,6.5 L9.43959184,6.5 Z" id="Shape"></path>
                </g>
                <g id="correct8" transform="translate(1.000000, 72.294117)" fill="#B8E986">
                    <path d="M13.1988057,2.38438039 L12.0702872,0.81300245 C11.9154724,0.597292537 11.7272501,0.489508491 11.5060279,0.489508491 C11.2847038,0.489508491 11.0964816,0.597292537 10.9416668,0.81300245 L5.49809267,8.404403 L3.05843525,4.99573254 C2.90351858,4.78002263 2.71539821,4.67223858 2.49417598,4.67223858 C2.27285191,4.67223858 2.08473153,4.78002263 1.92981487,4.99573254 L0.801296338,6.56711048 C0.64637967,6.78282039 0.568972262,7.04476399 0.568972262,7.35294127 C0.568972262,7.66097672 0.64637967,7.92306214 0.801296338,8.13863023 L3.80521303,12.3213603 L4.93383341,13.8927383 C5.08864823,14.1084482 5.2767686,14.2162322 5.49809267,14.2162322 C5.7193149,14.2162322 5.90743527,14.1083064 6.06235194,13.8927383 L7.19097232,12.3213603 L13.1988057,3.95590014 C13.3536205,3.74019023 13.4311298,3.47824663 13.4311298,3.17006935 C13.4312316,2.86203389 13.3536205,2.6000903 13.1988057,2.38438039 L13.1988057,2.38438039 Z" id="Shape"></path>
                </g>
            </g>
        </g>
    </g>
</svg>