<?xml version="1.0" encoding="UTF-8" standalone="no"?>
<svg width="302px" height="95px" viewBox="0 0 302 95" version="1.1" xmlns="http://www.w3.org/2000/svg" xmlns:xlink="http://www.w3.org/1999/xlink" xmlns:sketch="http://www.bohemiancoding.com/sketch/ns">
    <!-- Generator: Sketch 3.2.2 (9983) - http://www.bohemiancoding.com/sketch -->
    <title>Artboard</title>
    <desc>Created with Sketch.</desc>
    <defs></defs>
    <g id="Page-1" stroke="none" stroke-width="1" fill="none" fill-rule="evenodd" sketch:type="MSPage">
	<g id="Artboard" sketch:type="MSArtboardGroup">
	    <g id="arrowhead5" sketch:type="MSLayerGroup" transform="translate(10.500000, 11.000000)" fill="#000000">
		<path d="M4.78291667,4.10721429 L0.980833333,0.1965 C0.873333333,0.0859285714 0.746145833,0.0306428571 0.598958333,0.0306428571 C0.451770833,0.0306428571 0.324479167,0.0859285714 0.216979167,0.1965 C0.109479167,0.307071429 0.0557291667,0.438 0.0557291667,0.589285714 L0.0557291667,8.41071429 C0.0557291667,8.562 0.109479167,8.69303571 0.216979167,8.8035 C0.324583333,8.91407143 0.451875,8.96946429 0.598958333,8.96946429 C0.746041667,8.96946429 0.873333333,8.91407143 0.980833333,8.8035 L4.78291667,4.89278571 C4.89041667,4.78232143 4.94427083,4.65128571 4.94427083,4.5 C4.94427083,4.34871429 4.89041667,4.21778571 4.78291667,4.10721429 L4.78291667,4.10721429 L4.78291667,4.10721429 Z" id="Shape" sketch:type="MSShapeGroup"></path>
	    </g>
	    <g id="arrowhead5" sketch:type="MSLayerGroup" transform="translate(46.000000, 15.973675) rotate(44.000000) translate(-46.000000, -15.973675) translate(43.500000, 11.473675)" fill="#000000">
		<path d="M4.78291667,4.10721429 L0.980833333,0.1965 C0.873333333,0.0859285714 0.746145833,0.0306428571 0.598958333,0.0306428571 C0.451770833,0.0306428571 0.324479167,0.0859285714 0.216979167,0.1965 C0.109479167,0.307071429 0.0557291667,0.438 0.0557291667,0.589285714 L0.0557291667,8.41071429 C0.0557291667,8.562 0.109479167,8.69303571 0.216979167,8.8035 C0.324583333,8.91407143 0.451875,8.96946429 0.598958333,8.96946429 C0.746041667,8.96946429 0.873333333,8.91407143 0.980833333,8.8035 L4.78291667,4.89278571 C4.89041667,4.78232143 4.94427083,4.65128571 4.94427083,4.5 C4.94427083,4.34871429 4.89041667,4.21778571 4.78291667,4.10721429 L4.78291667,4.10721429 L4.78291667,4.10721429 Z" id="Shape" sketch:type="MSShapeGroup"></path>
	    </g>
	    <g id="remove11" sketch:type="MSLayerGroup" transform="translate(40.000000, 73.000000)" fill="#D64949">
		<path d="M9.43959184,6.5 L12.6170306,3.32256122 C12.8187959,3.12092857 12.9196122,2.87591837 12.9196122,2.58766327 C12.9196122,2.29940816 12.8186633,2.05453061 12.6170306,1.85276531 L11.1472347,0.382836735 C10.9454694,0.181071429 10.7005918,0.080255102 10.4124694,0.080255102 C10.1240816,0.080255102 9.87920408,0.181071429 9.67743878,0.382836735 L6.5,3.56027551 L3.32256122,0.382836735 C3.12092857,0.181071429 2.87591837,0.080255102 2.58766327,0.080255102 C2.29954082,0.080255102 2.05453061,0.181071429 1.85276531,0.382836735 L0.382836735,1.85276531 C0.181204082,2.05439796 0.080255102,2.29940816 0.080255102,2.58766327 C0.080255102,2.87591837 0.181071429,3.12079592 0.382836735,3.32256122 L3.56027551,6.5 L0.382836735,9.67743878 C0.181204082,9.87920408 0.080255102,10.1240816 0.080255102,10.4123367 C0.080255102,10.7005918 0.181071429,10.9454694 0.382836735,11.1472347 L1.85276531,12.6170306 C2.05453061,12.8187959 2.29954082,12.9196122 2.58766327,12.9196122 C2.87591837,12.9196122 3.12079592,12.8186633 3.32256122,12.6170306 L6.5,9.43959184 L9.67757143,12.6170306 C9.87933673,12.8187959 10.1240816,12.9196122 10.412602,12.9196122 C10.7007245,12.9196122 10.9457347,12.8186633 11.1473673,12.6170306 L12.6170306,11.1472347 C12.8187959,10.945602 12.9196122,10.7005918 12.9196122,10.4123367 C12.9196122,10.1240816 12.8187959,9.87920408 12.6170306,9.67743878 L9.43959184,6.5 L9.43959184,6.5 Z" id="Shape" sketch:type="MSShapeGroup"></path>
	    </g>
	    <g id="correct8" sketch:type="MSLayerGroup" transform="translate(7.000000, 72.294117)" fill="#B8E986">
		<path d="M13.1988057,2.38438039 L12.0702872,0.81300245 C11.9154724,0.597292537 11.7272501,0.489508491 11.5060279,0.489508491 C11.2847038,0.489508491 11.0964816,0.597292537 10.9416668,0.81300245 L5.49809267,8.404403 L3.05843525,4.99573254 C2.90351858,4.78002263 2.71539821,4.67223858 2.49417598,4.67223858 C2.27285191,4.67223858 2.08473153,4.78002263 1.92981487,4.99573254 L0.801296338,6.56711048 C0.64637967,6.78282039 0.568972262,7.04476399 0.568972262,7.35294127 C0.568972262,7.66097672 0.64637967,7.92306214 0.801296338,8.13863023 L3.80521303,12.3213603 L4.93383341,13.8927383 C5.08864823,14.1084482 5.2767686,14.2162322 5.49809267,14.2162322 C5.7193149,14.2162322 5.90743527,14.1083064 6.06235194,13.8927383 L7.19097232,12.3213603 L13.1988057,3.95590014 C13.3536205,3.74019023 13.4311298,3.47824663 13.4311298,3.17006935 C13.4312316,2.86203389 13.3536205,2.6000903 13.1988057,2.38438039 L13.1988057,2.38438039 L13.1988057,2.38438039 Z" id="Shape" sketch:type="MSShapeGroup"></path>
	    </g>
	    <path d="M301.5,0.5 L301.5,94.6912918" id="Line" stroke="#CCCCCC" stroke-linecap="square" sketch:type="MSShapeGroup"></path>
	    <path d="M77.5,0.5 L77.5,16.5" id="Line" stroke="#CCCCCC" stroke-linecap="square" sketch:type="MSShapeGroup"></path>
	    <path d="M77.5,16.5 L91.5,16.5" id="Line" stroke="#CCCCCC" stroke-linecap="square" sketch:type="MSShapeGroup"></path>
	    <path d="M109.5,0.5 L109.5,9.5" id="Line" stroke="#CCCCCC" stroke-linecap="square" sketch:type="MSShapeGroup"></path>
	    <path d="M123.5,15.5 L115.5,15.5" id="Line" stroke="#CCCCCC" stroke-linecap="square" sketch:type="MSShapeGroup"></path>
	    <path d="M141.5,0.5 L141.5,9.5" id="Line" stroke="#CCCCCC" stroke-linecap="square" sketch:type="MSShapeGroup"></path>
	    <path d="M155.5,15.5 L147.5,15.5" id="Line" stroke="#CCCCCC" stroke-linecap="square" sketch:type="MSShapeGroup"></path>
	    <path d="M112.5,15.5 L106.5,15.5" id="Line" stroke="#AAAAAA" stroke-linecap="square" sketch:type="MSShapeGroup"></path>
	    <path d="M144.5,15.5 L138.5,15.5" id="Line" stroke="#AAAAAA" stroke-linecap="square" sketch:type="MSShapeGroup"></path>
	    <path d="M109.5,12.5 L109.5,18.5" id="Line" stroke="#AAAAAA" stroke-linecap="square" sketch:type="MSShapeGroup"></path>
	    <path d="M114.5,10.5 L114.5,20.5" id="Line" stroke="#A5A5A5" stroke-linecap="square" sketch:type="MSShapeGroup"></path>
	    <path d="M114.5,10.5 L104.5,10.5" id="Line" stroke="#A5A5A5" stroke-linecap="square" sketch:type="MSShapeGroup"></path>
	    <path d="M104.5,10.5 L104.5,20.5" id="Line" stroke="#A5A5A5" stroke-linecap="square" sketch:type="MSShapeGroup"></path>
	    <path d="M114.5,20.5 L104.5,20.5" id="Line" stroke="#A5A5A5" stroke-linecap="square" sketch:type="MSShapeGroup"></path>
	    <rect id="Rectangle-3" fill="#F6F7F9" sketch:type="MSShapeGroup" x="105" y="11" width="9" height="9"></rect>
	    <path d="M144.5,15.5 L138.5,15.5" id="Line-7" stroke="#AAAAAA" stroke-linecap="square" sketch:type="MSShapeGroup"></path>
	    <path d="M141.5,12.5 L141.5,18.5" id="Line-2" stroke="#AAAAAA" stroke-linecap="square" sketch:type="MSShapeGroup"></path>
	    <path d="M146.5,10.5 L146.5,20.5" id="Line-3" stroke="#A5A5A5" stroke-linecap="square" sketch:type="MSShapeGroup"></path>
	    <path d="M146.5,10.5 L136.5,10.5" id="Line-4" stroke="#A5A5A5" stroke-linecap="square" sketch:type="MSShapeGroup"></path>
	    <path d="M136.5,10.5 L136.5,20.5" id="Line-5" stroke="#A5A5A5" stroke-linecap="square" sketch:type="MSShapeGroup"></path>
	    <path d="M146.5,20.5 L136.5,20.5" id="Line-6" stroke="#A5A5A5" stroke-linecap="square" sketch:type="MSShapeGroup"></path>
	    <rect id="Rectangle-4" fill="#F6F7F9" sketch:type="MSShapeGroup" x="137" y="11" width="9" height="9"></rect>
	    <path d="M144.5,15.5 L138.5,15.5" id="Line" stroke="#A5A5A5" stroke-linecap="square" sketch:type="MSShapeGroup"></path>
	    <path d="M109.5,12.5 L109.5,18.5" id="Line" stroke="#A5A5A5" stroke-linecap="square" sketch:type="MSShapeGroup"></path>
	    <path d="M112.5,15.5 L106.5,15.5" id="Line" stroke="#A5A5A5" stroke-linecap="square" sketch:type="MSShapeGroup"></path>
	</g>
    </g>
</svg>