<svg aria-hidden="true" style="position: absolute; width: 0; height: 0; overflow: hidden;" version="1.1" xmlns="http://www.w3.org/2000/svg" xmlns:xlink="http://www.w3.org/1999/xlink">
<defs>
<symbol id="icon-blog" viewBox="0 0 32 32">
<path d="M13.281 21.441h-0.688c-0.229 0-0.453-0.005-0.672-0.016s-0.474-0.036-0.766-0.078c-0.146 0.167-0.464 0.448-0.953 0.844s-1.068 0.813-1.734 1.25c-0.667 0.438-1.37 0.833-2.109 1.188s-1.432 0.583-2.078 0.688h-0.031l-0.063 0.016c-0.042 0.010-0.083 0.016-0.125 0.016-0.208 0-0.38-0.073-0.516-0.219s-0.203-0.323-0.203-0.531c0-0.063 0.005-0.115 0.016-0.156s0.026-0.083 0.047-0.125h-0.031c0.25-0.417 0.599-1.057 1.047-1.922s0.672-1.661 0.672-2.391v-0.063c-0.854-0.438-1.604-0.979-2.25-1.625s-1.177-1.354-1.594-2.125c-0.417-0.771-0.729-1.583-0.938-2.438s-0.313-1.698-0.313-2.531c0-1.354 0.339-2.625 1.016-3.813s1.609-2.219 2.797-3.094c1.188-0.875 2.573-1.568 4.156-2.078s3.281-0.766 5.094-0.766c1.792 0 3.474 0.255 5.047 0.766s2.943 1.203 4.109 2.078c1.167 0.875 2.089 1.906 2.766 3.094s1.016 2.458 1.016 3.813c0.021 1.521-0.292 2.911-0.938 4.172s-1.542 2.339-2.688 3.234c-1.146 0.896-2.5 1.589-4.063 2.078s-3.24 0.734-5.031 0.734zM10.344 19.285l1.094 0.094c0.479 0.063 0.917 0.094 1.313 0.094h0.594c1.521 0 2.932-0.203 4.234-0.609s2.427-0.979 3.375-1.719c0.948-0.74 1.693-1.615 2.234-2.625s0.813-2.109 0.813-3.297c0-1.083-0.286-2.094-0.859-3.031s-1.349-1.755-2.328-2.453c-0.979-0.698-2.135-1.25-3.469-1.656s-2.76-0.609-4.281-0.609c-1.521 0-2.953 0.203-4.297 0.609s-2.521 0.958-3.531 1.656c-1.010 0.698-1.802 1.516-2.375 2.453s-0.859 1.948-0.859 3.031c0 1.292 0.323 2.594 0.969 3.906s1.656 2.323 3.031 3.031l1.094 0.563-0.094 1.219-0.063 0.547c-0.042 0.365-0.24 1.026-0.594 1.984 0.563-0.333 1.12-0.724 1.672-1.172s0.901-0.766 1.047-0.953l1.281-1.063zM32 19.285c0 1.458-0.354 2.745-1.063 3.859s-1.802 2.047-3.281 2.797c0 0.021 0 0.036 0 0.047s0 0.016 0 0.016c0 0.646 0.125 1.396 0.375 2.25s0.479 1.458 0.688 1.813c0.021 0.042 0.036 0.083 0.047 0.125s0.016 0.083 0.016 0.125c0 0.188-0.063 0.344-0.188 0.469s-0.281 0.188-0.469 0.188c-0.021 0-0.052 0-0.094 0s-0.063 0-0.063 0-0.031 0-0.031 0c-1.104-0.188-2.219-0.75-3.344-1.688s-1.802-1.552-2.031-1.844c-0.25 0.021-0.469 0.036-0.656 0.047s-0.385 0.016-0.594 0.016c-0.104 0-0.203 0-0.297 0s-0.193 0-0.297 0c-1.021 0-1.984-0.089-2.891-0.266s-1.755-0.438-2.547-0.781c-0.792-0.344-1.51-0.76-2.156-1.25s-1.219-1.036-1.719-1.641c0.042-0.042 0.589-0.063 1.641-0.063s1.464 0.010 1.234 0.031c0.854 0.667 1.802 1.161 2.844 1.484s2.24 0.484 3.594 0.484c0 0 0.203 0 0.609 0s0.714-0.021 0.922-0.063l1.063-0.156c0 0 0.193 0.26 0.578 0.781s1.068 1.135 2.047 1.844c-0.083-0.313-0.146-0.927-0.188-1.844s-0.063-1.375-0.063-1.375l0.969-0.469c1.188-0.604 2.042-1.307 2.563-2.109s0.781-1.745 0.781-2.828c0-0.875-0.151-1.635-0.453-2.281s-0.88-1.271-1.734-1.875c0.104-0.333 0.203-0.688 0.297-1.063s0.161-0.74 0.203-1.094c1.313 0.771 2.255 1.677 2.828 2.719s0.859 2.24 0.859 3.594z"></path>
</symbol>
<symbol id="icon-chevron-down" viewBox="0 0 32 32">
<path d="M0.683 9.335c0-0.194 0.035-0.381 0.104-0.561s0.173-0.339 0.312-0.478c0.277-0.277 0.61-0.416 0.997-0.416s0.72 0.139 0.997 0.416l13.154 13.154 12.822-12.863c0.277-0.277 0.616-0.416 1.018-0.416s0.741 0.139 1.018 0.416c0.277 0.277 0.416 0.616 0.416 1.018s-0.139 0.741-0.416 1.018l-13.861 13.819c-0.277 0.277-0.61 0.416-0.997 0.416s-0.72-0.139-0.997-0.416l-14.151-14.11c-0.139-0.139-0.242-0.298-0.312-0.478s-0.104-0.353-0.104-0.52z"></path>
</symbol>
<symbol id="icon-chevron-left" viewBox="0 0 32 32">
<path d="M22.082 1.488c0.183 0 0.359 0.033 0.528 0.098s0.319 0.163 0.45 0.293c0.261 0.261 0.391 0.574 0.391 0.939s-0.13 0.678-0.391 0.939l-12.38 12.38 12.106 12.067c0.261 0.261 0.391 0.58 0.391 0.958s-0.13 0.698-0.391 0.958c-0.261 0.261-0.58 0.391-0.958 0.391s-0.698-0.13-0.958-0.391l-13.006-13.045c-0.261-0.261-0.391-0.574-0.391-0.939s0.13-0.678 0.391-0.939l13.28-13.319c0.13-0.13 0.28-0.228 0.45-0.293s0.332-0.098 0.489-0.098z"></path>
</symbol>
<symbol id="icon-chevron-right" viewBox="0 0 32 32">
<path d="M9.918 30.512c-0.183 0-0.359-0.033-0.528-0.098s-0.319-0.163-0.45-0.293c-0.261-0.261-0.391-0.574-0.391-0.939s0.13-0.678 0.391-0.939l12.38-12.38-12.106-12.067c-0.261-0.261-0.391-0.58-0.391-0.958s0.13-0.698 0.391-0.958c0.261-0.261 0.58-0.391 0.958-0.391s0.698 0.13 0.958 0.391l13.006 13.045c0.261 0.261 0.391 0.574 0.391 0.939s-0.13 0.678-0.391 0.939l-13.28 13.319c-0.13 0.13-0.28 0.228-0.45 0.293s-0.332 0.098-0.489 0.098z"></path>
</symbol>
<symbol id="icon-chevron-up" viewBox="0 0 32 32">
<path d="M30.512 22.082c0 0.183-0.033 0.359-0.098 0.528s-0.163 0.319-0.293 0.45c-0.261 0.261-0.574 0.391-0.939 0.391s-0.678-0.13-0.939-0.391l-12.38-12.38-12.067 12.106c-0.261 0.261-0.58 0.391-0.958 0.391s-0.698-0.13-0.958-0.391c-0.261-0.261-0.391-0.58-0.391-0.958s0.13-0.698 0.391-0.958l13.045-13.006c0.261-0.261 0.574-0.391 0.939-0.391s0.678 0.13 0.939 0.391l13.319 13.28c0.13 0.13 0.228 0.28 0.293 0.45s0.098 0.332 0.098 0.489z"></path>
</symbol>
<symbol id="icon-dashboard" viewBox="0 0 32 32">
<path d="M8.895 9.684c0.257 0 0.479 0.094 0.666 0.281s0.281 0.41 0.281 0.666v18.947c0 0.257-0.094 0.479-0.281 0.666s-0.41 0.281-0.666 0.281h-6.632c-0.257 0-0.479-0.094-0.666-0.281s-0.281-0.41-0.281-0.666v-18.947c0-0.257 0.094-0.479 0.281-0.666s0.41-0.281 0.666-0.281h6.632zM7.947 28.632v-17.053h-4.737v17.053h4.737zM19.316 15.309c0.257 0 0.479 0.094 0.666 0.281s0.281 0.41 0.281 0.666v13.322c0 0.257-0.094 0.479-0.281 0.666s-0.41 0.281-0.666 0.281h-6.632c-0.276 0-0.503-0.094-0.681-0.281s-0.266-0.41-0.266-0.666v-13.322c0-0.257 0.089-0.479 0.266-0.666s0.405-0.281 0.681-0.281h6.632zM18.368 28.632v-11.428h-4.737v11.428h4.737zM29.737 0.211c0.257 0 0.479 0.094 0.666 0.281s0.281 0.41 0.281 0.666v28.421c0 0.257-0.094 0.479-0.281 0.666s-0.41 0.281-0.666 0.281h-6.632c-0.257 0-0.479-0.094-0.666-0.281s-0.281-0.41-0.281-0.666v-28.421c0-0.257 0.094-0.479 0.281-0.666s0.41-0.281 0.666-0.281h6.632zM28.789 28.632v-26.526h-4.737v26.526h4.737z"></path>
</symbol>
<symbol id="icon-forms" viewBox="0 0 32 32">
<path d="M25.339 28.632v-12.049l1.895-1.806v13.855c0 0.533-0.183 0.982-0.548 1.347s-0.814 0.548-1.347 0.548h-21.789c-0.513 0-0.957-0.183-1.332-0.548s-0.563-0.814-0.563-1.347v-23.684c0-0.513 0.188-0.957 0.563-1.332s0.819-0.563 1.332-0.563h15.188l0.059 0.059-1.924 1.836h-13.322v23.684h21.789zM30.52 1.424c0.493 0.474 0.863 0.957 1.11 1.451s0.38 1.007 0.4 1.539c0 0.513-0.118 1.026-0.355 1.539s-0.602 1.026-1.095 1.539c-0.217 0.237-0.997 1.016-2.339 2.339s-2.783 2.738-4.322 4.248c-1.539 1.51-2.956 2.906-4.248 4.189s-2.008 1.993-2.146 2.132c-0.059 0.039-0.113 0.079-0.163 0.118s-0.104 0.069-0.163 0.089c-0.237 0.059-0.72 0.207-1.451 0.444s-1.49 0.479-2.28 0.725c-0.789 0.247-1.49 0.474-2.102 0.681s-0.928 0.311-0.947 0.311c-0.039 0-0.079 0.005-0.118 0.015s-0.079 0.015-0.118 0.015c-0.099 0-0.197-0.020-0.296-0.059s-0.188-0.099-0.266-0.178c-0.099-0.099-0.168-0.222-0.207-0.37s-0.039-0.291 0-0.429c0-0.020 0.094-0.331 0.281-0.933s0.4-1.293 0.636-2.072c0.237-0.78 0.464-1.544 0.681-2.294s0.375-1.283 0.474-1.599c0.020-0.059 0.044-0.118 0.074-0.178s0.074-0.118 0.133-0.178l1.969-1.969c1.313-1.313 2.768-2.763 4.367-4.352s3.079-3.069 4.441-4.441c1.362-1.372 2.102-2.107 2.22-2.206 0.158-0.158 0.508-0.419 1.051-0.785s1.199-0.548 1.969-0.548c0.513 0 1.007 0.104 1.48 0.311s0.918 0.508 1.332 0.903zM29.217 6.161c0.316-0.316 0.548-0.617 0.696-0.903s0.222-0.558 0.222-0.814c-0.020-0.257-0.104-0.523-0.252-0.799s-0.37-0.553-0.666-0.829c-0.257-0.237-0.508-0.414-0.755-0.533s-0.498-0.178-0.755-0.178c-0.434 0-0.814 0.118-1.14 0.355s-0.508 0.375-0.548 0.414l-5.936 5.936c-1.47 1.47-2.882 2.877-4.234 4.219s-2.225 2.211-2.62 2.605c-0.138 0.493-0.34 1.189-0.607 2.087s-0.528 1.762-0.785 2.59c0.789-0.257 1.633-0.528 2.531-0.814s1.564-0.498 1.998-0.637l0.592-0.563c1.895-1.875 3.577-3.538 5.048-4.989s2.719-2.684 3.745-3.701c1.026-1.016 1.831-1.811 2.413-2.383s0.933-0.928 1.051-1.066z"></path>
</symbol>
<symbol id="icon-help" viewBox="0 0 32 32">
<path d="M16 0.211c2.092 0 4.061 0.395 5.906 1.184s3.454 1.87 4.826 3.242c1.372 1.372 2.452 2.98 3.242 4.826s1.184 3.814 1.184 5.906c0 2.092-0.395 4.061-1.184 5.906s-1.87 3.454-3.242 4.826c-1.372 1.372-2.98 2.452-4.826 3.242s-3.814 1.184-5.906 1.184c-2.092 0-4.061-0.395-5.906-1.184s-3.454-1.87-4.826-3.242c-1.372-1.372-2.452-2.98-3.242-4.826s-1.184-3.814-1.184-5.906c0-2.092 0.395-4.061 1.184-5.906s1.87-3.454 3.242-4.826c1.372-1.372 2.98-2.452 4.826-3.242s3.814-1.184 5.906-1.184zM19.789 2.668v6.158c0.572 0.336 1.090 0.735 1.554 1.199s0.863 0.982 1.199 1.554h6.158c-0.316-1.066-0.76-2.072-1.332-3.020s-1.243-1.801-2.013-2.561c-0.77-0.76-1.623-1.426-2.561-1.998s-1.939-1.016-3.005-1.332zM21.684 15.368c0-1.559-0.558-2.896-1.673-4.011s-2.452-1.673-4.012-1.673c-1.559 0-2.896 0.558-4.011 1.673s-1.673 2.452-1.673 4.011c0 1.579 0.558 2.921 1.673 4.026s2.452 1.658 4.011 1.658c1.559 0 2.896-0.553 4.011-1.658s1.673-2.447 1.673-4.026zM14.105 2.253v5.803c0.296-0.079 0.602-0.143 0.918-0.192s0.641-0.074 0.977-0.074c0.336 0 0.661 0.025 0.977 0.074s0.622 0.114 0.918 0.192v-5.803c-0.316-0.039-0.632-0.074-0.947-0.104s-0.632-0.044-0.947-0.044c-0.316 0-0.632 0.015-0.947 0.044s-0.632 0.064-0.947 0.104zM12.211 2.668c-1.066 0.316-2.067 0.76-3.005 1.332s-1.791 1.238-2.561 1.998c-0.77 0.76-1.441 1.613-2.013 2.561s-1.016 1.954-1.332 3.020h6.158c0.336-0.572 0.735-1.090 1.199-1.554s0.982-0.864 1.554-1.199v-6.158zM2.737 15.368c0 0.316 0.015 0.632 0.044 0.947s0.064 0.632 0.104 0.947h5.773c-0.059-0.296-0.114-0.602-0.163-0.918s-0.074-0.641-0.074-0.977c0-0.316 0.025-0.636 0.074-0.962s0.114-0.636 0.192-0.933h-5.803c-0.039 0.316-0.074 0.632-0.104 0.947s-0.044 0.632-0.044 0.947zM12.211 28.069v-6.158c-0.572-0.316-1.095-0.711-1.569-1.184s-0.868-0.997-1.184-1.569h-6.158c0.316 1.066 0.76 2.072 1.332 3.020s1.238 1.806 1.998 2.576c0.76 0.77 1.613 1.436 2.561 1.998s1.954 1.002 3.020 1.317zM17.895 28.484v-5.773c-0.296 0.079-0.602 0.138-0.918 0.178s-0.641 0.059-0.977 0.059c-0.336 0-0.661-0.020-0.977-0.059s-0.622-0.099-0.918-0.178v5.773c0.316 0.059 0.632 0.099 0.947 0.118s0.632 0.030 0.947 0.030c0.316 0 0.632-0.010 0.947-0.030s0.632-0.059 0.947-0.118zM19.789 28.069c1.066-0.316 2.072-0.755 3.020-1.317s1.801-1.229 2.561-1.998c0.76-0.77 1.426-1.628 1.998-2.576s1.016-1.954 1.332-3.020h-6.158c-0.336 0.572-0.735 1.095-1.199 1.569s-0.982 0.868-1.554 1.184v6.158zM23.342 17.263h5.773c0.039-0.316 0.074-0.632 0.104-0.947s0.044-0.632 0.044-0.947c0-0.316-0.015-0.632-0.044-0.947s-0.064-0.632-0.104-0.947h-5.803c0.079 0.296 0.143 0.607 0.192 0.933s0.074 0.646 0.074 0.962c0 0.336-0.025 0.661-0.074 0.977s-0.104 0.622-0.163 0.918z"></path>
</symbol>
<symbol id="icon-logout" viewBox="0 0 32 32">
<path d="M4.244 16.577l3.512 3.482c0.179 0.198 0.268 0.427 0.268 0.685s-0.089 0.486-0.268 0.685c-0.099 0.079-0.208 0.144-0.327 0.193s-0.238 0.074-0.357 0.074c-0.119 0-0.238-0.025-0.357-0.074s-0.228-0.114-0.327-0.193l-5.625-5.774 5.625-5.774c0.198-0.198 0.427-0.298 0.685-0.298s0.486 0.099 0.685 0.298c0.179 0.179 0.268 0.402 0.268 0.67s-0.089 0.491-0.268 0.67l-3.452 3.452h16.429c0.278 0 0.506 0.089 0.685 0.268s0.268 0.407 0.268 0.685c0 0.258-0.089 0.481-0.268 0.67s-0.407 0.283-0.685 0.283h-16.488zM29.333 0.387c0.516 0 0.962 0.184 1.339 0.551s0.565 0.818 0.565 1.354v26.667c0 0.536-0.189 0.987-0.565 1.354s-0.823 0.551-1.339 0.551h-16.19c-0.536 0-0.987-0.184-1.354-0.551s-0.551-0.818-0.551-1.354v-8.601h1.905v7.44c0 0.317 0.114 0.59 0.342 0.818s0.501 0.342 0.818 0.342h13.869c0.317 0 0.585-0.114 0.804-0.342s0.327-0.501 0.327-0.818l-0.030-24.345c0-0.317-0.109-0.59-0.327-0.818s-0.486-0.342-0.804-0.342h-13.839c-0.317 0-0.59 0.114-0.818 0.342s-0.342 0.501-0.342 0.818v7.411h-1.905v-8.571c0-0.536 0.184-0.987 0.551-1.354s0.818-0.551 1.354-0.551h16.19z"></path>
</symbol>
<symbol id="icon-mail" viewBox="0 0 32 32">
<path d="M31.969 7.45c0.021 0.042 0.031 0.083 0.031 0.125v16.125c0 0.833-0.208 1.625-0.625 2.375s-1.042 1.125-1.875 1.125h-26c-0.833 0-1.625-0.375-2.375-1.125s-1.125-1.542-1.125-2.375v-16.125c0-0.042 0.010-0.083 0.031-0.125-0.042-0.146-0.042-0.286 0-0.422s0.115-0.266 0.219-0.391c0.021-0.021 0.042-0.047 0.063-0.078s0.052-0.057 0.094-0.078c0.313-0.417 0.755-0.734 1.328-0.953s1.161-0.328 1.766-0.328h26c0.667 0 1.203 0.141 1.609 0.422s0.672 0.703 0.797 1.266c0.042 0.083 0.068 0.172 0.078 0.266s0.005 0.193-0.016 0.297zM3.031 7.2c-0.167 0-0.333 0.010-0.5 0.031l13.469 10.75 13.5-10.781h-26.469zM29.5 25.2c0.271 0 0.422-0.182 0.453-0.547s0.047-0.682 0.047-0.953v-14.313l-13.344 10.656c-0.104 0.083-0.208 0.146-0.313 0.188s-0.219 0.063-0.344 0.063c-0.125 0-0.24-0.021-0.344-0.063s-0.208-0.104-0.313-0.188l-13.344-10.656v14.313c0 0.271 0.182 0.589 0.547 0.953s0.682 0.547 0.953 0.547h26z"></path>
</symbol>
<symbol id="icon-media" viewBox="0 0 32 32">
<path d="M29 7.222c1 0 1.75 0.375 2.25 1.125s0.75 1.375 0.75 1.875v16.031c0 0.792-0.328 1.484-0.984 2.078s-1.307 0.891-1.953 0.891h-26.281c-0.646 0-1.271-0.292-1.875-0.875s-0.906-1.292-0.906-2.125v-16.031c0-0.979 0.375-1.719 1.125-2.219s1.375-0.75 1.875-0.75h4.594l2.406-4h12l2.406 4h4.594zM30 26.253v-16.031c0-0.042-0.078-0.219-0.234-0.531s-0.411-0.469-0.766-0.469h-5.719l-0.563-0.969-1.781-3.031h-9.813l-2.406 4h-5.719c-0.083 0-0.271 0.083-0.563 0.25s-0.438 0.406-0.438 0.719v16.031c0 0.271 0.104 0.505 0.313 0.703s0.375 0.297 0.5 0.297h26.25c0.146-0.021 0.339-0.141 0.578-0.359s0.359-0.422 0.359-0.609zM16 10.222c0.958 0 1.865 0.182 2.719 0.547s1.599 0.865 2.234 1.5c0.635 0.635 1.135 1.38 1.5 2.234s0.547 1.76 0.547 2.719c0 0.958-0.182 1.865-0.547 2.719s-0.865 1.599-1.5 2.234c-0.635 0.635-1.38 1.135-2.234 1.5s-1.76 0.547-2.719 0.547c-0.958 0-1.865-0.182-2.719-0.547s-1.599-0.865-2.234-1.5c-0.635-0.635-1.135-1.38-1.5-2.234s-0.547-1.76-0.547-2.719c0-0.958 0.182-1.865 0.547-2.719s0.865-1.599 1.5-2.234c0.635-0.635 1.38-1.135 2.234-1.5s1.76-0.547 2.719-0.547zM16 22.222c1.375 0 2.552-0.49 3.531-1.469s1.469-2.156 1.469-3.531c0-1.375-0.49-2.552-1.469-3.531s-2.156-1.469-3.531-1.469c-1.375 0-2.552 0.49-3.531 1.469s-1.469 2.156-1.469 3.531c0 1.375 0.49 2.552 1.469 3.531s2.156 1.469 3.531 1.469z"></path>
</symbol>
<symbol id="icon-menu" viewBox="0 0 32 32">
<path d="M3 14.222c0.271 0 0.505 0.099 0.703 0.297s0.297 0.432 0.297 0.703v2c0 0.271-0.099 0.505-0.297 0.703s-0.432 0.297-0.703 0.297h-2c-0.271 0-0.505-0.099-0.703-0.297s-0.297-0.432-0.297-0.703v-2c0-0.271 0.099-0.505 0.297-0.703s0.432-0.297 0.703-0.297h2zM31 15.222c0.271 0 0.505 0.099 0.703 0.297s0.297 0.432 0.297 0.703c0 0.271-0.099 0.505-0.297 0.703s-0.432 0.297-0.703 0.297h-21c-0.271 0-0.505-0.099-0.703-0.297s-0.297-0.432-0.297-0.703c0-0.271 0.099-0.505 0.297-0.703s0.432-0.297 0.703-0.297h21zM3 22.222c0.271 0 0.505 0.099 0.703 0.297s0.297 0.432 0.297 0.703v2c0 0.271-0.099 0.505-0.297 0.703s-0.432 0.297-0.703 0.297h-2c-0.271 0-0.505-0.099-0.703-0.297s-0.297-0.432-0.297-0.703v-2c0-0.271 0.099-0.505 0.297-0.703s0.432-0.297 0.703-0.297h2zM31 23.222c0.271 0 0.505 0.099 0.703 0.297s0.297 0.432 0.297 0.703c0 0.271-0.099 0.505-0.297 0.703s-0.432 0.297-0.703 0.297h-21c-0.271 0-0.505-0.099-0.703-0.297s-0.297-0.432-0.297-0.703c0-0.271 0.099-0.505 0.297-0.703s0.432-0.297 0.703-0.297h21zM3 6.222c0.271 0 0.505 0.099 0.703 0.297s0.297 0.432 0.297 0.703v2c0 0.271-0.099 0.505-0.297 0.703s-0.432 0.297-0.703 0.297h-2c-0.271 0-0.505-0.099-0.703-0.297s-0.297-0.432-0.297-0.703v-2c0-0.271 0.099-0.505 0.297-0.703s0.432-0.297 0.703-0.297h2zM10 9.222c-0.271 0-0.505-0.099-0.703-0.297s-0.297-0.432-0.297-0.703c0-0.271 0.099-0.505 0.297-0.703s0.432-0.297 0.703-0.297h21c0.271 0 0.505 0.099 0.703 0.297s0.297 0.432 0.297 0.703c0 0.271-0.099 0.505-0.297 0.703s-0.432 0.297-0.703 0.297h-21z"></path>
</symbol>
<symbol id="icon-pages" viewBox="0 0 32 32">
<path d="M1.493 9.151c-0.158-0.079-0.281-0.197-0.37-0.355s-0.133-0.326-0.133-0.503c0-0.178 0.049-0.34 0.148-0.489s0.227-0.261 0.385-0.34l14.211-7.135c0.138-0.079 0.281-0.118 0.429-0.118s0.291 0.039 0.429 0.118l14.063 7.135c0.158 0.079 0.281 0.192 0.37 0.34s0.133 0.311 0.133 0.489c0 0.178-0.044 0.345-0.133 0.503s-0.202 0.276-0.34 0.355l-14.24 7.668c-0.059 0.039-0.128 0.064-0.207 0.074s-0.158 0.015-0.237 0.015c-0.079 0-0.153-0.010-0.222-0.030s-0.143-0.039-0.222-0.059l-14.063-7.668zM16.148 2.224l-12.168 6.128 12.020 6.543 12.168-6.543-12.020-6.128zM30.477 14.421c0.158 0.079 0.286 0.197 0.385 0.355s0.148 0.316 0.148 0.474c0 0.178-0.044 0.345-0.133 0.503s-0.212 0.276-0.37 0.355l-14.211 7.668c-0.079 0.039-0.153 0.069-0.222 0.089s-0.143 0.030-0.222 0.030c-0.079 0-0.158-0.010-0.237-0.030s-0.158-0.049-0.237-0.089l-14.063-7.668c-0.138-0.079-0.252-0.197-0.34-0.355s-0.133-0.326-0.133-0.503c0-0.178 0.044-0.34 0.133-0.489s0.212-0.261 0.37-0.34l2.99-1.48 2.013 1.095-2.516 1.273 12.020 6.543 12.168-6.543-2.368-1.214 2.013-1.095 2.813 1.421zM30.477 21.053c0.158 0.079 0.286 0.197 0.385 0.355s0.148 0.316 0.148 0.474c0 0.178-0.044 0.345-0.133 0.503s-0.212 0.276-0.37 0.355l-14.211 7.668c-0.079 0.039-0.153 0.069-0.222 0.089s-0.143 0.030-0.222 0.030c-0.079 0-0.158-0.010-0.237-0.030s-0.158-0.049-0.237-0.089l-14.063-7.668c-0.138-0.079-0.252-0.197-0.34-0.355s-0.133-0.326-0.133-0.503c0-0.178 0.044-0.34 0.133-0.488s0.212-0.262 0.37-0.34l2.813-1.273 2.013 1.095-2.339 1.066 12.020 6.543 12.168-6.543-2.22-1.095 2.013-1.095 2.664 1.303z"></path>
</symbol>
<symbol id="icon-products" viewBox="0 0 32 32">
<path d="M29.026 0.27c0.553-0.158 1.046-0.069 1.48 0.266s0.651 0.78 0.651 1.332v23.033c0 0.474-0.158 0.913-0.474 1.317s-0.701 0.666-1.155 0.785l-12.523 3.405c-0.197 0.059-0.4 0.099-0.607 0.118s-0.39 0.030-0.548 0.030c-0.217 0-0.429-0.015-0.636-0.044s-0.39-0.064-0.548-0.104l-12.197-3.375c-0.454-0.138-0.839-0.41-1.155-0.814s-0.474-0.844-0.474-1.317v-23.033c0-0.553 0.217-0.997 0.651-1.332s0.928-0.424 1.48-0.266l12.197 3.375c0.158 0.039 0.38 0.059 0.666 0.059s0.508-0.020 0.666-0.059l12.523-3.375zM15.053 28.543v-23.003c-0.059 0-0.123-0.010-0.192-0.030s-0.133-0.030-0.192-0.030l-11.931-3.316v22.737c0 0.059 0.025 0.118 0.074 0.178s0.094 0.099 0.133 0.118l12.109 3.345zM29.263 24.901v-22.737l-12.257 3.316h-0.059v22.974l12.079-3.257c0.039-0.020 0.089-0.059 0.148-0.118s0.089-0.118 0.089-0.178zM19.849 11.046c-0.197 0-0.385-0.059-0.563-0.178s-0.296-0.286-0.355-0.503c-0.059-0.257-0.025-0.498 0.104-0.725s0.311-0.38 0.548-0.459l6.632-1.865c0.257-0.059 0.498-0.025 0.725 0.104s0.38 0.321 0.459 0.577c0.059 0.237 0.025 0.469-0.104 0.696s-0.311 0.38-0.548 0.459l-6.632 1.865c-0.039 0.020-0.084 0.030-0.133 0.030h-0.133zM19.849 16.73c-0.197 0-0.385-0.059-0.563-0.178s-0.296-0.286-0.355-0.503c-0.059-0.257-0.025-0.498 0.104-0.725s0.311-0.38 0.548-0.459l6.632-1.865c0.257-0.059 0.498-0.025 0.725 0.104s0.38 0.321 0.459 0.577c0.059 0.237 0.025 0.469-0.104 0.696s-0.311 0.38-0.548 0.459l-6.632 1.865c-0.039 0.020-0.084 0.030-0.133 0.030h-0.133zM19.849 22.414c-0.197 0-0.385-0.059-0.563-0.178s-0.296-0.286-0.355-0.503c-0.059-0.257-0.025-0.498 0.104-0.725s0.311-0.38 0.548-0.459l6.632-1.865c0.257-0.059 0.498-0.025 0.725 0.104s0.38 0.321 0.459 0.577c0.059 0.237 0.025 0.469-0.104 0.696s-0.311 0.38-0.548 0.459l-6.632 1.865c-0.039 0.020-0.084 0.030-0.133 0.030h-0.133zM12.536 9.181c0.237 0.079 0.419 0.232 0.548 0.459s0.163 0.469 0.104 0.725c-0.059 0.217-0.178 0.385-0.355 0.503s-0.365 0.178-0.563 0.178h-0.133c-0.049 0-0.094-0.010-0.133-0.030l-6.632-1.865c-0.237-0.079-0.419-0.232-0.548-0.459s-0.163-0.459-0.104-0.696c0.079-0.257 0.232-0.449 0.459-0.577s0.469-0.163 0.725-0.104l6.632 1.865zM12.536 14.865c0.237 0.079 0.419 0.232 0.548 0.459s0.163 0.469 0.104 0.725c-0.059 0.217-0.178 0.385-0.355 0.503s-0.365 0.178-0.563 0.178h-0.133c-0.049 0-0.094-0.010-0.133-0.030l-6.632-1.865c-0.237-0.079-0.419-0.232-0.548-0.459s-0.163-0.459-0.104-0.696c0.079-0.257 0.232-0.449 0.459-0.577s0.469-0.163 0.725-0.104l6.632 1.865zM12.536 20.549c0.237 0.079 0.419 0.232 0.548 0.459s0.163 0.469 0.104 0.725c-0.059 0.217-0.178 0.385-0.355 0.503s-0.365 0.178-0.563 0.178c-0.039 0-0.084 0-0.133 0s-0.094-0.010-0.133-0.030l-6.632-1.865c-0.237-0.079-0.419-0.232-0.548-0.459s-0.163-0.459-0.104-0.696c0.079-0.257 0.232-0.449 0.459-0.577s0.469-0.163 0.725-0.104l6.632 1.865z"></path>
</symbol>
<symbol id="icon-settings" viewBox="0 0 32 32">
<path d="M5.579 12.118c0.829 0.217 1.51 0.661 2.043 1.332s0.799 1.451 0.799 2.339c0 0.888-0.266 1.668-0.799 2.339s-1.214 1.115-2.043 1.332v10.539c0 0.257-0.094 0.479-0.281 0.666s-0.41 0.281-0.666 0.281c-0.257 0-0.479-0.094-0.666-0.281s-0.281-0.41-0.281-0.666v-10.539c-0.809-0.217-1.485-0.661-2.028-1.332s-0.814-1.451-0.814-2.339c0-0.888 0.271-1.668 0.814-2.339s1.219-1.115 2.028-1.332v-10.539c0-0.257 0.094-0.479 0.281-0.666s0.41-0.281 0.666-0.281c0.257 0 0.479 0.094 0.666 0.281s0.281 0.41 0.281 0.666v10.539zM4.632 17.684c0.533 0 0.982-0.188 1.347-0.563s0.548-0.819 0.548-1.332c0-0.513-0.183-0.957-0.548-1.332s-0.814-0.563-1.347-0.563c-0.533 0-0.982 0.188-1.347 0.563s-0.548 0.819-0.548 1.332c0 0.513 0.183 0.957 0.548 1.332s0.814 0.563 1.347 0.563zM16.947 17.803c0.829 0.217 1.51 0.661 2.043 1.332s0.799 1.451 0.799 2.339c0 0.888-0.266 1.668-0.799 2.339s-1.214 1.115-2.043 1.332v4.855c0 0.257-0.094 0.479-0.281 0.666s-0.41 0.281-0.666 0.281c-0.257 0-0.479-0.094-0.666-0.281s-0.281-0.41-0.281-0.666v-4.855c-0.809-0.217-1.485-0.661-2.028-1.332s-0.814-1.451-0.814-2.339c0-0.888 0.271-1.668 0.814-2.339s1.219-1.115 2.028-1.332v-16.224c0-0.257 0.094-0.479 0.281-0.666s0.41-0.281 0.666-0.281c0.257 0 0.479 0.094 0.666 0.281s0.281 0.41 0.281 0.666v16.224zM16 23.368c0.533 0 0.982-0.188 1.347-0.563s0.548-0.819 0.548-1.332c0-0.513-0.183-0.957-0.548-1.332s-0.814-0.563-1.347-0.563c-0.533 0-0.982 0.188-1.347 0.563s-0.548 0.819-0.548 1.332c0 0.513 0.183 0.957 0.548 1.332s0.814 0.563 1.347 0.563zM28.316 6.434c0.829 0.217 1.51 0.661 2.043 1.332s0.799 1.451 0.799 2.339c0 0.888-0.266 1.668-0.799 2.339s-1.214 1.115-2.043 1.332v16.224c0 0.257-0.094 0.479-0.281 0.666s-0.41 0.281-0.666 0.281c-0.257 0-0.479-0.094-0.666-0.281s-0.281-0.41-0.281-0.666v-16.224c-0.809-0.217-1.485-0.661-2.028-1.332s-0.814-1.451-0.814-2.339c0-0.888 0.271-1.668 0.814-2.339s1.219-1.115 2.028-1.332v-4.855c0-0.257 0.094-0.479 0.281-0.666s0.41-0.281 0.666-0.281c0.257 0 0.479 0.094 0.666 0.281s0.281 0.41 0.281 0.666v4.855zM27.368 12c0.533 0 0.982-0.188 1.347-0.563s0.548-0.819 0.548-1.332c0-0.513-0.183-0.957-0.548-1.332s-0.814-0.563-1.347-0.563c-0.533 0-0.982 0.188-1.347 0.563s-0.548 0.819-0.548 1.332c0 0.513 0.183 0.957 0.548 1.332s0.814 0.563 1.347 0.563z"></path>
</symbol>
<symbol id="icon-translation" viewBox="0 0 32 32">
<path d="M6.886 17.226l-0.026-0.065h3.772l-0.022 0.062c-0.345 0.985-0.935 1.904-1.754 2.729l-0.031 0.032-0.034-0.031c-0.862-0.794-1.504-1.712-1.906-2.727v0zM4.027 22.538l0.53 1.088c1.753-0.533 3.174-1.193 4.224-1.961l0.028-0.020 0.027 0.020c1.125 0.811 2.501 1.46 4.090 1.923l0.734-1.222c-1.481-0.373-2.755-0.903-3.788-1.576l-0.047-0.031 0.040-0.041c1.071-1.104 1.797-2.289 2.157-3.522l0.010-0.034h0.589v-1.111h-3.113v-1.485h-1.36v1.485h-3.911v1.111h1.25l0.009 0.035c0.14 0.489 0.412 1.075 0.811 1.739s0.897 1.29 1.482 1.857l0.041 0.040-0.046 0.033c-0.941 0.657-2.204 1.22-3.756 1.673v0zM21.76 11.509l1.425-4.018 1.386 4.018h-2.811zM22.599 5.443l-3.32 9.055h1.451l0.636-1.819h3.573l0.636 1.819h1.437l-3.307-9.055h-1.106zM30.502 16.157c0 0.345-0.28 0.625-0.624 0.625h-2.274v2.786c0 0.042-0.026 0.080-0.063 0.099-0.046 0.022-0.071 0.024-0.117-0.014l-3.456-2.871h-7.543c-0.344 0-0.624-0.28-0.624-0.625v-12.309c0-0.345 0.28-0.625 0.624-0.625h13.452c0.344 0 0.624 0.28 0.624 0.625v12.309zM29.878 1.726h-13.452c-1.169 0-2.121 0.951-2.121 2.122v12.309c0 1.171 0.952 2.122 2.121 2.122h7.003l3.039 2.524c0.288 0.239 0.653 0.371 1.027 0.371 0.234 0 0.469-0.053 0.682-0.152 0.561-0.263 0.926-0.835 0.926-1.454v-1.289h0.776c1.169 0 2.122-0.951 2.122-2.122v-12.309c0-1.171-0.953-2.122-2.122-2.122v0zM16.197 19.952v5.306c0 0.344-0.281 0.625-0.625 0.625h-7.366c-0.176 0-0.344 0.060-0.479 0.173l-3.244 2.695c-0.058 0.048-0.089 0.030-0.119 0.016-0.038-0.017-0.063-0.057-0.063-0.099v-2.036c0-0.414-0.335-0.748-0.748-0.748h-1.431c-0.345 0-0.625-0.281-0.625-0.625v-12.31c0-0.344 0.28-0.625 0.625-0.625h10.499v-1.497h-10.499c-1.17 0-2.122 0.952-2.122 2.122v12.31c0 1.17 0.952 2.122 2.122 2.122h0.681v1.288c0 0.62 0.363 1.191 0.924 1.454 0.215 0.101 0.445 0.153 0.683 0.153 0.373 0 0.738-0.132 1.027-0.371l3.039-2.524h7.096c1.17 0 2.122-0.952 2.122-2.122v-5.294h-1.268c-0.076 0-0.152-0.007-0.229-0.012v0z"></path>
</symbol>
<symbol id="icon-user" viewBox="0 0 32 32">
<path d="M16 2c-0.854 0-1.698 0.161-2.531 0.484s-1.583 0.734-2.25 1.234c-0.667 0.5-1.203 1.042-1.609 1.625s-0.609 1.135-0.609 1.656v5c0 0.979 0.245 2.229 0.734 3.75s1.255 2.698 2.297 3.531c0.271 0.208 0.474 0.474 0.609 0.797s0.182 0.661 0.141 1.016c-0.063 0.333-0.193 0.641-0.391 0.922s-0.453 0.495-0.766 0.641l-8.781 4.156c-0.125 0.042-0.297 0.141-0.516 0.297s-0.328 0.443-0.328 0.859v2.031l27.969-0.031v-1.938c0-0.542-0.13-0.88-0.391-1.016s-0.401-0.203-0.422-0.203l-8.719-4.125c-0.313-0.146-0.573-0.359-0.781-0.641s-0.333-0.599-0.375-0.953c-0.042-0.354 0.005-0.693 0.141-1.016s0.339-0.589 0.609-0.797c1.083-0.833 1.849-2.016 2.297-3.547s0.672-2.776 0.672-3.734v-5c0-0.542-0.208-1.104-0.625-1.688s-0.953-1.12-1.609-1.609c-0.656-0.49-1.406-0.896-2.25-1.219s-1.682-0.484-2.516-0.484zM16 0c1.104 0 2.193 0.208 3.266 0.625s2.031 0.958 2.875 1.625c0.844 0.667 1.531 1.417 2.063 2.25s0.797 1.667 0.797 2.5v5c0 0.604-0.063 1.302-0.188 2.094s-0.333 1.599-0.625 2.422c-0.292 0.823-0.677 1.615-1.156 2.375s-1.063 1.411-1.75 1.953l8.719 4.156c0 0 0.328 0.182 0.984 0.547s0.984 0.839 0.984 1.422v3.031c0 0.542-0.193 1.005-0.578 1.391s-0.849 0.578-1.391 0.578h-28c-0.563 0-1.036-0.193-1.422-0.578s-0.578-0.849-0.578-1.391v-3.031c0-0.542 0.333-1.005 1-1.391s1-0.578 1-0.578l8.781-4.156c-0.708-0.563-1.302-1.24-1.781-2.031s-0.87-1.599-1.172-2.422c-0.302-0.823-0.516-1.625-0.641-2.406s-0.188-1.443-0.188-1.984v-5c0-0.833 0.26-1.667 0.781-2.5s1.203-1.583 2.047-2.25c0.844-0.667 1.807-1.208 2.891-1.625s2.177-0.625 3.281-0.625z"></path>
</symbol>
</defs>
</svg>
