<?xml version="1.0" encoding="UTF-8" standalone="no"?>
<svg width="89px" height="12px" viewBox="0 0 89 12" version="1.1" xmlns="http://www.w3.org/2000/svg" xmlns:xlink="http://www.w3.org/1999/xlink" xmlns:sketch="http://www.bohemiancoding.com/sketch/ns">
    <!-- Generator: Sketch 3.2.2 (9983) - http://www.bohemiancoding.com/sketch -->
    <title>logo-thecrew</title>
    <desc>Created with Sketch.</desc>
    <defs></defs>
    <g id="Page-1" stroke="none" stroke-width="1" fill="none" fill-rule="evenodd" sketch:type="MSPage">
	<g id="icons" sketch:type="MSArtboardGroup" transform="translate(-41.000000, -35.000000)" fill="#464646">
	    <path d="M49.106,35.801 L49.106,37.677 L46.236,37.677 L46.236,46 L43.87,46 L43.87,37.677 L41,37.677 L41,35.801 L49.106,35.801 Z M61.5292854,46 L59.1492854,46 L59.1492854,41.688 L55.0052854,41.688 L55.0052854,46 L52.6252854,46 L52.6252854,35.801 L55.0052854,35.801 L55.0052854,40.064 L59.1492854,40.064 L59.1492854,35.801 L61.5292854,35.801 L61.5292854,46 Z M72.3145708,35.801 L72.3145708,37.621 L68.1285708,37.621 L68.1285708,40.001 L71.3345708,40.001 L71.3345708,41.751 L68.1285708,41.751 L68.1285708,44.18 L72.3145708,44.18 L72.3145708,46 L65.7485708,46 L65.7485708,35.801 L72.3145708,35.801 Z M88.2921417,43.361 C88.348142,43.361 88.4041414,43.3714999 88.4601417,43.3925 C88.516142,43.4135001 88.5698081,43.4496664 88.6211417,43.501 L89.5591417,44.488 C89.148473,45.0246694 88.6339781,45.4294986 88.0156417,45.7025 C87.3973053,45.9755014 86.6658126,46.112 85.8211417,46.112 C85.0464711,46.112 84.3523114,45.980168 83.7386417,45.7165 C83.124972,45.452832 82.6046438,45.0888357 82.1776417,44.6245 C81.7506396,44.1601643 81.4228095,43.6095032 81.1941417,42.9725 C80.9654739,42.3354968 80.8511417,41.6436704 80.8511417,40.897 C80.8511417,40.1363295 80.981807,39.4375032 81.2431417,38.8005 C81.5044763,38.1634968 81.8696393,37.6140023 82.3386417,37.152 C82.807644,36.6899977 83.3688051,36.330668 84.0221417,36.074 C84.6754783,35.8173321 85.3964711,35.689 86.1851417,35.689 C86.5678103,35.689 86.9283067,35.722833 87.2666417,35.7905 C87.6049767,35.858167 87.9211402,35.9514994 88.2151417,36.0705 C88.5091432,36.1895006 88.7798071,36.3318325 89.0271417,36.4975 C89.2744763,36.6631675 89.4938074,36.8463323 89.6851417,37.047 L88.8871417,38.118 C88.8358081,38.1833337 88.775142,38.2428331 88.7051417,38.2965 C88.6351413,38.3501669 88.5371423,38.377 88.4111417,38.377 C88.3271413,38.377 88.2478087,38.3583335 88.1731417,38.321 C88.0984746,38.2836665 88.0191421,38.2381669 87.9351417,38.1845 C87.8511413,38.1308331 87.7589755,38.0725003 87.6586417,38.0095 C87.5583079,37.9464997 87.439309,37.8881669 87.3016417,37.8345 C87.1639743,37.7808331 87.0029759,37.7353335 86.8186417,37.698 C86.6343074,37.6606665 86.4184763,37.642 86.1711417,37.642 C85.7418062,37.642 85.3498101,37.7178326 84.9951417,37.8695 C84.6404732,38.0211674 84.3359763,38.2381653 84.0816417,38.5205 C83.8273071,38.8028347 83.6289757,39.1446647 83.4866417,39.546 C83.3443076,39.9473353 83.2731417,40.3976642 83.2731417,40.897 C83.2731417,41.4196693 83.3443076,41.883998 83.4866417,42.29 C83.6289757,42.696002 83.8226405,43.0378319 84.0676417,43.3155 C84.3126429,43.5931681 84.5984734,43.8043326 84.9251417,43.949 C85.25181,44.0936674 85.6018065,44.166 85.9751417,44.166 C86.1898094,44.166 86.3858075,44.1555001 86.5631417,44.1345 C86.7404759,44.1134999 86.9049743,44.0773336 87.0566417,44.026 C87.2083091,43.9746664 87.3529743,43.9081671 87.4906417,43.8265 C87.628309,43.7448329 87.767141,43.6433339 87.9071417,43.522 C87.963142,43.4753331 88.023808,43.4368335 88.0891417,43.4065 C88.1544753,43.3761665 88.2221413,43.361 88.2921417,43.361 L88.2921417,43.361 Z M95.5424271,42.227 L95.5424271,46 L93.1764271,46 L93.1764271,35.801 L96.4944271,35.801 C97.2317641,35.801 97.8605912,35.8768326 98.3809271,36.0285 C98.901263,36.1801674 99.3259255,36.391332 99.6549271,36.662 C99.9839288,36.932668 100.223093,37.2523315 100.372427,37.621 C100.521761,37.9896685 100.596427,38.3909978 100.596427,38.825 C100.596427,39.156335 100.552094,39.4689985 100.463427,39.763 C100.37476,40.0570015 100.242928,40.3288321 100.067927,40.5785 C99.8929262,40.8281679 99.6782617,41.050999 99.4239271,41.247 C99.1695925,41.443001 98.8767621,41.6039994 98.5454271,41.73 C98.7040946,41.8093337 98.8522598,41.9073328 98.9899271,42.024 C99.1275945,42.1406672 99.2477599,42.2829992 99.3504271,42.451 L101.520427,46 L99.3784271,46 C98.9817585,46 98.6970946,45.8506682 98.5244271,45.552 L96.8304271,42.591 C96.7557601,42.4603327 96.6682609,42.3670003 96.5679271,42.311 C96.4675933,42.2549997 96.326428,42.227 96.1444271,42.227 L95.5424271,42.227 Z M95.5424271,40.596 L96.4944271,40.596 C96.8164287,40.596 97.0905926,40.5551671 97.3169271,40.4735 C97.5432616,40.3918329 97.7287597,40.2786674 97.8734271,40.134 C98.0180945,39.9893326 98.1230934,39.8201676 98.1884271,39.6265 C98.2537608,39.4328324 98.2864271,39.2240011 98.2864271,39 C98.2864271,38.5519978 98.1405952,38.2020013 97.8489271,37.95 C97.557259,37.6979987 97.1057635,37.572 96.4944271,37.572 L95.5424271,37.572 L95.5424271,40.596 Z M111.591713,35.801 L111.591713,37.621 L107.405713,37.621 L107.405713,40.001 L110.611713,40.001 L110.611713,41.751 L107.405713,41.751 L107.405713,44.18 L111.591713,44.18 L111.591713,46 L105.025713,46 L105.025713,35.801 L111.591713,35.801 Z M114.704998,35.801 L116.692998,35.801 C116.898332,35.801 117.069831,35.8476662 117.207498,35.941 C117.345165,36.0343338 117.434998,36.1579992 117.476998,36.312 L118.876998,41.632 C118.923665,41.8046675 118.970331,41.988999 119.016998,42.185 C119.063665,42.381001 119.098664,42.5863323 119.121998,42.801 C119.168665,42.5816656 119.219998,42.3751676 119.275998,42.1815 C119.331998,41.9878324 119.385664,41.8046675 119.436998,41.632 L121.088998,36.312 C121.130998,36.1813327 121.220831,36.0635005 121.358498,35.9585 C121.496165,35.8534995 121.662997,35.801 121.858998,35.801 L122.558998,35.801 C122.764332,35.801 122.933497,35.8464995 123.066498,35.9375 C123.199499,36.0285005 123.291664,36.1533325 123.342998,36.312 L124.980998,41.632 C125.032332,41.7953341 125.085998,41.9691657 125.141998,42.1535 C125.197998,42.3378343 125.246998,42.5349989 125.288998,42.745 C125.326331,42.5396656 125.364831,42.3436676 125.404498,42.157 C125.444165,41.9703324 125.484998,41.7953341 125.526998,41.632 L126.926998,36.312 C126.964331,36.176666 127.052997,36.0576672 127.192998,35.955 C127.332999,35.8523328 127.500997,35.801 127.696998,35.801 L129.558998,35.801 L126.408998,46 L124.266998,46 L122.348998,39.679 C122.316331,39.5809995 122.282498,39.4736673 122.247498,39.357 C122.212498,39.2403327 122.178665,39.1166673 122.145998,38.986 C122.113331,39.1166673 122.079498,39.2403327 122.044498,39.357 C122.009498,39.4736673 121.975665,39.5809995 121.942998,39.679 L119.996998,46 L117.854998,46 L114.704998,35.801 Z" id="THE-CREW-Logo" sketch:type="MSShapeGroup"></path>
	</g>
    </g>
</svg>