<svg version="1.1" xmlns="http://www.w3.org/2000/svg" x="0px" y="0px" width="24" height="24" viewBox="0 0 24 24" enable-background="new 0 0 24 24" xml:space="preserve">
    <path fill="#AAAAAA" d="M17.474 10.594L15.24 8.36a3.138 3.138 0 01-.925-2.234c0-.843.328-1.637.925-2.233a3.138 3.138 0 012.234-.926c.843 0 1.637.329 2.233.926.597.596.926 1.39.926 2.233 0 .844-.329 1.637-.926 2.234l-1.282 1.282-.951.952zm-8.07 8.07a3.138 3.138 0 01-2.234.925 3.138 3.138 0 01-2.233-.926 3.138 3.138 0 01-.926-2.233c0-.844.329-1.637.926-2.234a3.139 3.139 0 012.233-.925c.844 0 1.637.328 2.234.925l2.234 2.234-2.234 2.233zM4.011 6.125a3.163 3.163 0 013.16-3.159 3.163 3.163 0 013.158 3.16v1.246l-.97.97a3.095 3.095 0 01-2.189.899 3.119 3.119 0 01-3.115-3.116h-.044zm16.565 7.757l-2.48-2.48.124-.125-.031-.031 2.202-2.203A4.1 4.1 0 0021.6 6.126a4.1 4.1 0 00-1.209-2.917A4.1 4.1 0 0017.474 2a4.1 4.1 0 00-2.918 1.209l-.031-.031-2.576 2.575-.652.652v-.279A4.131 4.131 0 007.17 2a4.131 4.131 0 00-4.126 4.126H3V16.43a4.204 4.204 0 00.035.517l.007.043c.01.082.022.168.04.26.008.039.017.077.027.116l.017.067c.016.065.033.138.057.216.01.034.023.069.035.103l.018.051c.026.074.052.15.086.233l.039.084.013.028a4.02 4.02 0 00.163.323l.01.017a4.024 4.024 0 00.674.89 4.175 4.175 0 002.112 1.136 4.187 4.187 0 002.07-.101 4.17 4.17 0 00.75-.315 4.17 4.17 0 00.967-.72l2.326-2.326 2.011 2.01.473.467.013-.013c.733.6 1.634.9 2.534.9a3.977 3.977 0 002.821-1.162c1.456-1.455 1.546-3.788.262-5.354l.016-.017z" />
</svg>
