<?xml version="1.0" encoding="UTF-8" standalone="no"?>
<svg width="23px" height="18px" viewBox="0 0 23 18" version="1.1" xmlns="http://www.w3.org/2000/svg" xmlns:xlink="http://www.w3.org/1999/xlink" xmlns:sketch="http://www.bohemiancoding.com/sketch/ns">
    <!-- Generator: Sketch 3.2.2 (9983) - http://www.bohemiancoding.com/sketch -->
    <title>social-twitter</title>
    <desc>Created with Sketch.</desc>
    <defs></defs>
    <g id="Page-1" stroke="none" stroke-width="1" fill="none" fill-rule="evenodd" sketch:type="MSPage">
	<g id="icons" sketch:type="MSArtboardGroup" transform="translate(-109.000000, -117.000000)" fill="#9A9A9A">
	    <g id="Social" sketch:type="MSLayerGroup" transform="translate(41.000000, 117.000000)">
		<path d="M68,15.6807487 C70.0302198,16.9475936 72.4417582,17.6871658 75.0324176,17.6871658 C83.5505495,17.6871658 88.3620879,10.6850267 88.0725275,4.40481283 C88.9686813,3.77540107 89.7467033,2.98877005 90.3615385,2.09358289 C89.5384615,2.4486631 88.6543956,2.68877005 87.7263736,2.79625668 C88.6736264,2.24438503 89.4010989,1.36898396 89.7434066,0.326203209 C88.8571429,0.837967914 87.8752747,1.20962567 86.8302198,1.40962567 C85.993956,0.54171123 84.8016484,0 83.4818681,0 C80.5208791,0 78.343956,2.68930481 79.0126374,5.48235294 C75.1994505,5.29625668 71.8192308,3.51871658 69.5571429,0.817112299 C68.3549451,2.82406417 68.9335165,5.44973262 70.9769231,6.77807487 C70.2247253,6.75508021 69.517033,6.5540107 68.8983516,6.2197861 C68.8489011,8.28877005 70.3714286,10.2229947 72.578022,10.6545455 C71.9324176,10.8256684 71.2252747,10.8647059 70.5065934,10.731016 C71.0901099,12.5048128 72.7846154,13.7951872 74.7917582,13.8315508 C72.8631868,15.3032086 70.4340659,15.959893 68,15.6807487" id="Twitter" sketch:type="MSShapeGroup"></path>
	    </g>
	</g>
    </g>
</svg>