<?xml version="1.0" encoding="UTF-8" standalone="no"?>
<svg width="20px" height="18px" viewBox="0 0 20 18" version="1.1" xmlns="http://www.w3.org/2000/svg" xmlns:xlink="http://www.w3.org/1999/xlink" xmlns:sketch="http://www.bohemiancoding.com/sketch/ns">
    <!-- Generator: Sketch 3.2.2 (9983) - http://www.bohemiancoding.com/sketch -->
    <title>social-github</title>
    <desc>Created with Sketch.</desc>
    <defs></defs>
    <g id="Page-1" stroke="none" stroke-width="1" fill="none" fill-rule="evenodd" sketch:type="MSPage">
	<g id="icons" sketch:type="MSArtboardGroup" transform="translate(-151.000000, -117.000000)">
	    <path d="M160.999125,117 C155.753845,117 151.5,121.131378 151.5,126.228048 C151.5,130.305044 154.221784,133.763438 157.996823,134.983647 C158.472129,135.06862 158.645339,134.783678 158.645339,134.538956 C158.645339,134.320293 158.637174,133.739645 158.632509,132.969792 C155.99004,133.527213 155.432503,131.732587 155.432503,131.732587 C155.000353,130.666462 154.377498,130.382652 154.377498,130.382652 C153.514948,129.810502 154.442816,129.821832 154.442816,129.821832 C155.396344,129.886978 155.897894,130.772961 155.897894,130.772961 C156.745281,132.182943 158.121627,131.77564 158.662835,131.539416 C158.749148,130.943473 158.994674,130.536737 159.265861,130.306177 C157.156435,130.073351 154.938534,129.281405 154.938534,125.745403 C154.938534,124.738191 155.308865,123.913955 155.916557,123.269295 C155.818579,123.035903 155.492572,122.097236 156.009868,120.827176 C156.009868,120.827176 156.8071,120.579055 158.622011,121.773206 C159.379585,121.568139 160.192563,121.466171 161.000292,121.462206 C161.807437,121.466171 162.619832,121.568139 163.378572,121.773206 C165.192317,120.579055 165.988382,120.827176 165.988382,120.827176 C166.506845,122.097236 166.180837,123.035903 166.083443,123.269295 C166.692302,123.913955 167.059716,124.738191 167.059716,125.745403 C167.059716,129.290469 164.838316,130.070519 162.722475,130.298813 C163.063062,130.583755 163.366908,131.146841 163.366908,132.007899 C163.366908,133.241138 163.355244,134.236453 163.355244,134.538956 C163.355244,134.785944 163.526704,135.073152 164.008426,134.983081 C167.780549,133.760039 170.5,130.303911 170.5,126.228048 C170.5,121.131378 166.246155,117 160.999125,117" id="github" fill="#9A9A9A" sketch:type="MSShapeGroup"></path>
	    <g id="Social" sketch:type="MSLayerGroup" transform="translate(41.000000, 117.000000)"></g>
	</g>
    </g>
</svg>