<?xml version="1.0" encoding="UTF-8"?>
<svg width="20px" height="20px" viewBox="0 0 20 20" version="1.1" xmlns="http://www.w3.org/2000/svg" xmlns:xlink="http://www.w3.org/1999/xlink">
    <title>Assets/Logos/logo-cms-color</title>
    <g id="Page-1" stroke="none" stroke-width="1" fill="none" fill-rule="evenodd">
        <g id="Fill-1" fill="#FFFFFF">
            <path d="M15.5262264,9.2190566 L13.13,6.82273585 C12.4899057,6.18264151 12.1374528,5.33169811 12.1374528,4.42650943 C12.1374528,3.52141509 12.4899057,2.67037736 13.13,2.03037736 L13.1300943,2.03028302 C13.7700943,1.39028302 14.6210377,1.03773585 15.5262264,1.03773585 C16.4314151,1.03773585 17.2823585,1.39028302 17.9224528,2.03028302 C18.5625472,2.67037736 18.915,3.52132075 18.915,4.42650943 C18.915,5.33169811 18.5625472,6.18264151 17.9224528,6.82273585 L16.5472642,8.19801887 L16.5471698,8.19801887 L15.5262264,9.2190566 Z M6.86981132,17.8753774 C6.22981132,18.5154717 5.37877358,18.8680189 4.47358491,18.8680189 C3.56849057,18.8680189 2.71754717,18.5154717 2.07735849,17.875283 C1.43735849,17.2353774 1.08481132,16.3843396 1.08481132,15.4791509 C1.08481132,14.5740566 1.43735849,13.7230189 2.07745283,13.0829245 C2.71754717,12.4429245 3.56849057,12.0903774 4.47358491,12.0903774 C5.37877358,12.0903774 6.22981132,12.4429245 6.86981132,13.0830189 L9.26613208,15.4790566 L6.86981132,17.8753774 Z M1.08490566,4.42650943 C1.08490566,2.55801887 2.60509434,1.03773585 4.47367925,1.03773585 C6.34216981,1.03773585 7.86245283,2.55801887 7.86245283,4.42650943 L7.86245283,5.76358491 L6.82103774,6.805 C6.19160377,7.42632075 5.35886792,7.76820755 4.47367925,7.76820755 C2.63113208,7.76820755 1.13207547,6.26915094 1.13207547,4.42660377 L1.08490566,4.42660377 L1.08490566,4.42650943 Z M18.8542453,12.7472642 L16.1932075,10.0862264 L16.3266981,9.95283019 L16.2933962,9.9195283 L18.6562264,7.55650943 C19.4923585,6.7204717 19.9527358,5.60886792 19.9527358,4.42650943 C19.9527358,3.24424528 19.4923585,2.13254717 18.6562264,1.29650943 C17.8201887,0.460471698 16.7085849,1.59872116e-14 15.5262264,1.59872116e-14 C14.3438679,1.59872116e-14 13.2322642,0.460471698 12.3962264,1.29650943 L12.3962264,1.29650943 L12.3628302,1.26320755 L9.59962264,4.02641509 L8.90018868,4.72584906 L8.90018868,4.42650943 C8.90018868,1.98575472 6.91443396,1.59872116e-14 4.47367925,1.59872116e-14 C2.03292453,1.59872116e-14 0.0471698113,1.98575472 0.0471698113,4.42650943 L0.0471698113,4.42660377 L1.86517468e-13,4.42660377 L1.86517468e-13,15.4790566 C1.86517468e-13,15.6228302 0.00764150943,15.7724528 0.0226415094,15.9232075 C0.0263207547,15.960566 0.0318867925,15.9972642 0.0377358491,16.0338679 L0.0446226415,16.080283 C0.0562264151,16.1685849 0.0682075472,16.2599057 0.0879245283,16.3588679 C0.0963207547,16.4008491 0.106698113,16.4419811 0.117358491,16.4831132 L0.135283019,16.555566 C0.151886792,16.6250943 0.170660377,16.7039623 0.195849057,16.7866038 C0.207358491,16.8240566 0.220471698,16.8609434 0.233867925,16.8977358 L0.253396226,16.9528302 C0.280660377,17.0317925 0.308773585,17.1135849 0.345566038,17.2019811 C0.358490566,17.2327358 0.372735849,17.2628302 0.387075472,17.2927358 L0.400943396,17.3218868 C0.440754717,17.4100943 0.483867925,17.5042453 0.53490566,17.5988679 C0.547830189,17.6229245 0.561792453,17.6462264 0.575943396,17.669434 L0.586415094,17.6867925 C0.638301887,17.7781132 0.695377358,17.8762264 0.762169811,17.9750943 C0.773867925,17.9923585 0.786132075,18.0090566 0.798867925,18.0254717 C0.960188679,18.2579245 1.12754717,18.4598113 1.31018868,18.6423585 C1.60254717,18.9348113 1.93858491,19.1870755 2.31132075,19.3933962 C2.32198113,19.3999057 2.33301887,19.4062264 2.34528302,19.4130189 C2.45301887,19.4711321 2.56754717,19.5264151 2.69339623,19.5808491 C2.70726415,19.5875472 2.72122642,19.5941509 2.73962264,19.6019811 C2.84933962,19.6481132 2.96726415,19.6913208 3.09896226,19.7338679 C3.11622642,19.7401887 3.13339623,19.7463208 3.15160377,19.7518868 C3.27433962,19.7898113 3.4045283,19.8233962 3.54009434,19.8522642 C3.55301887,19.855566 3.56566038,19.8584906 3.57584906,19.860566 C3.87443396,19.9215094 4.17509434,19.951887 4.475,19.951887 C4.77339623,19.951887 5.07113208,19.9217925 5.36518868,19.8617925 C5.37830189,19.8592453 5.39113208,19.8563208 5.40433962,19.8530189 C5.54245283,19.8236792 5.67066038,19.790566 5.79509434,19.7519811 C5.81273585,19.7466038 5.83018868,19.7404717 5.84584906,19.7345283 C5.97933962,19.6915094 6.09773585,19.6482075 6.21066038,19.6007547 C6.22528302,19.594434 6.23943396,19.5878302 6.25028302,19.5824528 C6.37915094,19.5266981 6.49443396,19.4711321 6.59924528,19.4142453 C6.6104717,19.4083962 6.62150943,19.4019811 6.63311321,19.395 C7.00566038,19.189434 7.34339623,18.9362264 7.63707547,18.6424528 L10.1332075,16.1462264 L12.2904717,18.3033962 L12.7974528,18.8041509 L12.8119811,18.7895283 C13.5982075,19.4340566 14.564434,19.7559434 15.5301887,19.7559434 C16.6281132,19.7559434 17.7254717,19.3399057 18.5562264,18.5091509 C20.1175472,16.9477358 20.2139623,14.445 18.8366038,12.765 L18.8542453,12.7472642 Z"></path>
        </g>
    </g>
</svg>