<?xml version="1.0" encoding="UTF-8"?>
<svg width="400px" height="300px" viewBox="0 0 400 300" version="1.1" xmlns="http://www.w3.org/2000/svg" xmlns:xlink="http://www.w3.org/1999/xlink" style="background: #FFFFFF;">
    <title>placeholder</title>
    <desc></desc>
    <defs></defs>
    <g id="Page-1" stroke="none" stroke-width="1" fill="none" fill-rule="evenodd">
        <g id="placeholder" transform="translate(-0.500000, 0.000000)">
            <rect id="Rectangle-7" fill="#F8F8F8" x="0.5" y="0" width="400" height="300"></rect>
            <g id="Group" transform="translate(85.000000, 76.000000)" fill-rule="nonzero" fill="#A4A4A4">
                <path d="M0.487091613,141.256568 L230.502576,141.256568 C230.502576,142.988449 229.798999,144.503845 228.662452,145.640392 C227.525905,146.77694 225.956387,147.480516 224.278627,147.480516 L6.71104001,147.480516 C3.24727742,147.480516 0.487091613,144.666209 0.487091613,141.256568 Z" id="Shape"></path>
                <path d="M213.670854,13.800929 L213.670854,134.762013 L17.2646916,134.762013 L17.2646916,13.800929 C17.2646916,6.38631227 23.2721549,0.378849033 30.6867716,0.378849033 L200.248774,0.378849033 C207.663391,0.378849033 213.670854,6.38631227 213.670854,13.800929 Z M203.333688,127.07679 L203.333688,9.09237678 L27.6018581,9.09237678 L27.6018581,127.07679 L203.333688,127.07679 Z" id="Shape"></path>
            </g>
            <g id="Group" transform="translate(85.000000, 76.000000)" stroke="#A4A4A4" stroke-width="3">
                <circle id="Oval" cx="42.5393342" cy="20.2954839" r="4.22146065"></circle>
                <circle id="Oval" cx="54.9331097" cy="20.2954839" r="4.22146065"></circle>
                <circle id="Oval" cx="67.5974917" cy="20.2954839" r="4.22146065"></circle>
                <path d="M17.2646916,134.762013 L17.2646916,13.800929 C17.2646916,6.38631227 23.2721549,0.378849033 30.6867716,0.378849033 L200.248774,0.378849033 C207.663391,0.378849033 213.670854,6.38631227 213.670854,13.800929 L213.670854,134.762013" id="Shape"></path>
                <rect id="Rectangle-path" x="27.6018581" y="9.14649808" width="175.73183" height="117.984413"></rect>
                <polygon id="Shape" points="194.836645 77.1228388 194.836645 121.827025 124.262483 121.827025 84.7539407 121.827025 35.5035665 121.827025 35.5035665 77.1228388 35.5035665 32.4727742 72.8472569 32.4727742 159.495443 32.4727742 194.836645 32.4727742"></polygon>
                <polyline id="Shape" points="35.5035665 77.1228388 72.8472569 77.1228388 84.7539407 77.1228388 124.262483 77.1228388 159.495443 77.1228388 194.836645 77.1228388"></polyline>
                <path d="M72.8472569,32.4727742 L72.8472569,77.1228388" id="Shape"></path>
                <path d="M159.495443,32.4727742 L159.495443,77.1228388" id="Shape"></path>
                <path d="M84.7539407,77.1228388 L84.7539407,121.827025" id="Shape"></path>
                <path d="M124.262483,77.1228388 L124.262483,121.827025" id="Shape"></path>
                <path d="M213.670854,134.762013 L227.850633,134.762013 C229.311907,134.762013 230.448454,135.952681 230.448454,137.359835 L230.448454,140.985961 L0.432970323,140.985961 L0.432970323,137.359835 C0.432970323,135.89856 1.62363871,134.762013 3.03079226,134.762013 L17.2105703,134.762013 L213.670854,134.762013 Z" id="Shape"></path>
                <path d="M224.224506,147.480516 L6.65691872,147.480516 C3.19315613,147.480516 0.432970323,144.666209 0.432970323,141.256568 L230.448454,141.256568 C230.448454,142.988449 229.744878,144.503845 228.608331,145.640392 C227.525905,146.77694 225.956387,147.480516 224.224506,147.480516 Z" id="Shape"></path>
            </g>
        </g>
    </g>
</svg>
