<?xml version="1.0" encoding="UTF-8"?>
<svg width="400px" height="300px" viewBox="0 0 400 300" version="1.1" xmlns="http://www.w3.org/2000/svg" xmlns:xlink="http://www.w3.org/1999/xlink">
    <!-- Generator: Sketch 46.2 (44496) - http://www.bohemiancoding.com/sketch -->
    <title>Rectangle</title>
    <desc>Created with Sketch.</desc>
    <defs></defs>
    <g id="Page-1" stroke="none" stroke-width="1" fill="none" fill-rule="evenodd">
        <rect id="Rectangle" fill="#F8F8F8" x="0" y="0" width="400" height="300"></rect>
        <g id="desktop-icon" transform="translate(59.419344, 54.472960)">
            <g id="Group" transform="translate(4.000000, 8.000000)" fill-rule="nonzero" fill="#000000">
                <path d="M0.577101364,167.359396 L273.09719,167.359396 C273.09719,169.411312 272.263599,171.206738 270.917029,172.553308 C269.57046,173.899878 267.710911,174.733469 265.723117,174.733469 L7.95117435,174.733469 C3.84734243,174.733469 0.577101364,171.399105 0.577101364,167.359396 Z" id="Shape"></path>
                <path d="M253.155132,16.3512053 L253.155132,159.664711 L20.4550373,159.664711 L20.4550373,16.3512053 C20.4550373,7.56644011 27.5726207,0.448856617 36.357386,0.448856617 L237.252783,0.448856617 C246.037548,0.448856617 253.155132,7.56644011 253.155132,16.3512053 Z M240.907758,150.559334 L240.907758,10.7725588 L32.7024107,10.7725588 L32.7024107,150.559334 L240.907758,150.559334 Z" id="Shape"></path>
            </g>
            <g id="Group" transform="translate(4.000000, 8.000000)" stroke="#000000" stroke-width="3">
                <circle id="Oval" cx="50.4001858" cy="24.0458902" r="5.00154516"></circle>
                <circle id="Oval" cx="65.0842094" cy="24.0458902" r="5.00154516"></circle>
                <circle id="Oval" cx="80.0888449" cy="24.0458902" r="5.00154516"></circle>
                <path d="M20.4550373,159.664711 L20.4550373,16.3512053 C20.4550373,7.56644011 27.5726207,0.448856617 36.357386,0.448856617 L237.252783,0.448856617 C246.037548,0.448856617 253.155132,7.56644011 253.155132,16.3512053 L253.155132,159.664711" id="Shape"></path>
                <rect id="Rectangle-path" x="32.7024107" y="10.8366812" width="208.205348" height="139.786775"></rect>
                <polygon id="Shape" points="230.840546 91.3743827 230.840546 144.339463 147.22497 144.339463 100.415637 144.339463 42.0642772 144.339463 42.0642772 91.3743827 42.0642772 38.4734243 86.3087152 38.4734243 188.968636 38.4734243 230.840546 38.4734243"></polygon>
                <polyline id="Shape" points="42.0642772 91.3743827 86.3087152 91.3743827 100.415637 91.3743827 147.22497 91.3743827 188.968636 91.3743827 230.840546 91.3743827"></polyline>
                <path d="M86.3087152,38.4734243 L86.3087152,91.3743827" id="Shape"></path>
                <path d="M188.968636,38.4734243 L188.968636,91.3743827" id="Shape"></path>
                <path d="M100.415637,91.3743827 L100.415637,144.339463" id="Shape"></path>
                <path d="M147.22497,91.3743827 L147.22497,144.339463" id="Shape"></path>
                <path d="M253.155132,159.664711 L269.955194,159.664711 C271.686498,159.664711 273.033068,161.075403 273.033068,162.742585 L273.033068,167.038784 L0.512978991,167.038784 L0.512978991,162.742585 C0.512978991,161.011281 1.92367121,159.664711 3.59085293,159.664711 L20.3909149,159.664711 L253.155132,159.664711 Z" id="Shape"></path>
                <path d="M265.658995,174.733469 L7.88705198,174.733469 C3.78322006,174.733469 0.512978991,171.399105 0.512978991,167.359396 L273.033068,167.359396 C273.033068,169.411312 272.199477,171.206738 270.852907,172.553308 C269.57046,173.899878 267.710911,174.733469 265.658995,174.733469 Z" id="Shape"></path>
            </g>
            <rect id="Rectangle-2" fill="#A4A4A4" style="mix-blend-mode: lighten;" x="0.580656246" y="0.52704027" width="286" height="198"></rect>
        </g>
    </g>
</svg>