<?xml version="1.0" encoding="UTF-8"?>
<svg width="150px" height="150px" viewBox="0 0 150 150" version="1.1" xmlns="http://www.w3.org/2000/svg" xmlns:xlink="http://www.w3.org/1999/xlink">
    <!-- Generator: Sketch 42 (36781) - http://www.bohemiancoding.com/sketch -->
    <title>Slice</title>
    <desc>Created with Sketch.</desc>
    <defs></defs>
    <g id="Page-1" stroke="none" stroke-width="1" fill="none" fill-rule="evenodd">
        <g id="guy" transform="translate(29.000000, 6.000000)" fill-rule="nonzero" fill="#111111">
            <g id="Page-1">
                <g id="guys">
                    <path d="M48.405,46.813 C50.775,46.743 51.245,44.383 51.155,41.363 C51.065,38.343 50.455,36.023 48.085,36.093 C45.726,36.163 45.245,38.523 45.335,41.533 C45.425,44.553 46.035,46.883 48.405,46.813 Z M21.635,36.883 C19.266,36.953 18.795,39.313 18.875,42.323 C18.965,45.343 19.575,47.673 21.945,47.603 C24.315,47.533 24.785,45.173 24.695,42.153 C24.605,39.133 23.995,36.813 21.635,36.883 L21.635,36.883 Z M89.015,40.683 L89.004,40.753 C89.004,40.813 88.754,46.503 85.685,50.153 L85.025,50.163 C83.525,50.163 80.464,49.993 76.865,48.883 C76.425,48.553 75.435,47.653 75.235,46.783 C75.205,46.663 75.134,46.563 75.045,46.483 L69.585,42.353 C69.735,41.753 70.175,40.403 71.215,39.703 L74.816,41.483 C74.946,41.543 75.096,41.543 75.226,41.493 C75.366,41.443 75.476,41.333 75.526,41.193 L75.885,40.403 L76.165,39.813 L76.195,39.653 L76.815,31.183 C77.125,31.063 77.665,30.903 78.254,30.903 C78.714,30.903 79.124,31.003 79.475,31.203 L79.845,38.003 C79.855,38.263 80.055,38.473 80.315,38.493 L80.745,38.533 C81.005,38.573 81.245,38.373 81.295,38.113 L82.726,30.743 C82.955,30.693 83.326,30.623 83.726,30.623 C84.386,30.623 84.925,30.783 85.356,31.103 L84.646,38.733 C84.616,38.993 84.786,39.223 85.026,39.283 L85.385,39.383 C85.516,39.423 85.656,39.413 85.776,39.343 C85.896,39.273 85.986,39.153 86.026,39.023 L87.746,32.653 C88.307,32.583 89.506,32.553 90.347,33.313 L89.015,40.683 L89.015,40.683 Z M7.925,53.313 L7.316,32.513 C7.616,24.753 8.106,20.593 8.106,20.593 C8.106,20.593 10.126,22.663 16.326,22.783 C29.586,23.043 58.326,14.913 58.326,14.913 C60.056,18.883 61.236,23.473 62.036,27.883 L62.736,51.683 C63.096,64.003 54.146,70.523 36.126,71.083 C18.065,71.633 8.285,65.473 7.925,53.313 L7.925,53.313 Z M20.745,109.683 C20.315,110.043 19.695,110.173 19.315,110.213 L18.375,107.943 C18.285,107.723 18.056,107.593 17.825,107.623 C17.585,107.663 17.405,107.853 17.385,108.093 C17.156,110.393 17.295,113.443 17.365,114.703 C13.845,114.583 10.785,113.433 9.995,113.103 C8.315,108.413 9.596,104.463 9.965,103.503 C11.665,103.103 13.325,102.903 14.896,102.913 C16.866,102.913 18.156,103.243 18.596,103.373 C19.985,105.913 20.585,108.813 20.745,109.683 L20.745,109.683 Z M91.285,32.793 C89.775,31.093 87.265,31.673 87.225,31.683 C87.035,31.723 86.885,31.863 86.834,32.053 L86.024,35.053 L86.404,30.923 C86.424,30.763 86.364,30.603 86.244,30.493 C85.604,29.903 84.734,29.583 83.734,29.583 C82.844,29.583 82.133,29.823 82.104,29.833 C81.923,29.893 81.804,30.043 81.764,30.233 L80.743,35.513 L80.493,30.883 C80.483,30.733 80.413,30.583 80.283,30.493 C79.713,30.073 79.033,29.863 78.253,29.863 C77.104,29.863 76.134,30.333 76.094,30.353 C75.923,30.433 75.814,30.603 75.804,30.783 L75.173,39.493 L74.953,39.963 L74.793,40.313 L71.423,38.643 C71.274,38.573 71.094,38.573 70.944,38.653 C68.964,39.723 68.514,42.373 68.494,42.493 C68.464,42.683 68.544,42.873 68.694,42.993 L74.274,47.213 C74.704,48.563 76.164,49.663 76.314,49.763 C76.124,52.953 75.554,56.053 74.423,58.873 C73.224,61.873 71.383,64.563 68.873,66.713 C66.383,68.863 63.253,70.453 59.853,71.453 C58.153,71.953 56.382,72.313 54.593,72.543 C53.693,72.653 52.782,72.733 51.882,72.773 C51.353,72.803 50.813,72.813 50.282,72.813 C49.972,72.103 49.572,71.443 49.072,70.823 C61.682,67.183 64.492,58.823 64.282,51.633 L64.102,45.503 C73.022,32.883 66.822,12.623 64.782,8.253 C62.702,3.823 60.262,1.903 55.722,0.993 C40.871,-1.977 14.992,2.313 7.352,6.153 C3.232,8.223 0.291,13.063 0.412,27.513 C0.513,38.553 4.362,44.513 6.183,46.703 L6.372,53.353 C6.582,60.503 9.902,68.773 23.032,71.643 C22.872,71.883 22.722,72.133 22.593,72.393 C21.943,72.653 21.343,73.003 20.773,73.413 C20.093,73.923 19.493,74.483 18.943,75.083 C17.853,76.273 16.983,77.573 16.223,78.913 C14.723,81.603 13.832,84.323 12.843,87.123 C11.103,92.113 9.903,97.493 9.282,102.643 C9.212,102.693 9.152,102.753 9.112,102.833 C9.022,103.033 6.882,107.773 9.102,113.683 C9.152,113.813 9.251,113.923 9.372,113.973 C9.542,114.053 13.382,115.743 17.912,115.753 C18.202,115.753 18.442,115.523 18.442,115.233 L18.421,115.093 C18.392,114.613 18.262,112.543 18.291,110.463 L18.501,110.963 C18.581,111.153 18.772,111.283 18.981,111.283 C19.051,111.283 20.761,111.273 21.691,110.203 C21.791,110.093 21.831,109.943 21.811,109.783 C21.781,109.633 21.221,105.903 19.391,102.683 C19.341,102.603 18.761,102.543 18.681,102.493 C18.241,97.823 18.841,93.273 19.38,88.713 C19.7,86.103 19.99,83.343 20.721,80.923 C20.901,80.313 21.111,79.713 21.351,79.143 L20.141,97.393 C20.141,101.613 22.801,102.423 26.591,102.563 C26.431,104.013 26.28,105.473 26.141,106.933 C25.87,109.793 25.651,112.653 25.471,115.523 C25.181,120.303 25.031,125.103 25.011,129.913 C21.96,131.323 22.281,134.583 22.391,135.683 C22.411,135.833 22.551,135.943 22.701,135.943 L33.701,135.963 C33.851,135.963 33.981,135.843 34.001,135.703 C34.092,134.743 34.411,131.583 32.001,130.073 C31.491,125.263 31.131,120.423 30.911,115.563 C30.781,112.753 30.701,109.943 30.661,107.123 C30.651,105.613 30.641,104.093 30.661,102.583 L30.821,102.583 L41.751,102.603 L41.911,102.603 C41.921,104.113 41.911,105.633 41.891,107.143 C41.841,109.963 41.75,112.773 41.62,115.583 C41.38,120.453 40.99,125.313 40.471,130.133 C38.901,131.663 38.641,134.743 38.731,135.703 C38.741,135.853 38.88,135.973 39.031,135.973 L56.041,136.003 C56.191,136.003 56.331,135.883 56.352,135.743 C56.482,134.533 55.921,130.183 47.472,129.353 C47.451,124.743 47.312,120.143 47.052,115.553 C46.892,112.693 46.671,109.824 46.411,106.963 C46.281,105.503 46.131,104.053 45.972,102.593 C49.772,102.463 52.432,101.663 52.442,97.453 L51.202,77.613 C51.202,77.163 51.182,76.723 51.142,76.283 L51.751,76.353 C52.751,76.463 53.751,76.543 54.751,76.573 C56.762,76.643 58.791,76.563 60.831,76.302 C64.881,75.782 69.012,74.532 72.751,72.242 C76.491,69.982 79.722,66.652 82.001,62.822 C84.291,59.042 85.711,54.862 86.581,50.692 C89.682,46.902 90.012,41.392 90.041,40.832 L91.401,33.232 C91.435,33.073 91.385,32.913 91.285,32.793 L91.285,32.793 Z" id="Shape"></path>
                    <path d="M36.405,64.973 C45.875,64.443 47.245,57.643 47.415,54.993 C47.455,54.413 46.976,53.973 46.415,54.003 L25.315,55.183 C24.754,55.213 24.335,55.713 24.424,56.283 C24.875,58.893 26.945,65.503 36.405,64.973 Z" id="Shape"></path>
                </g>
            </g>
        </g>
    </g>
</svg>