<?xml version="1.0" encoding="utf-8"?>
<!-- Generator: Adobe Illustrator 15.1.0, SVG Export Plug-In  -->
<!DOCTYPE svg PUBLIC "-//W3C//DTD SVG 1.1//EN" "http://www.w3.org/Graphics/SVG/1.1/DTD/svg11.dtd" [
	<!ENTITY ns_flows "http://ns.adobe.com/Flows/1.0/">
]>
<svg version="1.1"
	 xmlns="http://www.w3.org/2000/svg" xmlns:xlink="http://www.w3.org/1999/xlink" xmlns:a="http://ns.adobe.com/AdobeSVGViewerExtensions/3.0/"
	 x="0px" y="0px" width="89px" height="16px" viewBox="-0.009 0 89 16" overflow="visible" enable-background="new -0.009 0 89 16"
	 xml:space="preserve">
<defs>
</defs>
<path d="M36.996,5.442c-1.77,0-3.09,1.128-3.092,2.762c0,1.206,1.128,3.558,1.129,4.548c-0.001,0.331-0.214,0.447-0.408,0.447
	c-0.447-0.002-1.108-0.582-1.264-1.438c0.329-0.37,0.505-0.661,0.505-1.071c0-0.483-0.545-1.36-1.226-1.359
	c-0.7-0.001-1.053,1.021-1.19,2.018c-0.803,0.895-1.491,1.387-1.765,1.387c-0.174,0-0.271-0.078-0.273-0.293
	c0.002-0.484,0.623-1.867,0.975-2.723c0.408-0.933,0.563-1.614,0.564-2.139c-0.002-0.757-0.449-1.34-1.343-1.341
	c-0.854,0-2.197,0.875-3.617,3.325c0.526-0.953,0.78-2.314,0.778-2.798c-0.001-0.584-0.175-0.817-0.836-0.817
	c-1.204,0-2.935,2.041-2.936,3.189c0.001,0.348,0.036,0.742,0.155,1.088c-1.166,1.598-2.04,2.312-2.468,2.314
	c-0.156-0.002-0.272-0.061-0.271-0.312c-0.001-0.369,0.815-2.179,1.224-3.287c0.29-0.777,0.37-1.166,0.37-1.517
	c0.001-0.796-0.798-1.575-1.887-1.574c-0.291-0.001-0.622,0.116-0.816,0.369c-0.096,1.671-0.369,3.032-1.03,5.132
	c-0.388,0.407-1.011,0.875-1.342,0.877c-0.271,0-0.39-0.194-0.39-0.508c0-0.31,0.117-0.894,0.312-1.595
	c0.991-1.614,1.497-2.779,1.497-3.401c0-0.583-0.332-0.778-0.935-0.778c-1.361,0-3.227,2.178-3.228,3.383
	c0,0.389,0.04,0.797,0.253,1.204c-0.506,1.245-0.776,2.375-0.777,2.957c0,1.167,0.274,1.825,1.42,1.827
	c0.875,0,2.062-0.817,2.993-2.586c-0.078,0.41-0.115,0.738-0.115,1.011c0.001,1.011,0.484,1.264,1.283,1.263
	c0.816,0.001,1.848-0.62,2.761-1.438c0.246-0.215,0.483-0.444,0.705-0.678c0.069,1.114,0.848,2.078,1.899,2.077
	c0.445,0.001,0.583-0.058,0.777-0.254c0.059-1.319,0.175-2.194,0.447-3.69c0.759-1.051,1.4-1.342,1.573-1.344
	c0.156,0,0.234,0.078,0.235,0.232c-0.002,0.429-0.992,2.395-0.992,3.675c-0.001,1.07,0.389,1.576,1.535,1.576
	c0.92,0,2.233-0.869,3.294-1.879c0.32,1.329,1.345,2.032,2.599,2.034c1.748-0.002,3.751-0.916,3.751-3.267
	c0-1.422-1.107-3.034-1.107-3.909c0-0.349,0.212-0.466,0.622-0.465c0.311,0,0.659,0.077,1.029,0.232
	c0.233-0.232,0.407-0.642,0.409-1.05C38.785,5.929,38.123,5.444,36.996,5.442z"/>
<path d="M12.305,5.929c1.205-1.729,1.458-1.924,2.217-1.982c0.253-0.272,0.351-0.661,0.35-0.973c0-0.991-0.681-2.002-1.906-2.002
	c-1.028,0-1.555,0.292-2.662,2.878C9.506,5.715,8.418,7.775,7.522,8.884C7.154,8.885,6.823,8.904,6.551,8.941
	c0.935-3.849,1.518-6.57,1.517-7.172C8.069,0.738,7.445,0,6.084,0C3.693-0.001,0,3.401,0,6.182c0,1.691,1.419,2.702,3.11,2.702
	c0.174,0.001,0.427-0.019,0.603-0.039L3.46,10.031c-0.816,1.167-1.282,2.353-1.282,3.072c0,1.067,1.126,2.06,2.175,2.061
	c0.353-0.001,0.644-0.078,0.818-0.255l0.895-4.118c0.894,0.291,1.322,1.204,2.546,3.867C9.097,15.709,9.447,16,10.186,16
	c1.381,0,2.857-0.973,2.858-2.043c0-0.23-0.078-0.523-0.232-0.697c-0.235,0.059-0.624,0.114-0.798,0.114
	c-0.292,0.002-0.488-0.114-0.72-0.58c-0.68-1.362-1.36-2.743-2.062-3.21C10.148,8.788,11.119,7.64,12.305,5.929z M4.179,7.077
	c-1.165-0.37-1.69-0.779-1.691-1.595c0-1.322,1.711-2.955,2.255-2.955c0.233,0,0.351,0.155,0.35,0.504
	C5.094,3.538,4.763,5.074,4.179,7.077z"/>
<path d="M87.724,6c-0.959,0-1.625,0.781-1.625,1.793c0,0.713,0.508,1.17,1.231,1.169c0.984,0.001,1.651-0.746,1.651-1.821
	C88.982,6.486,88.568,6,87.724,6z M87.417,8.621c-0.585,0.001-0.929-0.389-0.929-0.937c0-0.727,0.442-1.351,1.151-1.349
	c0.662-0.002,0.941,0.365,0.941,0.889C88.582,8.113,88.078,8.623,87.417,8.621z"/>
<path d="M88.007,7.889c-0.037,0-0.049-0.009-0.086-0.071c-0.066-0.121-0.08-0.12-0.119-0.163c0.211-0.195,0.31-0.347,0.311-0.542
	c-0.001-0.244-0.186-0.425-0.589-0.424c-0.339,0-0.563,0.147-0.563,0.286c0.002,0.062,0.024,0.094,0.068,0.108
	c0.074-0.027,0.162-0.043,0.189-0.046c-0.062,0.22-0.125,0.374-0.177,0.537c-0.082,0.232-0.096,0.289-0.096,0.347
	c0,0.161,0.11,0.276,0.237,0.275c0.054,0,0.086-0.013,0.1-0.042c0.006-0.067,0.04-0.247,0.072-0.381
	c0.09,0.049,0.166,0.148,0.271,0.363c0.042,0.084,0.086,0.108,0.172,0.107c0.17,0.002,0.353-0.137,0.353-0.265
	c0-0.037-0.021-0.081-0.06-0.106C88.058,7.884,88.03,7.89,88.007,7.889z M87.589,7.571c-0.043-0.007-0.092-0.011-0.182-0.011
	c0.048-0.223,0.08-0.413,0.091-0.522c0.146,0.01,0.233,0.08,0.231,0.181C87.729,7.323,87.702,7.414,87.589,7.571z"/>
<path d="M85.326,10.012c-1.204,1.731-2.429,2.723-2.815,2.723c-0.178-0.002-0.273-0.078-0.273-0.293
	c0.001-0.483,0.622-1.865,0.972-2.722c0.409-0.933,0.563-1.615,0.562-2.139c0.002-0.757-0.445-1.341-1.34-1.341
	c-0.855,0-2.195,0.875-3.615,3.326c0.525-0.955,0.775-2.313,0.777-2.799c0-0.584-0.177-0.817-0.838-0.818
	c-1.205,0-2.934,2.041-2.934,3.189c0,0.361,0.037,0.771,0.166,1.125c-1.158,1.566-2.092,2.237-2.461,2.236
	c-0.156,0.001-0.234-0.059-0.233-0.448c-0.001-0.504-0.147-0.642,0.532-3.091c0.154-0.547,0.215-1.032,0.215-1.285
	c0-0.68-0.312-1.515-1.635-1.516c-0.273,0-0.525,0.078-0.682,0.254L71.66,6.395c-0.097-0.097-0.233-0.135-0.505-0.136
	c-1.648,0-3.633,2.193-4.198,4.64c-0.926,1.115-1.649,1.603-1.965,1.602c-0.155,0-0.233-0.059-0.233-0.445
	c0-0.506-0.147-0.646,0.531-3.095c0.157-0.545,0.215-1.03,0.215-1.284c0-0.681-0.312-1.516-1.635-1.515
	c-0.271,0-0.525,0.077-0.68,0.252l-0.066-0.017c-0.098-0.098-0.232-0.136-0.505-0.138c-1.638,0.001-3.604,2.166-4.187,4.592
	c-1.086,1.359-2.012,2.077-2.308,2.076c-0.174-0.001-0.272-0.076-0.271-0.291c-0.002-0.484,0.777-2.177,1.127-3.033
	c0.351-0.815,0.523-1.495,0.525-2c0-0.761-0.429-1.441-1.322-1.441c-0.857,0.001-1.926,0.836-3.52,3.228
	c0.467-0.932,0.484-1.379,0.485-1.887c0-0.641-0.409-1.146-1.147-1.146c-0.854,0-1.828,0.564-3.246,3.014
	c0.469-1.031,0.603-1.713,0.604-2.198c0-0.583-0.271-0.816-0.835-0.816c-1.206,0-2.761,1.438-2.763,2.585
	c0,0.373,0.039,0.802,0.182,1.162c-1.286,1.765-2.575,2.649-3.35,2.647c-0.407,0.003-0.525-0.213-0.525-0.681
	c0-0.29,0.155-1.383,0.682-3.521c0.562,0.099,0.972,0.118,1.42,0.118c0.641,0,1.126-0.564,1.125-1.303
	c0.002-0.292-0.136-0.641-0.369-0.816c-0.252,0.059-1.069,0.117-1.67,0.135c1.028-2.06,1.264-2.526,1.264-3.128
	c0-0.836-0.409-1.147-1.304-1.147c-1.323,0-2.371,1.224-2.547,2.936c-0.077,0.719-0.097,1.03-0.116,1.438
	c-0.797,0.02-1.226,0.564-1.226,1.167c0.001,0.427,0.331,0.467,0.721,0.505c-0.738,2.47-0.934,3.654-0.934,4.22
	c-0.001,1.788,1.011,2.565,2.507,2.565c1.254,0,2.739-1.094,3.803-2.256c0.1,1.084,0.868,2.004,1.896,2.004
	c0.444,0.001,0.583-0.061,0.776-0.254c0.059-1.32,0.233-2.41,0.506-3.906c0.759-1.051,1.225-1.342,1.398-1.342
	c0.156-0.002,0.235,0.058,0.233,0.232c0.001,0.194-0.175,0.641-0.329,1.07c-0.35,0.934-0.661,2.078-0.661,2.816
	c0.019,1.166,0.759,1.613,1.847,1.613c0.408,0,0.586-0.097,0.776-0.289c0.06-1.324,0.253-2.412,0.526-3.91
	c0.757-1.05,1.438-1.455,1.613-1.455c0.154-0.002,0.232,0.074,0.232,0.229c0.001,0.429-1.146,2.742-1.148,4.024
	c0.004,1.07,0.391,1.574,1.537,1.574c1.021,0,2.564-1.144,3.704-2.354c0.216,1.232,0.935,1.869,1.857,1.869
	c0.681,0,1.573-0.486,2.196-2.256c-0.041,0.291-0.061,0.545-0.06,0.759c0,1.244,0.544,1.595,1.399,1.595
	c0.771,0,2.098-0.949,3.132-2.015c0.204,1.264,0.93,1.917,1.864,1.917c0.681,0,1.576-0.486,2.196-2.258
	c-0.038,0.293-0.058,0.547-0.059,0.76c0,1.245,0.545,1.595,1.399,1.594c0.807,0.001,2.219-1.036,3.271-2.158
	c0.054,1.135,0.836,2.121,1.899,2.121c0.449,0,0.584-0.059,0.778-0.253c0.058-1.321,0.175-2.196,0.445-3.692
	c0.76-1.049,1.401-1.344,1.577-1.344c0.154,0,0.232,0.08,0.232,0.234c0,0.428-0.992,2.391-0.992,3.673
	c0,1.07,0.389,1.575,1.535,1.575c1.789,0.001,5.075-3.286,5.074-4.51C86.087,10.266,85.695,10.012,85.326,10.012z M62.404,11.705
	c-0.231,0.291-0.503,0.484-0.776,0.486c-0.271-0.002-0.506-0.08-0.506-0.799c0-1.498,0.936-3.11,1.905-3.732L62.404,11.705z
	 M70.94,11.704c-0.233,0.289-0.506,0.483-0.777,0.485c-0.271-0.002-0.506-0.08-0.507-0.797c0-1.498,0.935-3.111,1.907-3.733
	L70.94,11.704z"/>
</svg>
