<svg aria-hidden="true" style="position: absolute; width: 0; height: 0; overflow: hidden;" version="1.1" xmlns="http://www.w3.org/2000/svg" xmlns:xlink="http://www.w3.org/1999/xlink">
<defs>
<symbol id="icon-blog" viewBox="0 0 32 32">
<path d="M13.281 21.441h-0.688c-0.229 0-0.453-0.005-0.672-0.016s-0.474-0.036-0.766-0.078c-0.146 0.167-0.464 0.448-0.953 0.844s-1.068 0.813-1.734 1.25c-0.667 0.438-1.37 0.833-2.109 1.188s-1.432 0.583-2.078 0.688h-0.031l-0.063 0.016c-0.042 0.010-0.083 0.016-0.125 0.016-0.208 0-0.38-0.073-0.516-0.219s-0.203-0.323-0.203-0.531c0-0.063 0.005-0.115 0.016-0.156s0.026-0.083 0.047-0.125h-0.031c0.25-0.417 0.599-1.057 1.047-1.922s0.672-1.661 0.672-2.391v-0.063c-0.854-0.438-1.604-0.979-2.25-1.625s-1.177-1.354-1.594-2.125c-0.417-0.771-0.729-1.583-0.938-2.438s-0.313-1.698-0.313-2.531c0-1.354 0.339-2.625 1.016-3.813s1.609-2.219 2.797-3.094c1.188-0.875 2.573-1.568 4.156-2.078s3.281-0.766 5.094-0.766c1.792 0 3.474 0.255 5.047 0.766s2.943 1.203 4.109 2.078c1.167 0.875 2.089 1.906 2.766 3.094s1.016 2.458 1.016 3.813c0.021 1.521-0.292 2.911-0.938 4.172s-1.542 2.339-2.688 3.234c-1.146 0.896-2.5 1.589-4.063 2.078s-3.24 0.734-5.031 0.734zM10.344 19.285l1.094 0.094c0.479 0.063 0.917 0.094 1.313 0.094h0.594c1.521 0 2.932-0.203 4.234-0.609s2.427-0.979 3.375-1.719c0.948-0.74 1.693-1.615 2.234-2.625s0.813-2.109 0.813-3.297c0-1.083-0.286-2.094-0.859-3.031s-1.349-1.755-2.328-2.453c-0.979-0.698-2.135-1.25-3.469-1.656s-2.76-0.609-4.281-0.609c-1.521 0-2.953 0.203-4.297 0.609s-2.521 0.958-3.531 1.656c-1.010 0.698-1.802 1.516-2.375 2.453s-0.859 1.948-0.859 3.031c0 1.292 0.323 2.594 0.969 3.906s1.656 2.323 3.031 3.031l1.094 0.563-0.094 1.219-0.063 0.547c-0.042 0.365-0.24 1.026-0.594 1.984 0.563-0.333 1.12-0.724 1.672-1.172s0.901-0.766 1.047-0.953l1.281-1.063zM32 19.285c0 1.458-0.354 2.745-1.063 3.859s-1.802 2.047-3.281 2.797c0 0.021 0 0.036 0 0.047s0 0.016 0 0.016c0 0.646 0.125 1.396 0.375 2.25s0.479 1.458 0.688 1.813c0.021 0.042 0.036 0.083 0.047 0.125s0.016 0.083 0.016 0.125c0 0.188-0.063 0.344-0.188 0.469s-0.281 0.188-0.469 0.188c-0.021 0-0.052 0-0.094 0s-0.063 0-0.063 0-0.031 0-0.031 0c-1.104-0.188-2.219-0.75-3.344-1.688s-1.802-1.552-2.031-1.844c-0.25 0.021-0.469 0.036-0.656 0.047s-0.385 0.016-0.594 0.016c-0.104 0-0.203 0-0.297 0s-0.193 0-0.297 0c-1.021 0-1.984-0.089-2.891-0.266s-1.755-0.438-2.547-0.781c-0.792-0.344-1.51-0.76-2.156-1.25s-1.219-1.036-1.719-1.641c0.042-0.042 0.589-0.063 1.641-0.063s1.464 0.010 1.234 0.031c0.854 0.667 1.802 1.161 2.844 1.484s2.24 0.484 3.594 0.484c0 0 0.203 0 0.609 0s0.714-0.021 0.922-0.063l1.063-0.156c0 0 0.193 0.26 0.578 0.781s1.068 1.135 2.047 1.844c-0.083-0.313-0.146-0.927-0.188-1.844s-0.063-1.375-0.063-1.375l0.969-0.469c1.188-0.604 2.042-1.307 2.563-2.109s0.781-1.745 0.781-2.828c0-0.875-0.151-1.635-0.453-2.281s-0.88-1.271-1.734-1.875c0.104-0.333 0.203-0.688 0.297-1.063s0.161-0.74 0.203-1.094c1.313 0.771 2.255 1.677 2.828 2.719s0.859 2.24 0.859 3.594z"></path>
</symbol>
<symbol id="icon-cheveron-down" viewBox="0 0 51 32">
<path d="M1.092 5.336c0-0.31 0.055-0.61 0.166-0.898s0.277-0.543 0.499-0.765c0.443-0.443 0.975-0.665 1.596-0.665s1.153 0.222 1.596 0.665l21.046 21.046 20.514-20.581c0.443-0.443 0.986-0.665 1.629-0.665s1.186 0.222 1.629 0.665c0.443 0.443 0.665 0.986 0.665 1.629s-0.222 1.186-0.665 1.629l-22.177 22.11c-0.443 0.443-0.975 0.665-1.596 0.665s-1.153-0.222-1.596-0.665l-22.642-22.576c-0.222-0.222-0.388-0.477-0.499-0.765s-0.166-0.565-0.166-0.831z"></path>
</symbol>
<symbol id="icon-dashboard" viewBox="0 0 30 32">
<path d="M8.053 9.684c0.257 0 0.479 0.094 0.666 0.281s0.281 0.41 0.281 0.666v18.947c0 0.257-0.094 0.479-0.281 0.666s-0.41 0.281-0.666 0.281h-6.632c-0.257 0-0.479-0.094-0.666-0.281s-0.281-0.41-0.281-0.666v-18.947c0-0.257 0.094-0.479 0.281-0.666s0.41-0.281 0.666-0.281h6.632zM7.105 28.632v-17.053h-4.737v17.053h4.737zM18.474 15.309c0.257 0 0.479 0.094 0.666 0.281s0.281 0.41 0.281 0.666v13.322c0 0.257-0.094 0.479-0.281 0.666s-0.41 0.281-0.666 0.281h-6.632c-0.276 0-0.503-0.094-0.681-0.281s-0.266-0.41-0.266-0.666v-13.322c0-0.257 0.089-0.479 0.266-0.666s0.405-0.281 0.681-0.281h6.632zM17.526 28.632v-11.428h-4.737v11.428h4.737zM28.895 0.211c0.257 0 0.479 0.094 0.666 0.281s0.281 0.41 0.281 0.666v28.421c0 0.257-0.094 0.479-0.281 0.666s-0.41 0.281-0.666 0.281h-6.632c-0.257 0-0.479-0.094-0.666-0.281s-0.281-0.41-0.281-0.666v-28.421c0-0.257 0.094-0.479 0.281-0.666s0.41-0.281 0.666-0.281h6.632zM27.947 28.632v-26.526h-4.737v26.526h4.737z"></path>
</symbol>
<symbol id="icon-forms" viewBox="0 0 32 32">
<path d="M25.339 28.632v-12.049l1.895-1.806v13.855c0 0.533-0.183 0.982-0.548 1.347s-0.814 0.548-1.347 0.548h-21.789c-0.513 0-0.957-0.183-1.332-0.548s-0.563-0.814-0.563-1.347v-23.684c0-0.513 0.188-0.957 0.563-1.332s0.819-0.563 1.332-0.563h15.188l0.059 0.059-1.924 1.836h-13.322v23.684h21.789zM30.52 1.424c0.493 0.474 0.863 0.957 1.11 1.451s0.38 1.007 0.4 1.539c0 0.513-0.118 1.026-0.355 1.539s-0.602 1.026-1.095 1.539c-0.217 0.237-0.997 1.016-2.339 2.339s-2.783 2.738-4.322 4.248c-1.539 1.51-2.956 2.906-4.248 4.189s-2.008 1.993-2.146 2.132c-0.059 0.039-0.113 0.079-0.163 0.118s-0.104 0.069-0.163 0.089c-0.237 0.059-0.72 0.207-1.451 0.444s-1.49 0.479-2.28 0.725c-0.789 0.247-1.49 0.474-2.102 0.681s-0.928 0.311-0.947 0.311c-0.039 0-0.079 0.005-0.118 0.015s-0.079 0.015-0.118 0.015c-0.099 0-0.197-0.020-0.296-0.059s-0.188-0.099-0.266-0.178c-0.099-0.099-0.168-0.222-0.207-0.37s-0.039-0.291 0-0.429c0-0.020 0.094-0.331 0.281-0.933s0.4-1.293 0.636-2.072c0.237-0.78 0.464-1.544 0.681-2.294s0.375-1.283 0.474-1.599c0.020-0.059 0.044-0.118 0.074-0.178s0.074-0.118 0.133-0.178l1.969-1.969c1.313-1.313 2.768-2.763 4.367-4.352s3.079-3.069 4.441-4.441c1.362-1.372 2.102-2.107 2.22-2.206 0.158-0.158 0.508-0.419 1.051-0.785s1.199-0.548 1.969-0.548c0.513 0 1.007 0.104 1.48 0.311s0.918 0.508 1.332 0.903zM29.217 6.161c0.316-0.316 0.548-0.617 0.696-0.903s0.222-0.558 0.222-0.814c-0.020-0.257-0.104-0.523-0.252-0.799s-0.37-0.553-0.666-0.829c-0.257-0.237-0.508-0.414-0.755-0.533s-0.498-0.178-0.755-0.178c-0.434 0-0.814 0.118-1.14 0.355s-0.508 0.375-0.548 0.414l-5.936 5.936c-1.47 1.47-2.882 2.877-4.234 4.219s-2.225 2.211-2.62 2.605c-0.138 0.493-0.34 1.189-0.607 2.087s-0.528 1.762-0.785 2.59c0.789-0.257 1.633-0.528 2.531-0.814s1.564-0.498 1.998-0.637l0.592-0.563c1.895-1.875 3.577-3.538 5.048-4.989s2.719-2.684 3.745-3.701c1.026-1.016 1.831-1.811 2.413-2.383s0.933-0.928 1.051-1.066z"></path>
</symbol>
<symbol id="icon-help" viewBox="0 0 30 32">
<path d="M15.158 0.211c2.092 0 4.061 0.395 5.906 1.184s3.454 1.87 4.826 3.242c1.372 1.372 2.452 2.98 3.242 4.826s1.184 3.814 1.184 5.906c0 2.092-0.395 4.061-1.184 5.906s-1.87 3.454-3.242 4.826c-1.372 1.372-2.98 2.452-4.826 3.242s-3.814 1.184-5.906 1.184c-2.092 0-4.061-0.395-5.906-1.184s-3.454-1.87-4.826-3.242c-1.372-1.372-2.452-2.98-3.242-4.826s-1.184-3.814-1.184-5.906c0-2.092 0.395-4.061 1.184-5.906s1.87-3.454 3.242-4.826c1.372-1.372 2.98-2.452 4.826-3.242s3.814-1.184 5.906-1.184zM18.947 2.668v6.158c0.572 0.336 1.090 0.735 1.554 1.199s0.863 0.982 1.199 1.554h6.158c-0.316-1.066-0.76-2.072-1.332-3.020s-1.243-1.801-2.013-2.561c-0.77-0.76-1.623-1.426-2.561-1.998s-1.939-1.016-3.005-1.332zM20.842 15.368c0-1.559-0.558-2.896-1.673-4.011s-2.452-1.673-4.011-1.673c-1.559 0-2.896 0.558-4.011 1.673s-1.673 2.452-1.673 4.011c0 1.579 0.558 2.921 1.673 4.026s2.452 1.658 4.011 1.658c1.559 0 2.896-0.553 4.011-1.658s1.673-2.447 1.673-4.026zM13.263 2.253v5.803c0.296-0.079 0.602-0.143 0.918-0.192s0.641-0.074 0.977-0.074c0.336 0 0.661 0.025 0.977 0.074s0.622 0.114 0.918 0.192v-5.803c-0.316-0.039-0.632-0.074-0.947-0.104s-0.632-0.044-0.947-0.044c-0.316 0-0.632 0.015-0.947 0.044s-0.632 0.064-0.947 0.104zM11.368 2.668c-1.066 0.316-2.067 0.76-3.005 1.332s-1.791 1.238-2.561 1.998c-0.77 0.76-1.441 1.613-2.013 2.561s-1.016 1.954-1.332 3.020h6.158c0.336-0.572 0.735-1.090 1.199-1.554s0.982-0.864 1.554-1.199v-6.158zM1.895 15.368c0 0.316 0.015 0.632 0.044 0.947s0.064 0.632 0.104 0.947h5.773c-0.059-0.296-0.114-0.602-0.163-0.918s-0.074-0.641-0.074-0.977c0-0.316 0.025-0.636 0.074-0.962s0.114-0.636 0.192-0.933h-5.803c-0.039 0.316-0.074 0.632-0.104 0.947s-0.044 0.632-0.044 0.947zM11.368 28.069v-6.158c-0.572-0.316-1.095-0.711-1.569-1.184s-0.868-0.997-1.184-1.569h-6.158c0.316 1.066 0.76 2.072 1.332 3.020s1.238 1.806 1.998 2.576c0.76 0.77 1.613 1.436 2.561 1.998s1.954 1.002 3.020 1.317zM17.053 28.484v-5.773c-0.296 0.079-0.602 0.138-0.918 0.178s-0.641 0.059-0.977 0.059c-0.336 0-0.661-0.020-0.977-0.059s-0.622-0.099-0.918-0.178v5.773c0.316 0.059 0.632 0.099 0.947 0.118s0.632 0.030 0.947 0.030c0.316 0 0.632-0.010 0.947-0.030s0.632-0.059 0.947-0.118zM18.947 28.069c1.066-0.316 2.072-0.755 3.020-1.317s1.801-1.229 2.561-1.998c0.76-0.77 1.426-1.628 1.998-2.576s1.016-1.954 1.332-3.020h-6.158c-0.336 0.572-0.735 1.095-1.199 1.569s-0.982 0.868-1.554 1.184v6.158zM22.5 17.263h5.773c0.039-0.316 0.074-0.632 0.104-0.947s0.044-0.632 0.044-0.947c0-0.316-0.015-0.632-0.044-0.947s-0.064-0.632-0.104-0.947h-5.803c0.079 0.296 0.143 0.607 0.192 0.933s0.074 0.646 0.074 0.962c0 0.336-0.025 0.661-0.074 0.977s-0.104 0.622-0.163 0.918z"></path>
</symbol>
<symbol id="icon-logout" viewBox="0 0 32 32">
<path d="M4.244 16.577l3.512 3.482c0.179 0.198 0.268 0.427 0.268 0.685s-0.089 0.486-0.268 0.685c-0.099 0.079-0.208 0.144-0.327 0.193s-0.238 0.074-0.357 0.074c-0.119 0-0.238-0.025-0.357-0.074s-0.228-0.114-0.327-0.193l-5.625-5.774 5.625-5.774c0.198-0.198 0.427-0.298 0.685-0.298s0.486 0.099 0.685 0.298c0.179 0.179 0.268 0.402 0.268 0.67s-0.089 0.491-0.268 0.67l-3.452 3.452h16.429c0.278 0 0.506 0.089 0.685 0.268s0.268 0.407 0.268 0.685c0 0.258-0.089 0.481-0.268 0.67s-0.407 0.283-0.685 0.283h-16.488zM29.333 0.387c0.516 0 0.962 0.184 1.339 0.551s0.565 0.818 0.565 1.354v26.667c0 0.536-0.189 0.987-0.565 1.354s-0.823 0.551-1.339 0.551h-16.19c-0.536 0-0.987-0.184-1.354-0.551s-0.551-0.818-0.551-1.354v-8.601h1.905v7.44c0 0.317 0.114 0.59 0.342 0.818s0.501 0.342 0.818 0.342h13.869c0.317 0 0.585-0.114 0.804-0.342s0.327-0.501 0.327-0.818l-0.030-24.345c0-0.317-0.109-0.59-0.327-0.818s-0.486-0.342-0.804-0.342h-13.839c-0.317 0-0.59 0.114-0.818 0.342s-0.342 0.501-0.342 0.818v7.411h-1.905v-8.571c0-0.536 0.184-0.987 0.551-1.354s0.818-0.551 1.354-0.551h16.19z"></path>
</symbol>
<symbol id="icon-mail" viewBox="0 0 43 32">
<path d="M42.625 4.6c0.028 0.056 0.042 0.111 0.042 0.167v21.5c0 1.111-0.278 2.167-0.833 3.167s-1.389 1.5-2.5 1.5h-34.667c-1.111 0-2.167-0.5-3.167-1.5s-1.5-2.056-1.5-3.167v-21.5c0-0.056 0.014-0.111 0.042-0.167-0.056-0.194-0.056-0.382 0-0.563s0.153-0.354 0.292-0.521c0.028-0.028 0.056-0.063 0.083-0.104s0.069-0.076 0.125-0.104c0.417-0.556 1.007-0.979 1.771-1.271s1.549-0.438 2.354-0.438h34.667c0.889 0 1.604 0.188 2.146 0.563s0.896 0.938 1.063 1.688c0.056 0.111 0.090 0.229 0.104 0.354s0.007 0.257-0.021 0.396zM4.042 4.267c-0.222 0-0.444 0.014-0.667 0.042l17.958 14.333 18-14.375h-35.292zM39.333 28.267c0.361 0 0.563-0.243 0.604-0.729s0.063-0.91 0.063-1.271v-19.083l-17.792 14.208c-0.139 0.111-0.278 0.194-0.417 0.25s-0.292 0.083-0.458 0.083c-0.167 0-0.319-0.028-0.458-0.083s-0.278-0.139-0.417-0.25l-17.792-14.208v19.083c0 0.361 0.243 0.785 0.729 1.271s0.91 0.729 1.271 0.729h34.667z"></path>
</symbol>
<symbol id="icon-media" viewBox="0 0 36 32">
<path d="M32.625 6.125c1.125 0 1.969 0.422 2.531 1.266s0.844 1.547 0.844 2.109v18.035c0 0.891-0.369 1.67-1.107 2.338s-1.471 1.002-2.197 1.002h-29.566c-0.727 0-1.43-0.328-2.109-0.984s-1.020-1.453-1.020-2.391v-18.035c0-1.102 0.422-1.934 1.266-2.496s1.547-0.844 2.109-0.844h5.168l2.707-4.5h13.5l2.707 4.5h5.168zM33.75 27.535v-18.035c0-0.047-0.088-0.246-0.264-0.598s-0.463-0.527-0.861-0.527h-6.434l-0.633-1.090-2.004-3.41h-11.039l-2.707 4.5h-6.434c-0.094 0-0.305 0.094-0.633 0.281s-0.492 0.457-0.492 0.809v18.035c0 0.305 0.117 0.568 0.352 0.791s0.422 0.334 0.563 0.334h29.531c0.164-0.023 0.381-0.158 0.65-0.404s0.404-0.475 0.404-0.686zM18 9.5c1.078 0 2.098 0.205 3.059 0.615s1.799 0.973 2.514 1.688c0.715 0.715 1.277 1.553 1.688 2.514s0.615 1.98 0.615 3.059c0 1.078-0.205 2.098-0.615 3.059s-0.973 1.799-1.688 2.514c-0.715 0.715-1.553 1.277-2.514 1.688s-1.98 0.615-3.059 0.615c-1.078 0-2.098-0.205-3.059-0.615s-1.799-0.973-2.514-1.688c-0.715-0.715-1.277-1.553-1.688-2.514s-0.615-1.98-0.615-3.059c0-1.078 0.205-2.098 0.615-3.059s0.973-1.799 1.688-2.514c0.715-0.715 1.553-1.277 2.514-1.688s1.98-0.615 3.059-0.615zM18 23c1.547 0 2.871-0.551 3.973-1.652s1.652-2.426 1.652-3.973c0-1.547-0.551-2.871-1.652-3.973s-2.426-1.652-3.973-1.652c-1.547 0-2.871 0.551-3.973 1.652s-1.652 2.426-1.652 3.973c0 1.547 0.551 2.871 1.652 3.973s2.426 1.652 3.973 1.652z"></path>
</symbol>
<symbol id="icon-menu" viewBox="0 0 48 32">
<path d="M4.5 13.333c0.406 0 0.758 0.148 1.055 0.445s0.445 0.648 0.445 1.055v3c0 0.406-0.148 0.758-0.445 1.055s-0.648 0.445-1.055 0.445h-3c-0.406 0-0.758-0.148-1.055-0.445s-0.445-0.648-0.445-1.055v-3c0-0.406 0.148-0.758 0.445-1.055s0.648-0.445 1.055-0.445h3zM46.5 14.833c0.406 0 0.758 0.148 1.055 0.445s0.445 0.648 0.445 1.055c0 0.406-0.148 0.758-0.445 1.055s-0.648 0.445-1.055 0.445h-31.5c-0.406 0-0.758-0.148-1.055-0.445s-0.445-0.648-0.445-1.055c0-0.406 0.148-0.758 0.445-1.055s0.648-0.445 1.055-0.445h31.5zM4.5 25.333c0.406 0 0.758 0.148 1.055 0.445s0.445 0.648 0.445 1.055v3c0 0.406-0.148 0.758-0.445 1.055s-0.648 0.445-1.055 0.445h-3c-0.406 0-0.758-0.148-1.055-0.445s-0.445-0.648-0.445-1.055v-3c0-0.406 0.148-0.758 0.445-1.055s0.648-0.445 1.055-0.445h3zM46.5 26.833c0.406 0 0.758 0.148 1.055 0.445s0.445 0.648 0.445 1.055c0 0.406-0.148 0.758-0.445 1.055s-0.648 0.445-1.055 0.445h-31.5c-0.406 0-0.758-0.148-1.055-0.445s-0.445-0.648-0.445-1.055c0-0.406 0.148-0.758 0.445-1.055s0.648-0.445 1.055-0.445h31.5zM4.5 1.333c0.406 0 0.758 0.148 1.055 0.445s0.445 0.648 0.445 1.055v3c0 0.406-0.148 0.758-0.445 1.055s-0.648 0.445-1.055 0.445h-3c-0.406 0-0.758-0.148-1.055-0.445s-0.445-0.648-0.445-1.055v-3c0-0.406 0.148-0.758 0.445-1.055s0.648-0.445 1.055-0.445h3zM15 5.833c-0.406 0-0.758-0.148-1.055-0.445s-0.445-0.648-0.445-1.055c0-0.406 0.148-0.758 0.445-1.055s0.648-0.445 1.055-0.445h31.5c0.406 0 0.758 0.148 1.055 0.445s0.445 0.648 0.445 1.055c0 0.406-0.148 0.758-0.445 1.055s-0.648 0.445-1.055 0.445h-31.5z"></path>
</symbol>
<symbol id="icon-pages" viewBox="0 0 30 32">
<path d="M0.651 9.151c-0.158-0.079-0.281-0.197-0.37-0.355s-0.133-0.326-0.133-0.503c0-0.178 0.049-0.34 0.148-0.489s0.227-0.261 0.385-0.34l14.211-7.135c0.138-0.079 0.281-0.118 0.429-0.118s0.291 0.039 0.429 0.118l14.063 7.135c0.158 0.079 0.281 0.192 0.37 0.34s0.133 0.311 0.133 0.489c0 0.178-0.044 0.345-0.133 0.503s-0.202 0.276-0.34 0.355l-14.24 7.668c-0.059 0.039-0.128 0.064-0.207 0.074s-0.158 0.015-0.237 0.015c-0.079 0-0.153-0.010-0.222-0.030s-0.143-0.039-0.222-0.059l-14.063-7.668zM15.306 2.224l-12.168 6.128 12.020 6.543 12.168-6.543-12.020-6.128zM29.635 14.421c0.158 0.079 0.286 0.197 0.385 0.355s0.148 0.316 0.148 0.474c0 0.178-0.044 0.345-0.133 0.503s-0.212 0.276-0.37 0.355l-14.211 7.668c-0.079 0.039-0.153 0.069-0.222 0.089s-0.143 0.030-0.222 0.030c-0.079 0-0.158-0.010-0.237-0.030s-0.158-0.049-0.237-0.089l-14.063-7.668c-0.138-0.079-0.252-0.197-0.34-0.355s-0.133-0.326-0.133-0.503c0-0.178 0.044-0.34 0.133-0.489s0.212-0.261 0.37-0.34l2.99-1.48 2.013 1.095-2.516 1.273 12.020 6.543 12.168-6.543-2.368-1.214 2.013-1.095 2.813 1.421zM29.635 21.053c0.158 0.079 0.286 0.197 0.385 0.355s0.148 0.316 0.148 0.474c0 0.178-0.044 0.345-0.133 0.503s-0.212 0.276-0.37 0.355l-14.211 7.668c-0.079 0.039-0.153 0.069-0.222 0.089s-0.143 0.030-0.222 0.030c-0.079 0-0.158-0.010-0.237-0.030s-0.158-0.049-0.237-0.089l-14.063-7.668c-0.138-0.079-0.252-0.197-0.34-0.355s-0.133-0.326-0.133-0.503c0-0.178 0.044-0.34 0.133-0.488s0.212-0.262 0.37-0.34l2.813-1.273 2.013 1.095-2.339 1.066 12.020 6.543 12.168-6.543-2.22-1.095 2.013-1.095 2.664 1.303z"></path>
</symbol>
<symbol id="icon-products" viewBox="0 0 30 32">
<path d="M28.184 0.27c0.553-0.158 1.046-0.069 1.48 0.266s0.651 0.78 0.651 1.332v23.033c0 0.474-0.158 0.913-0.474 1.317s-0.701 0.666-1.155 0.785l-12.523 3.405c-0.197 0.059-0.4 0.099-0.607 0.118s-0.39 0.030-0.548 0.030c-0.217 0-0.429-0.015-0.636-0.044s-0.39-0.064-0.548-0.104l-12.197-3.375c-0.454-0.138-0.839-0.41-1.155-0.814s-0.474-0.844-0.474-1.317v-23.033c0-0.553 0.217-0.997 0.651-1.332s0.928-0.424 1.48-0.266l12.197 3.375c0.158 0.039 0.38 0.059 0.666 0.059s0.508-0.020 0.666-0.059l12.523-3.375zM14.211 28.543v-23.003c-0.059 0-0.123-0.010-0.192-0.030s-0.133-0.030-0.192-0.030l-11.931-3.316v22.737c0 0.059 0.025 0.118 0.074 0.178s0.094 0.099 0.133 0.118l12.109 3.345zM28.421 24.901v-22.737l-12.257 3.316h-0.059v22.974l12.079-3.257c0.039-0.020 0.089-0.059 0.148-0.118s0.089-0.118 0.089-0.178zM19.007 11.046c-0.197 0-0.385-0.059-0.563-0.178s-0.296-0.286-0.355-0.503c-0.059-0.257-0.025-0.498 0.104-0.725s0.311-0.38 0.548-0.459l6.632-1.865c0.257-0.059 0.498-0.025 0.725 0.104s0.38 0.321 0.459 0.577c0.059 0.237 0.025 0.469-0.104 0.696s-0.311 0.38-0.548 0.459l-6.632 1.865c-0.039 0.020-0.084 0.030-0.133 0.030h-0.133zM19.007 16.73c-0.197 0-0.385-0.059-0.563-0.178s-0.296-0.286-0.355-0.503c-0.059-0.257-0.025-0.498 0.104-0.725s0.311-0.38 0.548-0.459l6.632-1.865c0.257-0.059 0.498-0.025 0.725 0.104s0.38 0.321 0.459 0.577c0.059 0.237 0.025 0.469-0.104 0.696s-0.311 0.38-0.548 0.459l-6.632 1.865c-0.039 0.020-0.084 0.030-0.133 0.030h-0.133zM19.007 22.414c-0.197 0-0.385-0.059-0.563-0.178s-0.296-0.286-0.355-0.503c-0.059-0.257-0.025-0.498 0.104-0.725s0.311-0.38 0.548-0.459l6.632-1.865c0.257-0.059 0.498-0.025 0.725 0.104s0.38 0.321 0.459 0.577c0.059 0.237 0.025 0.469-0.104 0.696s-0.311 0.38-0.548 0.459l-6.632 1.865c-0.039 0.020-0.084 0.030-0.133 0.030h-0.133zM11.694 9.181c0.237 0.079 0.419 0.232 0.548 0.459s0.163 0.469 0.104 0.725c-0.059 0.217-0.178 0.385-0.355 0.503s-0.365 0.178-0.563 0.178h-0.133c-0.049 0-0.094-0.010-0.133-0.030l-6.632-1.865c-0.237-0.079-0.419-0.232-0.548-0.459s-0.163-0.459-0.104-0.696c0.079-0.257 0.232-0.449 0.459-0.577s0.469-0.163 0.725-0.104l6.632 1.865zM11.694 14.865c0.237 0.079 0.419 0.232 0.548 0.459s0.163 0.469 0.104 0.725c-0.059 0.217-0.178 0.385-0.355 0.503s-0.365 0.178-0.563 0.178h-0.133c-0.049 0-0.094-0.010-0.133-0.030l-6.632-1.865c-0.237-0.079-0.419-0.232-0.548-0.459s-0.163-0.459-0.104-0.696c0.079-0.257 0.232-0.449 0.459-0.577s0.469-0.163 0.725-0.104l6.632 1.865zM11.694 20.549c0.237 0.079 0.419 0.232 0.548 0.459s0.163 0.469 0.104 0.725c-0.059 0.217-0.178 0.385-0.355 0.503s-0.365 0.178-0.563 0.178c-0.039 0-0.084 0-0.133 0s-0.094-0.010-0.133-0.030l-6.632-1.865c-0.237-0.079-0.419-0.232-0.548-0.459s-0.163-0.459-0.104-0.696c0.079-0.257 0.232-0.449 0.459-0.577s0.469-0.163 0.725-0.104l6.632 1.865z"></path>
</symbol>
<symbol id="icon-settings" viewBox="0 0 30 32">
<path d="M4.737 12.118c0.829 0.217 1.51 0.661 2.043 1.332s0.799 1.451 0.799 2.339c0 0.888-0.266 1.668-0.799 2.339s-1.214 1.115-2.043 1.332v10.539c0 0.257-0.094 0.479-0.281 0.666s-0.41 0.281-0.666 0.281c-0.257 0-0.479-0.094-0.666-0.281s-0.281-0.41-0.281-0.666v-10.539c-0.809-0.217-1.485-0.661-2.028-1.332s-0.814-1.451-0.814-2.339c0-0.888 0.271-1.668 0.814-2.339s1.219-1.115 2.028-1.332v-10.539c0-0.257 0.094-0.479 0.281-0.666s0.41-0.281 0.666-0.281c0.257 0 0.479 0.094 0.666 0.281s0.281 0.41 0.281 0.666v10.539zM3.789 17.684c0.533 0 0.982-0.188 1.347-0.563s0.548-0.819 0.548-1.332c0-0.513-0.183-0.957-0.548-1.332s-0.814-0.563-1.347-0.563c-0.533 0-0.982 0.188-1.347 0.563s-0.548 0.819-0.548 1.332c0 0.513 0.183 0.957 0.548 1.332s0.814 0.563 1.347 0.563zM16.105 17.803c0.829 0.217 1.51 0.661 2.043 1.332s0.799 1.451 0.799 2.339c0 0.888-0.266 1.668-0.799 2.339s-1.214 1.115-2.043 1.332v4.855c0 0.257-0.094 0.479-0.281 0.666s-0.41 0.281-0.666 0.281c-0.257 0-0.479-0.094-0.666-0.281s-0.281-0.41-0.281-0.666v-4.855c-0.809-0.217-1.485-0.661-2.028-1.332s-0.814-1.451-0.814-2.339c0-0.888 0.271-1.668 0.814-2.339s1.219-1.115 2.028-1.332v-16.224c0-0.257 0.094-0.479 0.281-0.666s0.41-0.281 0.666-0.281c0.257 0 0.479 0.094 0.666 0.281s0.281 0.41 0.281 0.666v16.224zM15.158 23.368c0.533 0 0.982-0.188 1.347-0.563s0.548-0.819 0.548-1.332c0-0.513-0.183-0.957-0.548-1.332s-0.814-0.563-1.347-0.563c-0.533 0-0.982 0.188-1.347 0.563s-0.548 0.819-0.548 1.332c0 0.513 0.183 0.957 0.548 1.332s0.814 0.563 1.347 0.563zM27.474 6.434c0.829 0.217 1.51 0.661 2.043 1.332s0.799 1.451 0.799 2.339c0 0.888-0.266 1.668-0.799 2.339s-1.214 1.115-2.043 1.332v16.224c0 0.257-0.094 0.479-0.281 0.666s-0.41 0.281-0.666 0.281c-0.257 0-0.479-0.094-0.666-0.281s-0.281-0.41-0.281-0.666v-16.224c-0.809-0.217-1.485-0.661-2.028-1.332s-0.814-1.451-0.814-2.339c0-0.888 0.271-1.668 0.814-2.339s1.219-1.115 2.028-1.332v-4.855c0-0.257 0.094-0.479 0.281-0.666s0.41-0.281 0.666-0.281c0.257 0 0.479 0.094 0.666 0.281s0.281 0.41 0.281 0.666v4.855zM26.526 12c0.533 0 0.982-0.188 1.347-0.563s0.548-0.819 0.548-1.332c0-0.513-0.183-0.957-0.548-1.332s-0.814-0.563-1.347-0.563c-0.533 0-0.982 0.188-1.347 0.563s-0.548 0.819-0.548 1.332c0 0.513 0.183 0.957 0.548 1.332s0.814 0.563 1.347 0.563z"></path>
</symbol>
<symbol id="icon-translation" viewBox="0 0 34 32">
<path d="M7.214 17.285l-0.027-0.068h3.952l-0.023 0.065c-0.362 1.032-0.979 1.994-1.837 2.859l-0.033 0.034-0.036-0.033c-0.903-0.832-1.575-1.794-1.997-2.857v0zM4.219 22.85l0.555 1.14c1.836-0.559 3.326-1.25 4.425-2.055l0.030-0.021 0.028 0.021c1.179 0.85 2.62 1.529 4.285 2.015l0.769-1.28c-1.552-0.391-2.887-0.946-3.968-1.651l-0.049-0.032 0.042-0.043c1.122-1.156 1.882-2.398 2.26-3.69l0.010-0.036h0.617v-1.164h-3.261v-1.555h-1.425v1.555h-4.098v1.164h1.31l0.010 0.036c0.147 0.513 0.432 1.126 0.849 1.822s0.939 1.351 1.553 1.946l0.043 0.042-0.048 0.035c-0.986 0.688-2.309 1.279-3.934 1.753v0zM22.796 11.295l1.493-4.209 1.452 4.209h-2.945zM23.675 4.941l-3.478 9.486h1.52l0.666-1.906h3.744l0.666 1.906h1.506l-3.464-9.486h-1.159zM31.955 16.165c0 0.362-0.293 0.655-0.654 0.655h-2.382v2.919c0 0.044-0.027 0.084-0.066 0.103-0.048 0.023-0.075 0.025-0.122-0.015l-3.62-3.007h-7.902c-0.361 0-0.654-0.293-0.654-0.655v-12.896c0-0.362 0.293-0.655 0.654-0.655h14.093c0.361 0 0.654 0.293 0.654 0.655v12.896zM31.301 1.046h-14.092c-1.225 0-2.222 0.997-2.222 2.223v12.896c0 1.227 0.998 2.223 2.222 2.223h7.336l3.183 2.645c0.302 0.251 0.684 0.389 1.076 0.389 0.245 0 0.492-0.055 0.715-0.16 0.588-0.276 0.97-0.874 0.97-1.523v-1.351h0.813c1.225 0 2.223-0.997 2.223-2.223v-12.896c0-1.226-0.998-2.223-2.223-2.223v0zM16.969 20.14v5.558c0 0.361-0.294 0.655-0.655 0.655h-7.717c-0.184 0-0.361 0.063-0.502 0.181l-3.398 2.823c-0.061 0.050-0.094 0.031-0.125 0.016-0.040-0.018-0.066-0.060-0.066-0.104v-2.133c0-0.434-0.351-0.784-0.783-0.784h-1.499c-0.362 0-0.655-0.294-0.655-0.655v-12.896c0-0.361 0.293-0.655 0.655-0.655h10.999v-1.568h-10.999c-1.226 0-2.223 0.998-2.223 2.223v12.896c0 1.226 0.998 2.223 2.223 2.223h0.714v1.349c0 0.65 0.38 1.248 0.968 1.523 0.226 0.106 0.466 0.16 0.716 0.16 0.391 0 0.773-0.138 1.076-0.389l3.183-2.644h7.434c1.226 0 2.223-0.997 2.223-2.223v-5.546h-1.329c-0.080 0-0.16-0.007-0.239-0.012v0z"></path>
</symbol>
</defs>
</svg>
