<svg aria-hidden="true" style="position: absolute; width: 0; height: 0; overflow: hidden;" version="1.1" xmlns="http://www.w3.org/2000/svg" xmlns:xlink="http://www.w3.org/1999/xlink">
<defs>
<symbol id="icon--rewind" viewBox="0 0 29 32">
<title>rewind</title>
<path d="M2.157 20.128c-0.843-1.76-1.315-3.731-1.315-5.812 0-7.441 6.032-13.474 13.474-13.474s13.474 6.032 13.474 13.474c0 7.441-6.032 13.474-13.474 13.474v-5.053c4.651 0 8.421-3.77 8.421-8.421s-3.77-8.421-8.421-8.421c-4.651 0-8.421 3.77-8.421 8.421 0 1.28 0.282 2.509 0.819 3.63l-4.557 2.182z"></path>
<path d="M18.62 17.629c-0.067 0-0.137 0.010-0.212 0.031s-0.141 0.052-0.2 0.094l-9.177 5.574c-0.116 0.067-0.208 0.16-0.274 0.281s-0.1 0.251-0.1 0.393c0 0.141 0.033 0.272 0.1 0.393s0.158 0.214 0.274 0.281l9.19 5.574c0.058 0.042 0.125 0.073 0.2 0.094s0.145 0.031 0.212 0.031c0.067 0 0.133-0.008 0.2-0.025s0.129-0.042 0.187-0.075c0.133-0.075 0.235-0.175 0.305-0.299s0.106-0.258 0.106-0.399l-0.012-11.147c0-0.141-0.035-0.274-0.106-0.399s-0.172-0.224-0.305-0.299c-0.058-0.033-0.121-0.058-0.187-0.075s-0.133-0.025-0.2-0.025z"></path>
</symbol>
<symbol id="icon--delete" viewBox="0 0 30 32">
<title>delete</title>
<path d="M3.368 28.632c0 1.858 1.511 3.368 3.368 3.368h16.842c1.858 0 3.368-1.511 3.368-3.368v-20.211h-23.579v20.211zM6.737 11.789h16.842l0.002 16.842h-16.844v-16.842zM20.211 3.368h10.105v3.368h-30.316v-3.368h10.105v-3.368h10.105v3.368zM10.105 15.158v10.105h3.368v-10.105h-3.368zM16.842 15.158v10.105h3.368v-10.105h-3.368z"></path>
</symbol>
<symbol id="icon--edit" viewBox="0 0 32 32">
<title>edit</title>
<path d="M29.248 9.848l-7.109-7.086 1.293-1.293c1.898-1.896 5.202-1.894 7.098 0 1.957 1.957 1.957 5.142 0 7.098l-1.282 1.282zM26.973 12.12l-14.574 14.574c-0.125 0.123-0.262 0.224-0.416 0.301l-9.669 4.835c-0.616 0.309-1.36 0.186-1.846-0.301s-0.608-1.23-0.299-1.846l4.832-9.669c0.078-0.154 0.179-0.291 0.301-0.416l14.574-14.574 7.098 7.096z"></path>
</symbol>
<symbol id="icon--info" viewBox="0 0 32 32">
<title>info</title>
<path d="M16 32c8.822 0 16-7.176 16-16 0-8.822-7.178-16-16-16s-16 7.179-16 16c0 8.824 7.178 16 16 16zM16 3.2c7.058 0 12.8 5.742 12.8 12.8s-5.742 12.8-12.8 12.8c-7.058 0-12.8-5.742-12.8-12.8s5.742-12.8 12.8-12.8zM17.6 20.8v-6.4c0-0.883-0.715-1.6-1.6-1.6h-3.2v3.2h1.6v4.8h-3.2v3.2h9.6v-3.2h-3.2zM16 11.6c1.105 0 2-0.895 2-2s-0.895-2-2-2c-1.105 0-2 0.895-2 2s0.895 2 2 2z"></path>
</symbol>
<symbol id="icon--pause" viewBox="0 0 28 32">
<title>pause</title>
<path d="M1.408 0.941h9.412v30.118h-9.412v-30.118zM17.415 0.941h9.412v30.118h-9.412v-30.118z"></path>
</symbol>
<symbol id="icon--pdf" viewBox="0 0 27 32">
<title>pdf</title>
<path d="M18.271 0h-12.853c-1.878 0-3.406 1.529-3.406 3.406v12.594h-0.333c-0.758 0-1.372 0.614-1.372 1.372v8.323c0 0.758 0.615 1.372 1.372 1.372h0.333v1.526c0 1.879 1.528 3.406 3.406 3.406h17.537c1.876 0 3.405-1.527 3.405-3.406v-20.534l-8.089-8.061zM3.908 18.875c0.402-0.068 0.968-0.119 1.764-0.119 0.805 0 1.379 0.154 1.764 0.462 0.368 0.291 0.617 0.771 0.617 1.336s-0.188 1.045-0.531 1.37c-0.446 0.419-1.105 0.608-1.875 0.608-0.172 0-0.325-0.009-0.446-0.025v2.064h-1.293v-5.696zM22.955 29.914h-17.537c-0.727 0-1.319-0.592-1.319-1.32v-1.526h16.348c0.758 0 1.372-0.614 1.372-1.372v-8.323c0-0.759-0.615-1.372-1.372-1.372h-16.348v-12.594c0-0.726 0.592-1.318 1.319-1.318l12.072-0.013v4.462c0 1.303 1.058 2.362 2.362 2.362l4.371-0.013 0.049 19.707c0 0.728-0.591 1.32-1.318 1.32zM8.886 24.544v-5.67c0.48-0.076 1.105-0.119 1.764-0.119 1.096 0 1.807 0.197 2.364 0.616 0.599 0.446 0.976 1.156 0.976 2.176 0 1.105-0.402 1.867-0.959 2.338-0.608 0.505-1.533 0.745-2.663 0.745-0.677 0-1.156-0.043-1.482-0.086zM18.233 21.187v1.062h-2.073v2.321h-1.31v-5.772h3.528v1.070h-2.218v1.319h2.073zM10.787 19.757c1.122 0 1.824 0.634 1.816 1.833 0 1.379-0.771 2.029-1.953 2.021-0.163 0-0.343 0-0.454-0.026v-3.776c0.111-0.026 0.3-0.051 0.591-0.051zM6.76 20.588c0 0.591-0.428 0.941-1.122 0.941-0.189 0-0.326-0.008-0.437-0.033v-1.705c0.094-0.025 0.274-0.051 0.54-0.051 0.651 0 1.019 0.317 1.019 0.848z"></path>
</symbol>
<symbol id="icon--play" viewBox="0 0 27 32">
<title>play</title>
<path d="M2.408 0.67c0.16 0 0.331 0.025 0.511 0.075s0.341 0.125 0.481 0.225l22.123 13.436c0.281 0.16 0.501 0.386 0.661 0.676s0.24 0.606 0.24 0.947c0 0.341-0.080 0.656-0.24 0.947s-0.381 0.516-0.661 0.676l-22.153 13.436c-0.14 0.1-0.301 0.175-0.481 0.225s-0.351 0.075-0.511 0.075c-0.16 0-0.321-0.020-0.481-0.060s-0.311-0.1-0.451-0.18c-0.321-0.18-0.566-0.421-0.736-0.721s-0.256-0.621-0.256-0.962l0.030-26.872c0-0.341 0.085-0.661 0.256-0.962s0.416-0.541 0.736-0.721c0.14-0.080 0.291-0.14 0.451-0.18s0.321-0.060 0.481-0.060z"></path>
</symbol>
<symbol id="icon--required" viewBox="0 0 27 32">
<title>required</title>
<path d="M26.382 19.599l-6.217-3.587 6.217-3.592c0.272-0.155 0.366-0.503 0.208-0.775l-2.847-4.932c-0.076-0.132-0.2-0.228-0.346-0.265-0.146-0.040-0.302-0.019-0.432 0.056l-6.217 3.589v-7.177c0-0.315-0.256-0.569-0.569-0.569h-5.694c-0.314 0-0.569 0.254-0.569 0.569v7.174l-6.215-3.587c-0.131-0.075-0.287-0.096-0.432-0.056-0.146 0.038-0.27 0.133-0.346 0.265l-2.847 4.932c-0.157 0.272-0.064 0.621 0.208 0.775l6.215 3.592-6.215 3.587c-0.272 0.159-0.366 0.506-0.208 0.779l2.847 4.932c0.076 0.129 0.2 0.224 0.346 0.263 0.145 0.038 0.301 0.019 0.432-0.057l6.215-3.587v7.179c0 0.314 0.255 0.569 0.569 0.569h5.694c0.313 0 0.569-0.255 0.569-0.569v-7.179l6.217 3.587c0.13 0.076 0.286 0.095 0.432 0.057 0.146-0.039 0.27-0.134 0.346-0.263l2.847-4.932c0.075-0.132 0.096-0.287 0.056-0.433-0.039-0.145-0.134-0.271-0.264-0.346z"></path>
</symbol>
<symbol id="icon--add" viewBox="0 0 32 32">
<title>add</title>
<path d="M28 14h-10v-10h-4v10h-10v4h10v10h4v-10h10z"></path>
</symbol>
<symbol id="icon--alert" viewBox="0 0 32 32">
<title>alert</title>
<path d="M16 2.667c-7.352 0-13.333 5.981-13.333 13.333 0 7.353 5.981 13.333 13.333 13.333s13.333-5.98 13.333-13.333c0-7.352-5.981-13.333-13.333-13.333zM14.667 8h2.667v9.333h-2.667v-9.333zM16 23c-0.92 0-1.667-0.745-1.667-1.667 0-0.92 0.747-1.667 1.667-1.667s1.667 0.747 1.667 1.667c0 0.921-0.747 1.667-1.667 1.667z"></path>
</symbol>
<symbol id="icon--arrow-left" viewBox="0 0 32 32">
<title>arrow-left</title>
<path d="M22.667 8l-2.717-2.667-10.616 10.667 10.616 10.667 2.717-2.667-8-8z"></path>
</symbol>
<symbol id="icon--arrow-right" viewBox="0 0 32 32">
<title>arrow-right</title>
<path d="M9.333 8l2.717-2.667 10.616 10.667-10.616 10.667-2.717-2.667 8-8z"></path>
</symbol>
<symbol id="icon--check" viewBox="0 0 32 32">
<title>check</title>
<path d="M14.436 25.383l-8.936-6.702 2.681-3.574 5.362 4.021 9.383-12.511 3.574 2.681z"></path>
</symbol>
<symbol id="icon--close" viewBox="0 0 32 32">
<title>close</title>
<path d="M27.22 8.151l-3.372-3.37-7.848 7.849-7.849-7.849-3.372 3.37 7.849 7.849-7.849 7.849 3.372 3.37 7.849-7.849 7.848 7.849 3.372-3.37-7.849-7.849z"></path>
</symbol>
<symbol id="icon--date" viewBox="0 0 32 32">
<title>date</title>
<path d="M28 5.333h-2.667v-2.667h-2.667v6.667h-2.667v-4h-8v-2.667h-2.667v6.667h-2.667v-4h-2.667c-1.471 0-2.667 1.197-2.667 2.667v20c0 1.469 1.196 2.667 2.667 2.667h24c1.471 0 2.667-1.197 2.667-2.667v-20c0-1.471-1.196-2.667-2.667-2.667zM10.667 26.667h-5.333v-5.333h5.333v5.333zM10.667 18.667h-5.333v-5.333h5.333v5.333zM18.667 26.667h-5.333v-5.333h5.333v5.333zM18.667 18.667h-5.333v-5.333h5.333v5.333zM26.667 18.667h-5.333v-5.333h5.333v5.333z"></path>
</symbol>
<symbol id="icon--download" viewBox="0 0 32 32">
<title>download</title>
<path d="M21.144 20h8.189v9.333h-26.667v-9.333h8.189c0.595 2.297 2.663 4 5.144 4s4.549-1.703 5.144-4zM20.391 11.057l1.885 1.885-6.276 6.276-6.276-6.276 1.885-1.885 3.057 3.057v-11.448h2.667v11.448l3.057-3.057z"></path>
</symbol>
<symbol id="icon--dropdown" viewBox="0 0 32 32">
<title>dropdown</title>
<path d="M7.978 9.333l8.689 9.117 8.689-9.117 2.644 2.775-11.333 11.892-11.333-11.892 2.644-2.775z"></path>
</symbol>
<symbol id="icon--expand" viewBox="0 0 32 32">
<title>expand</title>
<path d="M29.333 2.667v8h-2.667v-3.448l-7.057 7.057-1.885-1.885 7.057-7.057h-3.448v-2.667h8zM10.667 26.667v2.667h-8v-8h2.667v3.448l7.057-7.057 1.885 1.885-7.057 7.057h3.448zM5.333 7.219v3.448h-2.667v-8h8v2.667h-3.448l7.057 7.057-1.885 1.885-7.057-7.057zM21.333 29.333v-2.667h3.448l-7.057-7.057 1.885-1.885 7.057 7.057v-3.448h2.667v8h-8z"></path>
</symbol>
<symbol id="icon--hamburger" viewBox="0 0 32 32">
<title>hamburger</title>
<path d="M0 2.667h32v4h-32v-4zM0 13.333h32v4h-32v-4zM0 24h32v4h-32v-4z"></path>
</symbol>
<symbol id="icon--home" viewBox="0 0 32 32">
<title>home</title>
<path d="M28 17.333v13.333h-8v-8h-8v8h-8v-13.333h-4l16-16 16 16h-4zM26.667 9.457v-6.791h-4v2.791l4 4z"></path>
</symbol>
<symbol id="icon--like" viewBox="0 0 32 32">
<title>like</title>
<path d="M21.333 5.335c-2.125 0-4.093 1.116-5.333 2.773-1.24-1.657-3.208-2.773-5.333-2.773-3.676 0-6.667 2.991-6.667 6.667 0 7.321 10.832 14.176 11.295 14.464 0.216 0.135 0.461 0.203 0.705 0.203s0.489-0.068 0.705-0.203c0.463-0.288 11.295-7.143 11.295-14.464 0-3.676-2.991-6.667-6.667-6.667z"></path>
</symbol>
<symbol id="icon--more-options" viewBox="0 0 32 32">
<title>more-options</title>
<path d="M6.667 18.667c-1.473 0-2.667-1.194-2.667-2.667s1.194-2.667 2.667-2.667c1.473 0 2.667 1.194 2.667 2.667s-1.194 2.667-2.667 2.667zM16 18.667c-1.473 0-2.667-1.194-2.667-2.667s1.194-2.667 2.667-2.667c1.473 0 2.667 1.194 2.667 2.667s-1.194 2.667-2.667 2.667zM25.333 18.667c-1.473 0-2.667-1.194-2.667-2.667s1.194-2.667 2.667-2.667c1.473 0 2.667 1.194 2.667 2.667s-1.194 2.667-2.667 2.667z"></path>
</symbol>
<symbol id="icon--phone" viewBox="0 0 32 32">
<title>phone</title>
<path d="M24 5.332c0-1.473-1.195-2.667-2.667-2.667h-10.667c-1.472 0-2.667 1.195-2.667 2.667v21.333c0 1.472 1.195 2.667 2.667 2.667h10.667c1.472 0 2.667-1.195 2.667-2.667v-21.333zM21.333 23.999h-10.667v-16h10.667v16z"></path>
</symbol>
<symbol id="icon--photo" viewBox="0 0 32 32">
<title>photo</title>
<path d="M16 12c-2.941 0-5.333 2.392-5.333 5.333 0 2.943 2.392 5.333 5.333 5.333s5.333-2.391 5.333-5.333c0-2.94-2.392-5.333-5.333-5.333zM26.667 8.001h-2.573c-0.891 0-1.724-0.445-2.219-1.187l-1.083-1.627c-0.495-0.741-1.328-1.188-2.219-1.188h-5.147c-0.891 0-1.724 0.447-2.219 1.187l-1.083 1.627c-0.495 0.743-1.328 1.187-2.219 1.187h-2.573c-1.473 0-2.667 1.195-2.667 2.667v14.667c0 1.472 1.193 2.667 2.667 2.667h21.333c1.472 0 2.667-1.195 2.667-2.667v-14.667c0-1.471-1.195-2.665-2.667-2.665zM16 25.333c-4.412 0-8-3.588-8-8 0-4.411 3.588-8 8-8s8 3.589 8 8c0 4.413-3.588 8-8 8z"></path>
</symbol>
<symbol id="icon--question" viewBox="0 0 32 32">
<title>question</title>
<path d="M16 2.667c-7.352 0-13.333 5.983-13.333 13.333 0 7.353 5.981 13.333 13.333 13.333s13.333-5.98 13.333-13.333c0-7.351-5.981-13.333-13.333-13.333zM16 24.333c-0.92 0-1.667-0.745-1.667-1.667 0-0.92 0.747-1.667 1.667-1.667s1.667 0.747 1.667 1.667c0 0.921-0.747 1.667-1.667 1.667zM17.333 18.5v1.5h-2.667v-4h1.333c1.472 0 2.667-1.196 2.667-2.667 0-1.472-1.195-2.667-2.667-2.667s-2.667 1.195-2.667 2.667h-2.667c0-2.94 2.393-5.333 5.333-5.333s5.333 2.393 5.333 5.333c0 2.481-1.703 4.572-4 5.167z"></path>
</symbol>
<symbol id="icon--search" viewBox="0 0 32 32">
<title>search</title>
<path d="M30.667 27.79l-7.645-7.584c1.438-1.962 2.288-4.374 2.288-6.98 0-6.557-5.378-11.892-11.989-11.892-6.61 0-11.988 5.335-11.988 11.892 0 6.558 5.378 11.892 11.988 11.892 2.506 0 4.833-0.766 6.76-2.075l7.685 7.624 2.9-2.877zM5.333 13.333c0-4.411 3.589-8 8-8s8 3.589 8 8c0 4.411-3.589 8-8 8-4.412 0-8-3.589-8-8z"></path>
</symbol>
<symbol id="icon--send" viewBox="0 0 32 32">
<title>send</title>
<path d="M28 14.667h-19.076c-0.468 0-0.901-0.247-1.143-0.648l-4.924-8.207c-0.289-0.48-0.245-1.092 0.108-1.525 0.352-0.435 0.941-0.603 1.471-0.419l24 8.208c0.615 0.212 0.987 0.839 0.879 1.479-0.108 0.643-0.664 1.112-1.315 1.112zM8.924 17.333h19.076c0.652 0 1.208 0.468 1.316 1.112 0.108 0.641-0.264 1.268-0.879 1.481l-24 8.205c-0.531 0.183-1.119 0.016-1.472-0.419s-0.397-1.047-0.109-1.525l4.925-8.209c0.24-0.397 0.673-0.645 1.143-0.645z"></path>
</symbol>
<symbol id="icon--settings" viewBox="0 0 32 32">
<title>settings</title>
<path d="M19.333 7.999c0 0.46 0.063 0.903 0.161 1.333h-16.828v-2.667h16.828c-0.099 0.431-0.161 0.873-0.161 1.333zM19.333 23.999c0 0.46 0.063 0.903 0.161 1.333h-16.828v-2.667h16.828c-0.099 0.431-0.161 0.873-0.161 1.333zM6 15.999c0 0.46 0.063 0.903 0.161 1.333h-3.495v-2.667h3.495c-0.099 0.431-0.161 0.873-0.161 1.333zM17.839 14.665h11.495v2.667h-11.495c0.099-0.431 0.161-0.873 0.161-1.333s-0.063-0.903-0.161-1.333zM25.333 11.999c-2.209 0-4-1.791-4-4s1.791-4 4-4c2.209 0 4 1.791 4 4s-1.791 4-4 4zM12 19.999c-2.209 0-4-1.791-4-4s1.791-4 4-4c2.209 0 4 1.791 4 4s-1.791 4-4 4zM25.333 27.999c-2.209 0-4-1.791-4-4s1.791-4 4-4c2.209 0 4 1.791 4 4s-1.791 4-4 4z"></path>
</symbol>
<symbol id="icon--share" viewBox="0 0 32 32">
<title>share</title>
<path d="M24 18.667c-1.6 0-3.021 0.721-4 1.841l-6.789-3.393c0.079-0.359 0.123-0.731 0.123-1.115s-0.044-0.755-0.123-1.116l6.789-3.393c0.979 1.12 2.4 1.843 4 1.843 2.94 0 5.333-2.393 5.333-5.333 0-2.941-2.393-5.333-5.333-5.333s-5.333 2.392-5.333 5.333c0 0.383 0.044 0.755 0.123 1.115l-6.789 3.393c-0.979-1.119-2.4-1.841-4-1.841-2.94 0-5.333 2.392-5.333 5.333 0 2.94 2.393 5.333 5.333 5.333 1.6 0 3.021-0.724 4-1.844l6.789 3.395c-0.079 0.361-0.123 0.733-0.123 1.116 0 2.94 2.393 5.333 5.333 5.333s5.333-2.393 5.333-5.333c0-2.94-2.393-5.333-5.333-5.333z"></path>
</symbol>
<symbol id="icon--star" viewBox="0 0 32 32">
<title>star</title>
<path d="M29.232 11.491c-0.205-0.497-0.693-0.823-1.232-0.823h-7.176l-3.632-7.263c-0.452-0.903-1.933-0.903-2.385 0l-3.631 7.263h-7.176c-0.539 0-1.027 0.325-1.232 0.823s-0.092 1.073 0.289 1.453l6.112 6.112-2.451 8.58c-0.153 0.537 0.044 1.113 0.495 1.443 0.453 0.331 1.063 0.343 1.525 0.032l7.261-4.84 7.26 4.84c0.224 0.149 0.481 0.224 0.74 0.224 0.276 0 0.552-0.085 0.787-0.256 0.451-0.329 0.648-0.905 0.495-1.443l-2.451-8.58 6.112-6.112c0.381-0.38 0.495-0.956 0.289-1.453z"></path>
</symbol>
<symbol id="icon--sync" viewBox="0 0 32 32">
<title>sync</title>
<path d="M10.667 10.668c-2.94 0-5.333 2.393-5.333 5.333h-2.667c0-4.412 3.588-8 8-8h10.115l-3.057-3.057 1.885-1.885 5.333 5.333c0.521 0.521 0.521 1.364 0 1.885l-5.333 5.333-1.885-1.885 3.057-3.057h-10.115zM26.667 16.001h2.667c0 4.412-3.588 8-8 8h-10.115l3.057 3.057-1.885 1.885-5.333-5.333c-0.521-0.521-0.521-1.364 0-1.885l5.333-5.333 1.885 1.885-3.057 3.057h10.115c2.94 0 5.333-2.393 5.333-5.333z"></path>
</symbol>
<symbol id="icon--tag" viewBox="0 0 32 32">
<title>tag</title>
<path d="M28.943 17.724l-14.667-14.667c-0.251-0.251-0.588-0.391-0.943-0.391h-9.333c-0.737 0-1.333 0.596-1.333 1.333v9.333c0 0.355 0.14 0.692 0.391 0.943l14.667 14.667c0.26 0.26 0.601 0.391 0.943 0.391s0.683-0.131 0.943-0.391l9.333-9.333c0.521-0.521 0.521-1.364 0-1.885zM9.333 12c-1.475 0-2.667-1.195-2.667-2.667 0-1.475 1.192-2.667 2.667-2.667 1.472 0 2.667 1.192 2.667 2.667 0 1.472-1.195 2.667-2.667 2.667z"></path>
</symbol>
<symbol id="icon--unlocked" viewBox="0 0 32 32">
<title>unlocked</title>
<path d="M22.667 14.667h-10.667v-5.333c0-2.205 1.795-4 4-4s4 1.795 4 4v1.333h2.667v-1.333c0-3.676-2.991-6.667-6.667-6.667s-6.667 2.991-6.667 6.667v5.333c-1.471 0-2.667 1.195-2.667 2.667v9.333c0 1.471 1.196 2.667 2.667 2.667h13.333c1.472 0 2.667-1.196 2.667-2.667v-9.333c0-1.472-1.195-2.667-2.667-2.667zM16 24c-1.104 0-2-0.896-2-2s0.896-2 2-2c1.104 0 2 0.896 2 2s-0.896 2-2 2z"></path>
</symbol>
<symbol id="icon--upload" viewBox="0 0 32 32">
<title>upload</title>
<path d="M22.276 8.391l-1.885 1.885-3.057-3.057v12.781h-2.667v-12.781l-3.057 3.057-1.885-1.885 6.276-6.276 6.276 6.276zM21.144 20h8.189v9.333h-26.667v-9.333h8.189c0.595 2.297 2.663 4 5.144 4s4.549-1.703 5.144-4z"></path>
</symbol>
<symbol id="icon--user" viewBox="0 0 32 32">
<title>user</title>
<path d="M16.003 16.008c-2.94 0-5.333-2.393-5.333-5.333s2.392-5.333 5.333-5.333c2.941 0 5.333 2.393 5.333 5.333s-2.392 5.333-5.333 5.333zM16.003 17.341c6.281 0 10.667 3.289 10.667 8v1.333h-21.333v-1.333c0-4.711 4.387-8 10.667-8z"></path>
</symbol>
<symbol id="icon--zoom" viewBox="0 0 32 32">
<title>zoom</title>
<path d="M28.552 24.781l-6.036-6.036c0.96-1.624 1.484-3.476 1.484-5.412 0-2.849-1.111-5.528-3.125-7.541-2.013-2.016-4.692-3.125-7.541-3.125s-5.528 1.109-7.541 3.125c-2.016 2.013-3.125 4.692-3.125 7.541s1.109 5.528 3.125 7.541c2.013 2.016 4.692 3.125 7.541 3.125 1.936 0 3.788-0.524 5.412-1.484l6.036 6.035c0.503 0.505 1.173 0.783 1.885 0.783s1.383-0.277 1.885-0.781c0.504-0.504 0.781-1.172 0.781-1.885 0-0.712-0.277-1.381-0.781-1.885zM18.667 14.667h-4v4h-2.667v-4h-4v-2.667h4v-4h2.667v4h4v2.667z"></path>
</symbol>
</defs>
</svg>
