<?xml version="1.0" encoding="utf-8"?>
<!-- Generator: Adobe Illustrator 17.0.0, SVG Export Plug-In . SVG Version: 6.00 Build 0)  -->
<!DOCTYPE svg PUBLIC "-//W3C//DTD SVG 1.1//EN" "http://www.w3.org/Graphics/SVG/1.1/DTD/svg11.dtd">
<svg version="1.1" id="Layer_1" xmlns="http://www.w3.org/2000/svg" xmlns:xlink="http://www.w3.org/1999/xlink" x="0px" y="0px"
	 width="132.32px" height="28.17px" viewBox="0 0 132.32 28.17" enable-background="new 0 0 132.32 28.17" xml:space="preserve">
<g>
	<path fill-rule="evenodd" clip-rule="evenodd" fill="#ffffff" d="M8.05,4.26L2.72,28.17h5.65l0.32-1.5
		c1.7,0.59,3.32,1.12,4.82,1.12c5.81,0,10.37-8.3,10.37-17.82c0-5.2-2.02-9.97-10.81-9.97C6.47,0,0,4.69,0,9.6
		c0,2.66,1.18,3.58,3.43,3.58c-0.04-0.33-0.55-0.63-0.55-2.51c0-5.61,4.27-8.97,10.67-8.97C18.09,1.7,19,4.32,19,8.94
		c0,7.08-2.88,15.97-7.59,15.97c-0.75,0-1.5-0.22-2.25-0.74L13.9,3.48L8.05,4.26z"/>
	<path fill-rule="evenodd" clip-rule="evenodd" fill="#ffffff" d="M36,12.89c-0.04,2.82-2.78,5.88-6.66,5.92
		c0.89-3.65,2.83-8.02,5.19-8.02c1.26,0,1.47,1.35,1.47,2.17V12.89z M28.88,21.95c0-0.45,0.04-1.01,0.12-1.61
		c4.01-0.45,8.88-3.07,8.88-7.64c0-2.58-1.44-3.79-4.74-3.79c-7.19,0-9.14,8.25-9.14,13.01c0,3.22,1.88,5.94,5.43,5.94
		c5.43,0,8.78-3.77,10.89-7.63h-1.67c-1.21,2.77-4.25,4.94-6.32,4.94C30.69,25.17,28.88,24.42,28.88,21.95z"/>
	<path fill-rule="evenodd" clip-rule="evenodd" fill="#ffffff" d="M62.81,14.58c0.03-0.31,0.07-0.58,0.07-0.89
		c0-2.58-2.01-4.73-3.84-4.73c-1.7,0-3.66,1.15-5.29,2.44c-0.82-1.44-2.3-2.44-3.67-2.44c-1.59,0-3.29,0.89-4.77,1.96l0.41-1.96
		h-5.33l-3.92,18.81h5.33l3.18-15.23c0.74-0.53,1.37-0.8,2.25-0.8c1,0,1.71,0.88,1.71,2.26c0,0.31-0.04,0.65-0.11,1l-2.67,12.77
		h5.37l2.74-13.19c0.03-0.27,0.07-0.54,0.07-0.81c0-0.46-0.07-0.88-0.19-1.34c0.71-0.46,1.34-0.69,2.15-0.69c1,0,1.7,0.88,1.7,2.26
		c0,0.31-0.03,0.65-0.11,1l-1.4,6.9C56.07,22.63,56,23.25,56,23.86c0,2.72,1.55,3.91,4.17,3.91c2.82,0,6.15-4.72,7.85-6.79h-1.74
		c-0.85,1.65-2.41,3.92-3.89,3.92c-1.18,0-1.51-0.7-1.51-1.58c0-0.46,0.07-0.96,0.18-1.42L62.81,14.58z"/>
	<path fill-rule="evenodd" clip-rule="evenodd" fill="#ffffff" d="M73.48,24.01c-1.52,0-2.6-0.59-2.6-2.79
		c0-2.94,1.55-10.43,5.19-10.43c0.91,0,1.27,0.7,1.37,1.91C76.56,13.07,76,14.2,76,15.27c0,0.79,0.43,1.52,1.37,1.52
		C76.98,20.42,75.85,24.01,73.48,24.01z M75.92,8.91c-5.34,0-9.92,3.61-9.92,12.64c0,4.43,1.69,6.14,5.65,6.14
		c3.89,0,7.51-3.76,8.13-11.14c2.13-0.58,4.06-1.8,5.2-3.23l-0.14-0.77c-1.37,0.55-2.15,1.8-3.89,1.8c-0.52,0-0.85-0.11-1.07-0.33
		C79.81,11.34,79.03,8.91,75.92,8.91z"/>
	<path fill-rule="evenodd" clip-rule="evenodd" fill="#ffffff" d="M85.78,20.69c0-1.11-0.33-1.77-1.22-2.06
		c0.81-1.83,1.43-4.18,2.54-5.98c0.26,4.54,1.9,6.47,1.9,8.73c0,2.82-1.78,4.38-3.02,4.38c-1.94,0-3.1-0.97-3.1-3.14
		c0.43,0.21,0.87,0.32,1.31,0.32C84.63,23.03,85.78,22.08,85.78,20.69z M85.75,10.01c-0.64,2.79-1.49,6.05-2.83,8.44
		c-1.49,0.11-2.82,1.8-2.82,4.73c0,3.47,2.08,4.52,6.56,4.52c3.84,0,5.75-1.21,6.62-3.13c1.41-1.24,2.89-2.53,3.93-3.33l-0.96-1.25
		c-0.45,0.51-1.37,1.47-2.41,2.38c0.04-0.25,0.04-0.51,0.04-0.77c0.42-4.29-2.1-6.12-2.1-12.18V8.91L85.75,10.01z"/>
	<path fill-rule="evenodd" clip-rule="evenodd" fill="#ffffff" d="M99,4.87c0,1.62,1.3,2.92,2.92,2.92c1.63,0,2.96-1.3,2.96-2.92
		c0-1.63-1.33-2.96-2.96-2.96C100.3,1.91,99,3.24,99,4.87z M98.61,9.73L96.2,22.2c-0.13,0.7-0.2,1.32-0.2,1.87
		c0,2.46,1.61,3.53,4.18,3.53c2.81,0,6.99-4.41,8.69-6.1h-1.26c-1.48,1.18-3.4,3.23-4.88,3.23c-1.48,0-1.85-0.59-1.85-1.39
		c0-0.33,0.07-0.74,0.15-1.14l2.66-12.47H98.61z"/>
	<path fill-rule="evenodd" clip-rule="evenodd" fill="#ffffff" d="M109.86,4.67l-1.11,5.24h-1.22l-0.29,0.88h1.22
		c-0.63,3.25-2.56,11.26-2.56,13.26c0,2.48,1.74,3.55,4.59,3.55c2.89,0,7.07-4.46,8.77-6.2H118c-1.48,1.21-3.4,3.33-4.88,3.33
		c-1.48,0-1.85-0.57-1.85-1.44c0-0.19-0.04-0.56,2.51-12.5H116l0.3-0.88h-2.22c0.7-3.42,1.26-6,1.26-6L109.86,4.67z"/>
	<path fill-rule="evenodd" clip-rule="evenodd" fill="#ffffff" d="M128,12.89c-0.04,2.82-2.78,5.88-6.66,5.92
		c0.89-3.65,2.83-8.02,5.19-8.02c1.26,0,1.47,1.35,1.47,2.17V12.89z M120.88,21.95c0-0.45,0.04-1.01,0.12-1.61
		c4.01-0.45,8.88-3.07,8.88-7.64c0-2.58-1.44-3.79-4.74-3.79c-7.19,0-9.14,8.25-9.14,13.01c0,3.22,1.88,5.94,5.43,5.94
		c5.43,0,8.78-3.77,10.89-7.63h-1.67c-1.21,2.77-4.25,4.94-6.32,4.94C122.69,25.17,120.88,24.42,120.88,21.95z"/>
</g>
</svg>
