<?xml version="1.0" encoding="UTF-8"?>
<svg width="288px" height="53px" viewBox="0 0 288 53" version="1.1" xmlns="http://www.w3.org/2000/svg" xmlns:xlink="http://www.w3.org/1999/xlink">
    <!-- Generator: Sketch 42 (36781) - http://www.bohemiancoding.com/sketch -->
    <title>kunstmaan_bundles</title>
    <desc>Created with Sketch.</desc>
    <defs>
        <linearGradient x1="49.7970043%" y1="-40.7365729%" x2="50.1261332%" y2="103.340153%" id="linearGradient-1">
            <stop stop-color="#565555" offset="0%"></stop>
            <stop stop-color="#212121" offset="100%"></stop>
        </linearGradient>
        <linearGradient x1="49.8801598%" y1="9.59941917%" x2="50.4360852%" y2="98.5132106%" id="linearGradient-2">
            <stop stop-color="#565555" offset="0%"></stop>
            <stop stop-color="#212121" offset="100%"></stop>
        </linearGradient>
        <linearGradient x1="49.87087%" y1="-9.28849145%" x2="50.0469022%" y2="100.221617%" id="linearGradient-3">
            <stop stop-color="#565555" offset="0%"></stop>
            <stop stop-color="#212121" offset="100%"></stop>
        </linearGradient>
        <linearGradient x1="53.7262873%" y1="-7.22810734%" x2="48.0826558%" y2="99.8799435%" id="linearGradient-4">
            <stop stop-color="#565555" offset="0%"></stop>
            <stop stop-color="#212121" offset="100%"></stop>
        </linearGradient>
        <linearGradient x1="53.1791626%" y1="-63.0450051%" x2="49.1236611%" y2="100.83743%" id="linearGradient-5">
            <stop stop-color="#565555" offset="0%"></stop>
            <stop stop-color="#212121" offset="100%"></stop>
        </linearGradient>
        <linearGradient x1="52.9839603%" y1="-63.0098219%" x2="48.9716295%" y2="105.310471%" id="linearGradient-6">
            <stop stop-color="#565555" offset="0%"></stop>
            <stop stop-color="#212121" offset="100%"></stop>
        </linearGradient>
        <linearGradient x1="52.7482765%" y1="-0.0486448923%" x2="47.5746848%" y2="105.347464%" id="linearGradient-7">
            <stop stop-color="#565555" offset="0%"></stop>
            <stop stop-color="#212121" offset="100%"></stop>
        </linearGradient>
        <linearGradient x1="54.7471502%" y1="-0.812118216%" x2="48.3742636%" y2="106.295682%" id="linearGradient-8">
            <stop stop-color="#565555" offset="0%"></stop>
            <stop stop-color="#212121" offset="100%"></stop>
        </linearGradient>
        <linearGradient x1="53.3234245%" y1="-55.7491676%" x2="48.3709869%" y2="112.586016%" id="linearGradient-9">
            <stop stop-color="#565555" offset="0%"></stop>
            <stop stop-color="#212121" offset="100%"></stop>
        </linearGradient>
        <linearGradient x1="53.2005495%" y1="-45.9526646%" x2="47.4793956%" y2="111.139883%" id="linearGradient-10">
            <stop stop-color="#565555" offset="0%"></stop>
            <stop stop-color="#212121" offset="100%"></stop>
        </linearGradient>
    </defs>
    <g id="Page-1" stroke="none" stroke-width="1" fill="none" fill-rule="evenodd">
        <g id="kunstmaan_bundles" fill-rule="nonzero">
            <g id="Group" transform="translate(101.000000, 36.000000)" fill="#AA9B80">
                <path d="M0.128,16.27 L0.288,16.4 L1.318,16.001 C2.238,12.821 3.228,9.65 3.858,6.351 L5.628,6.351 L5.788,5.721 L4.058,5.721 L4.368,3.731 C4.528,2.791 4.678,1.791 5.338,1.791 C6.438,1.752 6.678,2.162 7.208,2.162 C7.668,2.162 7.798,1.722 7.798,1.322 C7.798,0.832 7.498,0.582 7.078,0.582 C5.148,0.582 3.098,2.531 2.618,5.722 L1.038,5.722 L0.858,6.352 L2.408,6.352 L0.128,16.27 Z M10.208,5.629 C7.588,5.629 5.928,7.529 5.928,9.93 C5.928,11.41 6.808,12.85 8.808,12.85 C11.758,12.85 13.078,10.709 13.078,8.55 C13.079,6.97 12.318,5.629 10.208,5.629 L10.208,5.629 Z M8.738,12.22 C7.558,12.22 7.278,11.47 7.278,10.539 C7.278,9.16 8.118,6.26 10.268,6.26 C11.538,6.26 11.718,7.071 11.718,7.84 C11.718,9.129 10.938,12.22 8.738,12.22 L8.738,12.22 Z M15.249,11.35 C15.159,11.62 14.939,12.43 14.939,12.51 C14.939,12.65 15.079,12.8 15.649,12.8 C16.119,12.8 16.319,12.76 16.459,12.56 C16.529,12.42 16.669,11.78 16.869,11.26 C17.679,9.14 18.839,7.129 19.619,7.129 L20.309,7.199 C20.829,7.199 21.059,6.699 21.059,6.32 C21.059,6.009 20.829,5.849 20.419,5.849 C19.189,5.849 17.969,8.059 17.359,8.999 L17.329,8.969 C17.529,8.198 18.019,7.019 18.019,6.389 C18.019,6.059 17.849,5.849 17.369,5.849 C16.489,5.849 15.139,7.019 14.619,7.66 L14.609,8.109 C14.849,7.839 15.449,7.199 15.849,7.199 C16.059,7.199 16.069,7.41 16.069,7.55 C16.069,7.77 15.849,8.55 15.749,8.93 L15.249,11.35 L15.249,11.35 Z M32.648,4.411 C32.768,3.44 32.928,2.491 33.118,1.331 L32.738,1.27 C32.698,2.05 32.598,2.081 32.468,2.081 C32.348,2.081 32.188,2.04 32.008,1.971 C31.458,1.501 31.028,1.311 30.268,1.311 C28.388,1.311 26.948,2.38 26.948,4.412 C26.948,7.052 30.568,8.332 30.568,10.361 C30.568,11.801 29.388,12.221 28.278,12.221 C27.008,12.221 26.128,10.822 26.128,9.341 L25.498,9.37 C25.418,10.241 25.258,11.591 25.098,12.831 L25.378,12.891 L26.168,12.221 C26.638,12.411 27.598,12.851 28.408,12.851 C30.668,12.851 31.928,11.721 31.928,9.641 C31.928,6.992 28.308,5.311 28.308,3.691 C28.308,2.541 29.038,1.941 30.288,1.941 C31.558,1.941 32.018,2.931 32.018,3.761 C32.018,4.091 31.998,4.331 31.988,4.491 L32.648,4.411 L32.648,4.411 Z M34.159,8.379 C34.139,8.19 34.099,7.93 34.099,7.789 C34.099,7.26 34.309,7.029 34.689,7.029 C35.519,7.029 36.159,8.229 36.749,11.059 C36.829,11.49 37.009,12.809 37.079,13.58 C36.639,14.029 36.019,15.05 34.929,15.05 C34.309,15.05 34.089,14.9 33.589,14.9 C33.359,14.9 32.989,15.04 32.989,15.68 C32.989,16.25 33.369,16.4 33.929,16.4 C34.659,16.4 35.109,16.22 35.729,15.68 C39.649,12.15 41.349,8.321 41.349,6.68 C41.349,6.039 41.159,5.68 40.699,5.68 C40.209,5.68 39.989,6.129 39.989,6.73 C39.989,7.28 40.269,7.67 40.269,8.35 C40.269,9.35 39.129,11.1 38.599,11.87 L38.559,11.87 L38.109,9.491 C37.769,7.65 37.249,5.68 35.469,5.68 C33.869,5.68 33.469,7.15 33.469,8.26 L33.889,8.48 L34.159,8.379 L34.159,8.379 Z M42.179,11.78 C42.049,12.18 41.959,12.43 41.959,12.56 C41.959,12.76 42.259,12.8 43.059,12.8 C43.629,12.8 43.489,12.15 44.219,10.449 C44.549,9.649 46.469,7.199 47.59,7.199 C47.9,7.199 47.969,7.309 47.969,7.51 C47.969,7.709 47.86,8.05 47.78,8.24 L46.18,11.609 C46.09,11.779 45.84,12.299 45.84,12.49 C45.84,12.699 46.11,12.8 47.27,12.8 C48.02,12.8 47.9,12.379 48.59,10.55 C49.06,9.279 50.86,7.199 51.89,7.199 C52.15,7.199 52.32,7.359 52.32,7.599 C51.911,7.689 50.87,11.288 50.87,12.049 C50.87,12.489 51.07,12.799 51.38,12.799 C52.12,12.799 52.941,12.019 54.11,10.609 L53.799,10.339 C53.6,10.549 52.779,11.448 52.42,11.448 C52.289,11.448 52.23,11.358 52.23,11.249 C52.6,10.829 53.67,7.179 53.67,6.528 C53.67,5.968 53.44,5.848 53.1,5.848 C51.95,5.848 49.161,8.298 48.629,9.478 L48.609,9.448 C48.75,8.788 49.33,6.989 49.33,6.489 C49.33,6.079 49.149,5.848 48.779,5.848 C47.709,5.848 44.809,8.298 44.289,9.478 L44.259,9.448 C44.399,8.788 44.979,6.989 44.979,6.489 C44.979,6.079 44.798,5.848 44.429,5.848 C43.709,5.848 42.489,7.127 41.859,7.787 L42.169,8.107 C42.369,7.918 43.109,7.197 43.389,7.197 C43.569,7.197 43.619,7.307 43.619,7.418 C43.619,7.578 43.509,7.867 43.409,8.197 L42.179,11.78 L42.179,11.78 Z M54.488,16.27 L54.659,16.4 L55.679,16.001 C56.599,12.821 57.589,9.65 58.229,6.351 L59.989,6.351 L60.149,5.721 L58.42,5.721 L58.739,3.731 C58.889,2.791 59.039,1.791 59.699,1.791 C60.809,1.752 61.049,2.162 61.569,2.162 C62.039,2.162 62.16,1.722 62.16,1.322 C62.16,0.832 61.859,0.582 61.449,0.582 C59.519,0.582 57.459,2.531 56.979,5.722 L55.399,5.722 L55.229,6.352 L56.769,6.352 L54.488,16.27 L54.488,16.27 Z M64.579,5.629 C61.958,5.629 60.288,7.529 60.288,9.93 C60.288,11.41 61.169,12.85 63.179,12.85 C66.118,12.85 67.449,10.709 67.449,8.55 C67.448,6.97 66.679,5.629 64.579,5.629 L64.579,5.629 Z M63.099,12.22 C61.919,12.22 61.649,11.47 61.649,10.539 C61.649,9.16 62.489,6.26 64.628,6.26 C65.909,6.26 66.089,7.071 66.089,7.84 C66.089,9.129 65.309,12.22 63.099,12.22 L63.099,12.22 Z M69.288,11.78 C69.169,12.18 69.079,12.43 69.079,12.56 C69.079,12.76 69.358,12.8 70.118,12.8 C70.659,12.8 70.528,12.15 71.429,10.449 C71.868,9.649 73.499,7.199 74.298,7.199 C74.559,7.199 74.679,7.359 74.679,7.59 C74.378,7.69 73.339,11.289 73.339,12.05 C73.339,12.49 73.538,12.8 73.849,12.8 C74.589,12.8 75.41,12.02 76.579,10.61 L76.268,10.34 C76.068,10.55 75.248,11.449 74.888,11.449 C74.758,11.449 74.698,11.359 74.698,11.25 C75.068,10.83 76.148,7.18 76.148,6.529 C76.148,5.969 75.909,5.849 75.568,5.849 C74.398,5.849 71.628,8.299 71.098,9.479 L71.078,9.449 C71.217,8.789 71.797,6.99 71.797,6.49 C71.797,6.08 71.617,5.849 71.248,5.849 C70.527,5.849 69.297,7.128 68.678,7.788 L68.988,8.108 C69.188,7.919 69.928,7.198 70.208,7.198 C70.389,7.198 70.438,7.308 70.438,7.419 C70.438,7.579 70.329,7.868 70.228,8.198 L69.288,11.78 L69.288,11.78 Z M78.368,8.379 C78.348,8.19 78.318,7.93 78.318,7.789 C78.318,7.26 78.528,7.029 78.909,7.029 C79.738,7.029 80.378,8.229 80.958,11.059 C81.048,11.49 81.218,12.809 81.288,13.58 C80.858,14.029 80.238,15.05 79.148,15.05 C78.528,15.05 78.297,14.9 77.808,14.9 C77.568,14.9 77.207,15.04 77.207,15.68 C77.207,16.25 77.588,16.4 78.138,16.4 C78.867,16.4 79.318,16.22 79.938,15.68 C83.868,12.15 85.568,8.321 85.568,6.68 C85.568,6.039 85.368,5.68 84.909,5.68 C84.429,5.68 84.208,6.129 84.208,6.73 C84.208,7.28 84.488,7.67 84.488,8.35 C84.488,9.35 83.348,11.1 82.808,11.87 L82.778,11.87 L82.329,9.491 C81.978,7.65 81.458,5.68 79.679,5.68 C78.089,5.68 77.689,7.15 77.689,8.26 L78.109,8.48 L78.368,8.379 Z" id="Shape"></path>
            </g>
            <path d="M75.409,11.38 C71.839,11.38 69.169,13.61 69.169,16.85 C69.169,19.23 71.449,23.89 71.449,25.85 C71.449,26.51 71.019,26.74 70.619,26.74 C69.719,26.73 68.389,25.58 68.069,23.89 C68.739,23.16 69.089,22.58 69.089,21.77 C69.089,20.81 67.989,19.07 66.619,19.08 C65.199,19.07 64.489,21.1 64.209,23.07 C62.589,24.84 61.199,25.81 60.649,25.81 C60.299,25.81 60.099,25.66 60.099,25.24 C60.099,24.27 61.349,21.54 62.059,19.85 C62.889,18 63.199,16.65 63.199,15.61 C63.199,14.11 62.299,12.96 60.489,12.95 C58.769,12.95 56.059,14.69 53.189,19.54 C54.249,17.65 54.759,14.96 54.759,14 C54.759,12.84 54.409,12.38 53.069,12.38 C50.639,12.38 47.139,16.42 47.139,18.69 C47.139,19.38 47.209,20.16 47.459,20.85 C45.099,24.01 43.329,25.43 42.469,25.43 C42.149,25.43 41.919,25.31 41.919,24.81 C41.919,24.08 43.569,20.5 44.389,18.31 C44.979,16.77 45.139,16 45.139,15.3 C45.139,13.73 43.529,12.19 41.329,12.19 C40.739,12.19 40.069,12.42 39.679,12.92 C39.489,16.23 38.939,18.92 37.599,23.08 C36.819,23.89 35.559,24.81 34.889,24.81 C34.339,24.81 34.099,24.43 34.099,23.81 C34.099,23.2 34.339,22.04 34.729,20.65 C36.739,17.46 37.759,15.15 37.759,13.92 C37.759,12.76 37.089,12.38 35.869,12.38 C33.119,12.38 29.349,16.69 29.349,19.08 C29.349,19.84 29.429,20.65 29.859,21.46 C28.839,23.93 28.289,26.16 28.289,27.31 C28.289,29.62 28.849,30.93 31.159,30.93 C32.929,30.93 35.319,29.31 37.209,25.81 C37.049,26.62 36.969,27.28 36.969,27.81 C36.969,29.821 37.949,30.321 39.569,30.31 C41.209,30.321 43.299,29.09 45.139,27.47 C45.639,27.04 46.119,26.59 46.569,26.12 C46.699,28.33 48.279,30.241 50.399,30.241 C51.299,30.241 51.579,30.12 51.969,29.741 C52.089,27.12 52.329,25.39 52.869,22.43 C54.409,20.34 55.699,19.77 56.049,19.77 C56.369,19.77 56.529,19.92 56.529,20.23 C56.519,21.08 54.519,24.97 54.519,27.5 C54.519,29.62 55.309,30.629 57.629,30.629 C59.479,30.619 62.139,28.9 64.279,26.9 C64.929,29.54 66.989,30.93 69.529,30.93 C73.059,30.93 77.099,29.119 77.099,24.47 C77.099,21.65 74.859,18.46 74.859,16.73 C74.859,16.04 75.289,15.8 76.119,15.8 C76.749,15.8 77.449,15.96 78.199,16.27 C78.669,15.8 79.019,14.99 79.029,14.19 C79.028,12.34 77.688,11.38 75.409,11.38 L75.409,11.38 Z" id="Shape" fill="url(#linearGradient-1)"></path>
            <path d="M9.128,14.61 C6.778,13.88 5.718,13.07 5.708,11.45 C5.718,8.84 9.168,5.6 10.268,5.6 C10.738,5.6 10.978,5.91 10.978,6.6 C10.979,7.61 10.309,10.65 9.128,14.61 L9.128,14.61 Z M25.548,12.34 C27.978,8.91 28.488,8.53 30.018,8.41 C30.528,7.87 30.728,7.1 30.728,6.49 C30.728,4.53 29.348,2.52 26.878,2.52 C24.798,2.52 23.738,3.1 21.498,8.22 C19.888,11.92 17.688,16 15.888,18.19 C15.138,18.19 14.468,18.23 13.918,18.3 C15.808,10.68 16.988,5.29 16.988,4.1 C16.988,2.06 15.728,0.6 12.978,0.6 C8.148,0.6 0.688,7.33 0.688,12.84 C0.688,16.19 3.558,18.19 6.968,18.19 C7.318,18.19 7.838,18.15 8.188,18.11 L7.678,20.46 C6.028,22.77 5.088,25.12 5.088,26.54 C5.088,28.661 7.358,30.62 9.478,30.629 C10.188,30.619 10.778,30.47 11.138,30.119 L12.938,21.959 C14.748,22.539 15.608,24.349 18.078,29.619 C19.068,31.699 19.768,32.279 21.268,32.279 C24.048,32.279 27.038,30.359 27.038,28.229 C27.038,27.779 26.878,27.199 26.568,26.849 C26.088,26.969 25.308,27.079 24.958,27.079 C24.368,27.089 23.968,26.849 23.498,25.929 C22.128,23.229 20.758,20.499 19.338,19.579 C21.188,18 23.148,15.73 25.548,12.34 L25.548,12.34 Z" id="Shape" fill="url(#linearGradient-2)"></path>
            <path d="M143.968,23.77 C143.498,24.35 142.948,24.73 142.398,24.74 C141.848,24.73 141.378,24.58 141.378,23.16 C141.378,20.19 143.268,17 145.228,15.77 L143.968,23.77 Z M126.729,23.78 C126.269,24.35 125.719,24.74 125.159,24.74 C124.619,24.74 124.139,24.58 124.139,23.16 C124.139,20.19 126.029,17 127.989,15.77 L126.729,23.78 Z M173.028,20.42 C170.598,23.85 168.118,25.81 167.339,25.81 C166.979,25.81 166.788,25.66 166.788,25.23 C166.788,24.27 168.048,21.54 168.749,19.85 C169.579,18 169.889,16.65 169.889,15.61 C169.889,14.11 168.989,12.95 167.179,12.95 C165.449,12.95 162.749,14.69 159.878,19.54 C160.939,17.65 161.448,14.96 161.448,14 C161.448,12.84 161.089,12.38 159.759,12.38 C157.319,12.38 153.829,16.42 153.829,18.69 C153.829,19.41 153.909,20.22 154.169,20.92 C151.829,24.02 149.939,25.35 149.198,25.35 C148.878,25.35 148.718,25.24 148.728,24.46 C148.717,23.46 148.428,23.19 149.797,18.34 C150.108,17.26 150.228,16.3 150.237,15.8 C150.227,14.45 149.597,12.8 146.927,12.8 C146.376,12.8 145.866,12.95 145.557,13.3 L145.427,13.26 C145.227,13.07 144.957,12.99 144.407,12.99 C141.077,12.99 137.067,17.34 135.927,22.18 C134.057,24.39 132.587,25.35 131.957,25.35 C131.637,25.35 131.477,25.23 131.487,24.47 C131.487,23.47 131.187,23.19 132.557,18.34 C132.877,17.26 132.987,16.3 132.987,15.8 C132.987,14.45 132.357,12.8 129.687,12.8 C129.137,12.8 128.627,12.95 128.317,13.3 L128.187,13.26 C127.987,13.07 127.717,12.99 127.167,12.99 C123.857,12.99 119.887,17.28 118.707,22.08 C116.517,24.78 114.647,26.2 114.047,26.2 C113.697,26.19 113.497,26.04 113.497,25.62 C113.497,24.66 115.067,21.31 115.777,19.61 C116.487,18 116.837,16.65 116.837,15.65 C116.837,14.15 115.977,12.8 114.167,12.8 C112.437,12.8 110.277,14.46 107.057,19.19 C108.007,17.35 108.037,16.46 108.037,15.46 C108.037,14.19 107.217,13.19 105.727,13.19 C103.997,13.19 102.037,14.3 99.167,19.15 C100.117,17.11 100.387,15.76 100.387,14.8 C100.387,13.65 99.837,13.19 98.697,13.19 C96.257,13.19 93.117,16.03 93.117,18.31 C93.117,19.05 93.197,19.89 93.487,20.61 C90.887,24.1 88.287,25.85 86.717,25.85 C85.897,25.86 85.657,25.43 85.657,24.51 C85.657,23.93 85.967,21.77 87.037,17.53 C88.167,17.73 88.997,17.77 89.897,17.77 C91.197,17.77 92.177,16.65 92.177,15.19 C92.177,14.61 91.907,13.92 91.427,13.57 C90.917,13.69 89.267,13.8 88.057,13.84 C90.137,9.76 90.607,8.84 90.607,7.64 C90.607,5.99 89.787,5.37 87.977,5.37 C85.307,5.37 83.187,7.8 82.827,11.19 C82.677,12.61 82.637,13.22 82.597,14.03 C80.987,14.07 80.127,15.15 80.127,16.34 C80.127,17.19 80.787,17.27 81.577,17.34 C80.087,22.23 79.687,24.58 79.687,25.7 C79.687,29.241 81.727,30.78 84.757,30.78 C87.287,30.78 90.287,28.61 92.437,26.31 C92.637,28.459 94.187,30.28 96.257,30.28 C97.157,30.28 97.437,30.161 97.827,29.78 C97.947,27.16 98.307,25 98.857,22.04 C100.387,19.96 101.327,19.38 101.677,19.38 C101.997,19.38 102.157,19.5 102.147,19.85 C102.147,20.23 101.797,21.12 101.487,21.96 C100.777,23.81 100.147,26.08 100.147,27.54 C100.187,29.85 101.677,30.741 103.877,30.741 C104.707,30.741 105.057,30.551 105.447,30.161 C105.567,27.54 105.957,25.39 106.507,22.42 C108.037,20.34 109.417,19.54 109.767,19.54 C110.087,19.54 110.237,19.69 110.237,20 C110.237,20.85 107.927,25.43 107.917,27.97 C107.927,30.09 108.707,31.09 111.027,31.09 C113.087,31.09 116.207,28.82 118.507,26.42 C118.937,28.87 120.397,30.12 122.257,30.129 C123.637,30.119 125.437,29.16 126.697,25.66 C126.617,26.24 126.577,26.74 126.577,27.16 C126.577,29.619 127.677,30.321 129.407,30.321 C130.957,30.321 133.637,28.44 135.727,26.33 C136.137,28.83 137.607,30.12 139.497,30.12 C140.867,30.13 142.677,29.161 143.927,25.661 C143.857,26.231 143.817,26.741 143.817,27.161 C143.817,29.62 144.917,30.322 146.637,30.311 C148.267,30.322 151.116,28.261 153.247,26.041 C153.356,28.291 154.936,30.242 157.087,30.242 C157.986,30.242 158.267,30.121 158.657,29.742 C158.776,27.121 159.007,25.391 159.556,22.431 C161.086,20.351 162.386,19.771 162.746,19.771 C163.056,19.771 163.205,19.931 163.205,20.231 C163.215,21.081 161.205,24.961 161.205,27.501 C161.205,29.621 161.996,30.621 164.306,30.621 C167.926,30.631 174.556,24.121 174.556,21.691 C174.559,20.93 173.778,20.42 173.028,20.42 L173.028,20.42 Z" id="Shape" fill="url(#linearGradient-3)"></path>
            <path d="M197.509,16.71 C197.509,13.82 196.479,12.56 194.409,12.56 C192.388,12.56 190.628,14.43 190.628,16.4 C190.628,16.71 190.669,16.97 190.738,17.31 C192.118,17.73 192.499,18.27 192.499,19.71 C192.499,22.22 190.398,25.75 188.978,25.75 C188.528,25.75 188.329,25.22 188.329,21.91 C188.329,20.55 188.599,17.73 188.978,15.38 C193.648,8.88 195.028,6.02 195.028,4.5 C195.028,2.68 194.068,1.92 192.538,1.92 C187.648,1.92 182.749,13.89 182.749,23.32 C182.749,28.15 184.398,30.24 187.488,30.24 C192.499,30.241 197.509,22.56 197.509,16.71 L197.509,16.71 Z" id="Shape" fill="url(#linearGradient-4)"></path>
            <path d="M208.599,12.75 C208.41,16.02 207.869,18.68 206.569,22.79 C205.809,23.59 204.59,24.5 203.939,24.5 C203.399,24.5 203.169,24.12 203.169,23.51 C203.169,22.9 203.398,21.76 203.778,20.39 C205.728,17.24 206.728,14.96 206.728,13.74 C206.728,12.6 206.079,12.22 204.888,12.22 C202.217,12.22 198.537,16.48 198.537,18.84 C198.537,19.6 198.617,20.39 199.037,21.19 C198.047,23.63 197.508,25.83 197.508,26.97 C197.508,29.25 198.047,30.539 200.297,30.539 C202.018,30.539 204.358,28.949 206.188,25.49 C206.038,26.29 205.958,26.93 205.958,27.46 C205.958,29.44 206.919,29.94 208.488,29.94 C210.089,29.94 212.118,28.72 213.919,27.12 C216.128,25.18 218.048,22.71 218.048,21.34 C218.048,20.66 217.278,20.17 216.479,20.17 C214.029,23.59 212.199,25.11 211.319,25.11 C211.009,25.11 210.779,24.99 210.779,24.5 C210.779,23.78 212.389,20.24 213.189,18.08 C213.759,16.55 213.919,15.79 213.919,15.11 C213.919,13.55 212.349,12.03 210.208,12.03 C209.628,12.03 208.979,12.26 208.599,12.75 L208.599,12.75 Z" id="Shape" fill="url(#linearGradient-5)"></path>
            <path d="M216.769,20.81 C216.119,22.56 215.819,24.12 215.819,25.56 C215.849,27.84 217.42,29.86 219.559,29.86 C220.439,29.86 220.708,29.751 221.089,29.37 C221.208,26.781 221.439,25.071 221.968,22.141 C223.458,20.091 224.718,19.521 225.069,19.521 C225.369,19.521 225.529,19.671 225.529,19.981 C225.529,20.811 223.58,24.651 223.58,27.161 C223.58,29.251 224.34,30.242 226.6,30.242 C230.12,30.242 236.58,23.822 236.58,21.421 C236.58,20.661 235.809,20.171 235.09,20.171 C232.719,23.551 230.31,25.491 229.539,25.491 C229.199,25.491 229.01,25.341 229.01,24.921 C229.01,23.971 230.23,21.271 230.92,19.601 C231.719,17.771 232.029,16.441 232.029,15.411 C232.029,13.931 231.149,12.791 229.389,12.791 C227.708,12.791 225.069,14.501 222.279,19.291 C223.309,17.431 223.809,14.771 223.809,13.821 C223.809,12.681 223.458,12.221 222.16,12.221 C219.789,12.221 216.389,16.211 216.389,18.461 C216.389,19.22 216.468,20.09 216.769,20.81 L216.769,20.81 Z" id="Shape" fill="url(#linearGradient-6)"></path>
            <path d="M233.468,23.89 C233.468,28.11 235.458,30.09 238.519,30.09 C243.369,30.09 249.569,22.45 249.569,10.62 C249.569,4.88 246.699,1.31 242.379,1.31 C238.98,1.31 237.449,3.14 237.449,4.92 C237.449,5.38 237.599,5.87 237.939,6.18 C241.539,6.4 243.949,8.65 243.949,13.06 C243.949,19.22 241.609,25.15 240.01,25.15 C239.239,25.15 238.86,24.77 238.86,23.47 C238.86,20.77 240.081,16.74 242.88,14.96 C242.911,14.81 242.911,14.65 242.911,14.5 C242.911,13.51 242.341,12.87 241.15,12.87 C238.099,12.87 233.468,18.34 233.468,23.89 L233.468,23.89 Z" id="Shape" fill="url(#linearGradient-7)"></path>
            <path d="M251.218,18.76 C250.919,20.36 249.698,24.77 249.698,27.31 C249.698,29.289 250.499,30.241 252.718,30.241 C256.579,30.241 262.769,24.27 262.769,21.38 C262.769,20.62 262.048,20.09 261.319,20.09 C259.33,23.17 257.069,25.34 255.889,25.34 C255.548,25.34 255.349,25.18 255.349,24.77 C255.349,23.82 257.149,17.2 258.179,13.51 C261.048,8.15 261.819,6.29 261.819,4.62 C261.819,2.68 260.779,1.92 259.139,1.92 C256.118,1.92 253.399,5 252.718,10.13 C252.368,12.72 251.679,16.29 251.218,18.76 L251.218,18.76 Z" id="Shape" fill="url(#linearGradient-8)"></path>
            <path d="M265.509,30.09 C270.479,30.09 276.868,24.04 276.868,21.23 C276.868,20.62 276.329,20.01 275.419,19.98 C273.238,23.28 269.868,25.49 267.269,25.49 C265.779,25.49 265.439,24.54 265.439,22.83 C270.679,21.65 272.548,19.18 272.548,15.98 C272.548,13.32 271.099,12.07 268.458,12.07 C264.749,12.07 260.048,17.92 260.048,23.66 C260.048,27.77 261.769,30.09 265.509,30.09 L265.509,30.09 Z M268.269,17.31 C268.269,18.46 267.809,19.63 265.669,20.01 C265.929,17.35 266.968,16.06 267.499,16.06 C267.958,16.06 268.269,16.52 268.269,17.31 L268.269,17.31 Z" id="Shape" fill="url(#linearGradient-9)"></path>
            <path d="M275.898,18.84 C274.028,18.84 273.419,22.52 273.419,24.77 C273.419,28.53 275.749,30.54 278.729,30.54 C282.169,30.54 286.109,28.761 286.109,24.161 C286.109,21.381 283.929,18.231 283.929,16.521 C283.929,15.831 284.349,15.601 285.149,15.601 C285.769,15.601 286.459,15.761 287.179,16.061 C287.639,15.601 287.979,14.811 287.979,14.011 C287.979,12.181 286.679,11.231 284.468,11.231 C280.989,11.231 278.389,13.441 278.389,16.631 C278.389,18.991 280.599,23.591 280.599,25.531 C280.599,26.171 280.179,26.401 279.798,26.401 C278.919,26.401 277.618,25.261 277.319,23.591 C277.968,22.861 278.309,22.291 278.309,21.501 C278.309,20.55 277.238,18.84 275.898,18.84 Z" id="Shape" fill="url(#linearGradient-10)"></path>
        </g>
    </g>
</svg>