<?xml version="1.0" encoding="UTF-8" standalone="no"?>
<svg width="163px" height="46px" viewBox="0 0 163 46" version="1.1" xmlns="http://www.w3.org/2000/svg" xmlns:xlink="http://www.w3.org/1999/xlink" xmlns:sketch="http://www.bohemiancoding.com/sketch/ns">
    <!-- Generator: Sketch 3.2.2 (9983) - http://www.bohemiancoding.com/sketch -->
    <title>18.Pictures-Day + 23.Videos + 14.News</title>
    <desc>Created with Sketch.</desc>
    <defs></defs>
    <g id="Page-1" stroke="none" stroke-width="1" fill="none" fill-rule="evenodd" sketch:type="MSPage">
	<g id="18.Pictures-Day-+-23.Videos-+-14.News" sketch:type="MSLayerGroup" fill="#FFFFFF">
	    <g id="18.Pictures-Day" transform="translate(0.000000, 12.000000)" sketch:type="MSShapeGroup">
		<path d="M42,34 L4,34 C1.791,34 0,32.209 0,30 L0,4 C0,1.791 1.791,0 4,0 L42,0 C44.209,0 46,1.791 46,4 L46,30 C46,32.209 44.209,34 42,34 L42,34 Z M44,4 C44,2.896 43.104,2 42,2 L4,2 C2.896,2 2,2.896 2,4 L2,30 C2,31.104 2.896,32 4,32 L42,32 C43.104,32 44,31.104 44,30 L44,4 L44,4 Z M40.334,27.715 L34,21.381 L30.381,25 L33.715,28.334 C34.096,28.715 34.096,29.333 33.715,29.715 C33.333,30.096 32.715,30.096 32.334,29.715 L18,15.381 L5.666,27.715 C5.285,28.096 4.667,28.096 4.285,27.715 C3.904,27.333 3.904,26.715 4.285,26.334 L17.19,13.429 C17.222,13.381 17.243,13.328 17.285,13.285 C17.482,13.088 17.742,12.998 18,13.004 C18.258,12.998 18.518,13.088 18.715,13.285 C18.757,13.328 18.777,13.381 18.81,13.429 L29,23.619 L33.19,19.429 C33.223,19.382 33.243,19.328 33.285,19.285 C33.482,19.089 33.742,18.998 34,19.004 C34.258,18.998 34.518,19.089 34.715,19.285 C34.757,19.328 34.777,19.382 34.81,19.429 L41.715,26.334 C42.096,26.715 42.096,27.333 41.715,27.715 C41.333,28.096 40.715,28.096 40.334,27.715 L40.334,27.715 Z M28,12 C25.791,12 24,10.209 24,8 C24,5.791 25.791,4 28,4 C30.209,4 32,5.791 32,8 C32,10.209 30.209,12 28,12 L28,12 Z M28,6 C26.896,6 26,6.896 26,8 C26,9.104 26.896,10 28,10 C29.104,10 30,9.104 30,8 C30,6.896 29.104,6 28,6 L28,6 Z" id="Shape"></path>
	    </g>
	    <g id="23.Videos" transform="translate(117.000000, 10.000000)" sketch:type="MSShapeGroup">
		<path d="M42,36 L4,36 C1.791,36 0,34.209 0,32 L0,4 C0,1.791 1.791,0 4,0 L42,0 C44.209,0 46,1.791 46,4 L46,32 C46,34.209 44.209,36 42,36 L42,36 Z M11,2 L4,2 C2.896,2 2,2.896 2,4 L2,6 L11,6 L11,2 L11,2 Z M22,2 L13,2 L13,6 L22,6 L22,2 L22,2 Z M33,2 L24,2 L24,6 L33,6 L33,2 L33,2 Z M44,4 C44,2.896 43.104,2 42,2 L35,2 L35,6 L44,6 L44,4 L44,4 Z M44,8 L44,8 L2,8 L2,28 L44,28 L44,8 L44,8 Z M44,30 L44,30 L35,30 L35,34 L33,34 L33,30 L24,30 L24,34 L22,34 L22,30 L13,30 L13,34 L11,34 L11,30 L2,30 L2,32 C2,33.104 2.896,34 4,34 L42,34 C43.104,34 44,33.104 44,32 L44,30 L44,30 Z M20.621,23.765 C20.449,23.904 20.238,24 20,24 C19.447,24 19,23.553 19,23 L19,13 C19,12.448 19.447,12 20,12 C20.213,12 20.4,12.082 20.563,12.196 L28.334,17.068 C28.72,17.205 29,17.566 29,18 C29,18.325 28.835,18.601 28.595,18.783 L20.621,23.765 L20.621,23.765 Z" id="Shape"></path>
	    </g>
	    <g id="14.News" transform="translate(61.000000, 0.000000)" sketch:type="MSShapeGroup">
		<path d="M39,46 L39,46 L5,46 C2.238,46 0,43.762 0,41 L0,1 C0,0.448 0.447,0 1,0 L1,0 L35,0 C35.414,0 35.77,0.252 35.922,0.611 C35.972,0.73 36,0.862 36,1 L36,1 L36,15 L43,15 C43.553,15 44,15.448 44,16 L44,41 C44,43.762 41.762,46 39,46 L39,46 Z M34,41 L34,2 L2,2 L2,41 C2,42.657 3.344,44 5,44 L35.022,44 C34.39,43.162 34,42.131 34,41 L34,41 Z M42,17 L36,17 L36,41 C36,42.657 37.343,44 39,44 C40.657,44 42,42.657 42,41 L42,17 L42,17 Z M5,39 C5,38.448 5.447,38 6,38 L15,38 C15.553,38 16,38.448 16,39 C16,39.553 15.553,40 15,40 L6,40 C5.447,40 5,39.553 5,39 L5,39 Z M9.666,22.715 C9.285,23.096 8.667,23.096 8.285,22.715 C7.904,22.334 7.904,21.715 8.285,21.334 L14.19,15.429 C14.222,15.382 14.243,15.328 14.285,15.286 C14.482,15.089 14.742,14.998 15,15.004 C15.258,14.998 15.518,15.088 15.715,15.286 C15.757,15.328 15.777,15.382 15.81,15.429 L20,19.619 L22.19,17.429 C22.222,17.382 22.243,17.328 22.285,17.286 C22.482,17.089 22.742,16.998 23,17.005 C23.258,16.998 23.518,17.089 23.715,17.286 C23.757,17.328 23.777,17.382 23.81,17.429 L27.715,21.334 C28.096,21.715 28.096,22.334 27.715,22.715 C27.333,23.096 26.715,23.096 26.334,22.715 L23,19.381 L21.381,21 L21.715,21.334 C22.096,21.715 22.096,22.334 21.715,22.715 C21.334,23.096 20.715,23.096 20.334,22.715 L15,17.381 L9.666,22.715 L9.666,22.715 Z M21,28 L30,28 C30.553,28 31,28.448 31,29 C31,29.553 30.553,30 30,30 L21,30 C20.447,30 20,29.553 20,29 C20,28.448 20.447,28 21,28 L21,28 Z M21,33 L30,33 C30.553,33 31,33.448 31,34 C31,34.553 30.553,35 30,35 L21,35 C20.447,35 20,34.553 20,34 C20,33.448 20.447,33 21,33 L21,33 Z M21,38 L30,38 C30.553,38 31,38.448 31,39 C31,39.553 30.553,40 30,40 L21,40 C20.447,40 20,39.553 20,39 C20,38.448 20.447,38 21,38 L21,38 Z M22,14.5 C22,15.329 21.328,16 20.5,16 C19.672,16 19,15.329 19,14.5 C19,13.671 19.672,13 20.5,13 C21.328,13 22,13.671 22,14.5 L22,14.5 Z M25,9 L11,9 C10.447,9 10,8.552 10,8 C10,7.448 10.447,7 11,7 L25,7 C25.553,7 26,7.448 26,8 C26,8.552 25.553,9 25,9 L25,9 Z M6,33 L15,33 C15.553,33 16,33.448 16,34 C16,34.553 15.553,35 15,35 L6,35 C5.447,35 5,34.553 5,34 C5,33.448 5.447,33 6,33 L6,33 Z M16,29 C16,29.553 15.553,30 15,30 L6,30 C5.447,30 5,29.553 5,29 C5,28.448 5.447,28 6,28 L15,28 C15.553,28 16,28.448 16,29 L16,29 Z" id="Shape"></path>
	    </g>
	</g>
    </g>
</svg>